M48
METRIC,LZ,000.000
;FILE_FORMAT=3:3
;TYPE=PLATED
;Layer: PTH_Through
;EasyEDA v6.5.57, 2026-08-22 17:03:58
;b964f05a3b9147adb4d4000912e9aaab,b708071f21264b789b81ea9d82a1e275,10
;Gerber Generator version 0.2
;Holesize 1 = 0.712 mm
T01C0.712
;Holesize 2 = 0.889 mm
T02C0.889
;Holesize 3 = 0.900 mm
T03C0.900
;Holesize 4 = 1.143 mm
T04C1.143
;Holesize 5 = 1.200 mm
T05C1.200
;Holesize 6 = 1.301 mm
T06C1.301
;Holesize 7 = 1.400 mm
T07C1.400
;Holesize 8 = 1.701 mm
T08C1.701
%
G05
G90
T01
X086487Y-049276
X086487Y-050546
X086487Y-051816
X109347Y-046736
X109347Y-048006
X109347Y-049276
X095377Y-058928
X095377Y-057658
X095377Y-056388
X101600Y-065024
X101600Y-063754
X101600Y-062484
X070993Y-046736
X073533Y-046736
X076073Y-046736
X078613Y-046736
X081153Y-046736
X083693Y-046736
X086233Y-046736
X086233Y-039116
X083693Y-039116
X081153Y-039116
X078613Y-039116
X076073Y-039116
X073533Y-039116
X070993Y-039116
T02
X066040Y-044323
X066040Y-041783
X061849Y-044196
X061849Y-041656
X106299Y-060706
X106299Y-058166
T03
X080772Y-062230
X088392Y-062230
X081280Y-055626
X088900Y-055626
X078232Y-058166
X078232Y-050546
X092075Y-052959
X092075Y-045339
X095616Y-053086
X095616Y-045466
X090551Y-070612
X098171Y-070612
X088265Y-065024
X080645Y-065024
X101854Y-055753
X101854Y-048133
X055880Y-052070
X048260Y-052070
X046228Y-046736
X046228Y-039116
X118110Y-035560
X118110Y-027940
X058674Y-054991
X058674Y-047371
T04
X048390Y-031369G85X048384Y-031369
X048390Y-028829G85X048384Y-028829
X048390Y-033909G85X048384Y-033909
X033150Y-031496G85X033144Y-031496
X033150Y-028956G85X033144Y-028956
X033150Y-034036G85X033144Y-034036
T05
X066802Y-027623
X066802Y-035370
X099886Y-041148
X092139Y-041148
T06
X071755Y-022479
X076835Y-022479
X065913Y-053848
X065913Y-058928
T07
X092075Y-028702
X092075Y-033782
X092075Y-031242
X110998Y-028321
X110998Y-033401
X110998Y-030861
T08
X021463Y-029083
X021463Y-044323
X048387Y-018669
X033147Y-018669
M30
