G04 Layer: TopSolderMaskLayer*
G04 EasyEDA v6.5.57, 2026-08-22 17:03:58*
G04 b964f05a3b9147adb4d4000912e9aaab,b708071f21264b789b81ea9d82a1e275,10*
G04 Gerber Generator version 0.2*
G04 Scale: 100 percent, Rotated: No, Reflected: No *
G04 Dimensions in millimeters *
G04 leading zeros omitted , absolute positions ,4 integer and 5 decimal *
%FSLAX45Y45*%
%MOMM*%

%AMMACRO1*4,1,8,-1.0455,-0.5969,-1.1049,-0.5372,-1.1049,0.5375,-1.0455,0.5969,1.0452,0.5969,1.1049,0.5375,1.1049,-0.5372,1.0452,-0.5969,-1.0455,-0.5969,0*%
%AMMACRO2*4,1,8,-0.5248,-0.508,-0.5842,-0.4483,-0.5842,0.4486,-0.5248,0.508,0.5245,0.508,0.5842,0.4486,0.5842,-0.4483,0.5245,-0.508,-0.5248,-0.508,0*%
%AMMACRO3*4,1,8,-0.7407,-0.8001,-0.8001,-0.7404,-0.8001,0.7407,-0.7407,0.8001,0.7404,0.8001,0.8001,0.7407,0.8001,-0.7404,0.7404,-0.8001,-0.7407,-0.8001,0*%
%AMMACRO4*4,1,8,-1.542,-2.1016,-1.6015,-2.0419,-1.6015,2.0422,-1.542,2.1016,1.5418,2.1016,1.6015,2.0422,1.6015,-2.0419,1.5418,-2.1016,-1.542,-2.1016,0*%
%AMMACRO5*4,1,8,-2.0422,-1.6015,-2.1016,-1.5418,-2.1016,1.542,-2.0422,1.6015,2.0419,1.6015,2.1016,1.542,2.1016,-1.5418,2.0419,-1.6015,-2.0422,-1.6015,0*%
%AMMACRO6*4,1,8,-0.8296,-0.889,-0.889,-0.8293,-0.889,0.8296,-0.8296,0.889,0.8293,0.889,0.889,0.8296,0.889,-0.8293,0.8293,-0.889,-0.8296,-0.889,0*%
%AMMACRO7*4,1,8,-1.5422,-1.6016,-1.6016,-1.5419,-1.6016,1.5422,-1.5422,1.6016,1.5419,1.6016,1.6016,1.5422,1.6016,-1.5419,1.5419,-1.6016,-1.5422,-1.6016,0*%
%AMMACRO8*4,1,8,-1.2918,-1.1024,-1.3513,-1.0427,-1.3513,1.0429,-1.2918,1.1024,1.2916,1.1024,1.3513,1.0429,1.3513,-1.0427,1.2916,-1.1024,-1.2918,-1.1024,0*%
%ADD10O,2.7432X2.2352*%
%ADD11MACRO1*%
%ADD12MACRO2*%
%ADD13C,1.1938*%
%ADD14MACRO3*%
%ADD15C,1.6002*%
%ADD16O,3.203194X4.203192*%
%ADD17O,0.0137X4.203192*%
%ADD18MACRO4*%
%ADD19O,4.203192X3.203194*%
%ADD20MACRO5*%
%ADD21MACRO6*%
%ADD22C,1.7780*%
%ADD23C,2.3622*%
%ADD24MACRO7*%
%ADD25C,3.2032*%
%ADD26C,2.0828*%
%ADD27MACRO8*%
%ADD28O,2.703195X2.203196*%

%LPD*%
D10*
G01*
X4838700Y-3136900D03*
G01*
X4838700Y-2882900D03*
G01*
X4838700Y-3390900D03*
G01*
X3314700Y-3149600D03*
G01*
X3314700Y-2895600D03*
G01*
X3314700Y-3403600D03*
D11*
G01*
X8648700Y-4927600D03*
G01*
X8648700Y-5054600D03*
G01*
X8648700Y-5181600D03*
G01*
X10934700Y-4673600D03*
G01*
X10934700Y-4800600D03*
G01*
X10934700Y-4927600D03*
D12*
G01*
X9537700Y-5892800D03*
D13*
G01*
X9537700Y-5765800D03*
G01*
X9537700Y-5638800D03*
D12*
G01*
X10160000Y-6502400D03*
D13*
G01*
X10160000Y-6375400D03*
G01*
X10160000Y-6248400D03*
D14*
G01*
X7099300Y-4673600D03*
D15*
G01*
X7353300Y-4673600D03*
G01*
X7607300Y-4673600D03*
G01*
X7861300Y-4673600D03*
G01*
X8115300Y-4673600D03*
G01*
X8369300Y-4673600D03*
G01*
X8623300Y-4673600D03*
G01*
X8623300Y-3911600D03*
G01*
X8369300Y-3911600D03*
G01*
X8115300Y-3911600D03*
G01*
X7861300Y-3911600D03*
G01*
X7607300Y-3911600D03*
G01*
X7353300Y-3911600D03*
G01*
X7099300Y-3911600D03*
D16*
G01*
X7175500Y-2247900D03*
D18*
G01*
X7683500Y-2247900D03*
D19*
G01*
X6591300Y-5384800D03*
D20*
G01*
X6591300Y-5892800D03*
D21*
G01*
X6604000Y-4432300D03*
D22*
G01*
X6604000Y-4178300D03*
D21*
G01*
X6184900Y-4419600D03*
D22*
G01*
X6184900Y-4165600D03*
D21*
G01*
X10629900Y-6070600D03*
D22*
G01*
X10629900Y-5816600D03*
D23*
G01*
X6680200Y-2762250D03*
G01*
X6680200Y-3536950D03*
G01*
X9988550Y-4114800D03*
G01*
X9213850Y-4114800D03*
D24*
G01*
X2146312Y-2908312D03*
D25*
G01*
X2146300Y-4432300D03*
D24*
G01*
X4838712Y-1866912D03*
D25*
G01*
X3314700Y-1866900D03*
D26*
G01*
X8077200Y-6223000D03*
G01*
X8839200Y-6223000D03*
G01*
X8128000Y-5562600D03*
G01*
X8890000Y-5562600D03*
G01*
X7823200Y-5816600D03*
G01*
X7823200Y-5054600D03*
G01*
X9207500Y-5295900D03*
G01*
X9207500Y-4533900D03*
G01*
X9561575Y-5308600D03*
G01*
X9561575Y-4546600D03*
G01*
X9055100Y-7061200D03*
G01*
X9817100Y-7061200D03*
G01*
X8826500Y-6502400D03*
G01*
X8064500Y-6502400D03*
G01*
X10185400Y-5575300D03*
G01*
X10185400Y-4813300D03*
G01*
X5588000Y-5207000D03*
G01*
X4826000Y-5207000D03*
G01*
X4622800Y-4673600D03*
G01*
X4622800Y-3911600D03*
G01*
X11811000Y-3556000D03*
G01*
X11811000Y-2794000D03*
G01*
X5867400Y-5499100D03*
G01*
X5867400Y-4737100D03*
D27*
G01*
X9207500Y-2870200D03*
D28*
G01*
X9207500Y-3378200D03*
G01*
X9207500Y-3124200D03*
D27*
G01*
X11099800Y-2832100D03*
D28*
G01*
X11099800Y-3340100D03*
G01*
X11099800Y-3086100D03*
M02*
