G04 Layer: TopSilkscreenLayer*
G04 EasyEDA v6.5.57, 2026-08-22 17:03:58*
G04 b964f05a3b9147adb4d4000912e9aaab,b708071f21264b789b81ea9d82a1e275,10*
G04 Gerber Generator version 0.2*
G04 Scale: 100 percent, Rotated: No, Reflected: No *
G04 Dimensions in millimeters *
G04 leading zeros omitted , absolute positions ,4 integer and 5 decimal *
%FSLAX45Y45*%
%MOMM*%

%ADD10C,0.2032*%
%ADD11C,0.1524*%
%ADD12C,0.1500*%
%ADD13C,0.2540*%
%ADD14C,0.2286*%
%ADD15C,0.4000*%
%ADD16C,0.0159*%

%LPD*%
D10*
X2628900Y-5718555D02*
G01*
X2628900Y-5912357D01*
X2628900Y-5718555D02*
G01*
X2711958Y-5718555D01*
X2739643Y-5727700D01*
X2749041Y-5736844D01*
X2758186Y-5755386D01*
X2758186Y-5773928D01*
X2749041Y-5792470D01*
X2739643Y-5801613D01*
X2711958Y-5810757D01*
X2628900Y-5810757D01*
X2693670Y-5810757D02*
G01*
X2758186Y-5912357D01*
X2819145Y-5718555D02*
G01*
X2819145Y-5856986D01*
X2828290Y-5884671D01*
X2846831Y-5903213D01*
X2874518Y-5912357D01*
X2893059Y-5912357D01*
X2920745Y-5903213D01*
X2939288Y-5884671D01*
X2948431Y-5856986D01*
X2948431Y-5718555D01*
X3138677Y-5746242D02*
G01*
X3120390Y-5727700D01*
X3092450Y-5718555D01*
X3055620Y-5718555D01*
X3027934Y-5727700D01*
X3009391Y-5746242D01*
X3009391Y-5764529D01*
X3018790Y-5783071D01*
X3027934Y-5792470D01*
X3046475Y-5801613D01*
X3101847Y-5820155D01*
X3120390Y-5829300D01*
X3129534Y-5838444D01*
X3138677Y-5856986D01*
X3138677Y-5884671D01*
X3120390Y-5903213D01*
X3092450Y-5912357D01*
X3055620Y-5912357D01*
X3027934Y-5903213D01*
X3009391Y-5884671D01*
X3199638Y-5718555D02*
G01*
X3199638Y-5912357D01*
X3328924Y-5718555D02*
G01*
X3328924Y-5912357D01*
X3199638Y-5810757D02*
G01*
X3328924Y-5810757D01*
X3389884Y-5718555D02*
G01*
X3389884Y-5912357D01*
X3450843Y-5718555D02*
G01*
X3450843Y-5912357D01*
X3450843Y-5912357D02*
G01*
X3561841Y-5912357D01*
X3765041Y-5718555D02*
G01*
X3838956Y-5912357D01*
X3912870Y-5718555D02*
G01*
X3838956Y-5912357D01*
X4047490Y-5718555D02*
G01*
X3973829Y-5912357D01*
X4047490Y-5718555D02*
G01*
X4121404Y-5912357D01*
X4001515Y-5847842D02*
G01*
X4093718Y-5847842D01*
X4182363Y-5718555D02*
G01*
X4182363Y-5912357D01*
X4182363Y-5718555D02*
G01*
X4265675Y-5718555D01*
X4293361Y-5727700D01*
X4302506Y-5736844D01*
X4311650Y-5755386D01*
X4311650Y-5773928D01*
X4302506Y-5792470D01*
X4293361Y-5801613D01*
X4265675Y-5810757D01*
X4182363Y-5810757D01*
X4247134Y-5810757D02*
G01*
X4311650Y-5912357D01*
X4502150Y-5746242D02*
G01*
X4483608Y-5727700D01*
X4455922Y-5718555D01*
X4418838Y-5718555D01*
X4391152Y-5727700D01*
X4372609Y-5746242D01*
X4372609Y-5764529D01*
X4382008Y-5783071D01*
X4391152Y-5792470D01*
X4409693Y-5801613D01*
X4465065Y-5820155D01*
X4483608Y-5829300D01*
X4492752Y-5838444D01*
X4502150Y-5856986D01*
X4502150Y-5884671D01*
X4483608Y-5903213D01*
X4455922Y-5912357D01*
X4418838Y-5912357D01*
X4391152Y-5903213D01*
X4372609Y-5884671D01*
X4563109Y-5718555D02*
G01*
X4563109Y-5912357D01*
X4692395Y-5718555D02*
G01*
X4692395Y-5912357D01*
X4563109Y-5810757D02*
G01*
X4692395Y-5810757D01*
X4753356Y-5718555D02*
G01*
X4753356Y-5912357D01*
X4753356Y-5718555D02*
G01*
X4882641Y-5912357D01*
X4882641Y-5718555D02*
G01*
X4882641Y-5912357D01*
X4943602Y-5718555D02*
G01*
X4943602Y-5912357D01*
X4943602Y-5718555D02*
G01*
X5063490Y-5718555D01*
X4943602Y-5810757D02*
G01*
X5017515Y-5810757D01*
X4943602Y-5912357D02*
G01*
X5063490Y-5912357D01*
X5124450Y-5718555D02*
G01*
X5198363Y-5810757D01*
X5198363Y-5912357D01*
X5272277Y-5718555D02*
G01*
X5198363Y-5810757D01*
X6756397Y-4201160D02*
G01*
X6756397Y-4246626D01*
X6797291Y-4251197D01*
X6792719Y-4246626D01*
X6788401Y-4233163D01*
X6788401Y-4219447D01*
X6792719Y-4205731D01*
X6801863Y-4196587D01*
X6815579Y-4192015D01*
X6824723Y-4192015D01*
X6838185Y-4196587D01*
X6847329Y-4205731D01*
X6851901Y-4219447D01*
X6851901Y-4233163D01*
X6847329Y-4246626D01*
X6842757Y-4251197D01*
X6833613Y-4255770D01*
X6756397Y-4162044D02*
G01*
X6851901Y-4125721D01*
X6756397Y-4089400D02*
G01*
X6851901Y-4125721D01*
X5664197Y-4469892D02*
G01*
X5857999Y-4469892D01*
X5664197Y-4469892D02*
G01*
X5664197Y-4405121D01*
X5673341Y-4377436D01*
X5691883Y-4359147D01*
X5710171Y-4349750D01*
X5738111Y-4340605D01*
X5784085Y-4340605D01*
X5811771Y-4349750D01*
X5830313Y-4359147D01*
X5848855Y-4377436D01*
X5857999Y-4405121D01*
X5857999Y-4469892D01*
X5664197Y-4279645D02*
G01*
X5857999Y-4279645D01*
X5664197Y-4218686D02*
G01*
X5857999Y-4218686D01*
X5664197Y-4218686D02*
G01*
X5664197Y-4135628D01*
X5673341Y-4107942D01*
X5682485Y-4098544D01*
X5701027Y-4089400D01*
X5719569Y-4089400D01*
X5738111Y-4098544D01*
X5747255Y-4107942D01*
X5756399Y-4135628D01*
X5756399Y-4218686D01*
X5756399Y-4153915D02*
G01*
X5857999Y-4089400D01*
X5956300Y-2209797D02*
G01*
X5956300Y-2305301D01*
X5956300Y-2209797D02*
G01*
X5992622Y-2305301D01*
X6028943Y-2209797D02*
G01*
X5992622Y-2305301D01*
X6028943Y-2209797D02*
G01*
X6028943Y-2305301D01*
X6086347Y-2209797D02*
G01*
X6077204Y-2214369D01*
X6068059Y-2223513D01*
X6063488Y-2232657D01*
X6058915Y-2246119D01*
X6058915Y-2268979D01*
X6063488Y-2282695D01*
X6068059Y-2291585D01*
X6077204Y-2300729D01*
X6086347Y-2305301D01*
X6104381Y-2305301D01*
X6113525Y-2300729D01*
X6122670Y-2291585D01*
X6127241Y-2282695D01*
X6131813Y-2268979D01*
X6131813Y-2246119D01*
X6127241Y-2232657D01*
X6122670Y-2223513D01*
X6113525Y-2214369D01*
X6104381Y-2209797D01*
X6086347Y-2209797D01*
X6193536Y-2209797D02*
G01*
X6193536Y-2305301D01*
X6161786Y-2209797D02*
G01*
X6225286Y-2209797D01*
X6282690Y-2209797D02*
G01*
X6273545Y-2214369D01*
X6264402Y-2223513D01*
X6259829Y-2232657D01*
X6255511Y-2246119D01*
X6255511Y-2268979D01*
X6259829Y-2282695D01*
X6264402Y-2291585D01*
X6273545Y-2300729D01*
X6282690Y-2305301D01*
X6300724Y-2305301D01*
X6309868Y-2300729D01*
X6319011Y-2291585D01*
X6323584Y-2282695D01*
X6328156Y-2268979D01*
X6328156Y-2246119D01*
X6323584Y-2232657D01*
X6319011Y-2223513D01*
X6309868Y-2214369D01*
X6300724Y-2209797D01*
X6282690Y-2209797D01*
X6358127Y-2209797D02*
G01*
X6358127Y-2305301D01*
X6358127Y-2209797D02*
G01*
X6399022Y-2209797D01*
X6412738Y-2214369D01*
X6417309Y-2218941D01*
X6421627Y-2228085D01*
X6421627Y-2237229D01*
X6417309Y-2246119D01*
X6412738Y-2250691D01*
X6399022Y-2255263D01*
X6358127Y-2255263D01*
X6389877Y-2255263D02*
G01*
X6421627Y-2305301D01*
X6549136Y-2209797D02*
G01*
X6539991Y-2214369D01*
X6530847Y-2223513D01*
X6526275Y-2232657D01*
X6521704Y-2246119D01*
X6521704Y-2268979D01*
X6526275Y-2282695D01*
X6530847Y-2291585D01*
X6539991Y-2300729D01*
X6549136Y-2305301D01*
X6567170Y-2305301D01*
X6576313Y-2300729D01*
X6585458Y-2291585D01*
X6590029Y-2282695D01*
X6594602Y-2268979D01*
X6594602Y-2246119D01*
X6590029Y-2232657D01*
X6585458Y-2223513D01*
X6576313Y-2214369D01*
X6567170Y-2209797D01*
X6549136Y-2209797D01*
X6624574Y-2209797D02*
G01*
X6624574Y-2278123D01*
X6629145Y-2291585D01*
X6638036Y-2300729D01*
X6651752Y-2305301D01*
X6660895Y-2305301D01*
X6674358Y-2300729D01*
X6683502Y-2291585D01*
X6688074Y-2278123D01*
X6688074Y-2209797D01*
X6750050Y-2209797D02*
G01*
X6750050Y-2305301D01*
X6718045Y-2209797D02*
G01*
X6781800Y-2209797D01*
X6181087Y-6050793D02*
G01*
X6174229Y-6037077D01*
X6153909Y-6016757D01*
X6297165Y-6016757D01*
X6187945Y-5964941D02*
G01*
X6181087Y-5964941D01*
X6167625Y-5958083D01*
X6160767Y-5951225D01*
X6153909Y-5937509D01*
X6153909Y-5910331D01*
X6160767Y-5896615D01*
X6167625Y-5889757D01*
X6181087Y-5883153D01*
X6194803Y-5883153D01*
X6208519Y-5889757D01*
X6228839Y-5903473D01*
X6297165Y-5971799D01*
X6297165Y-5876295D01*
X6153909Y-5831337D02*
G01*
X6297165Y-5776727D01*
X6153909Y-5722117D02*
G01*
X6297165Y-5776727D01*
D11*
X4389120Y-3105657D02*
G01*
X4394200Y-3116071D01*
X4404613Y-3126486D01*
X4415027Y-3131820D01*
X4430522Y-3136900D01*
X4456429Y-3136900D01*
X4472177Y-3131820D01*
X4482591Y-3126486D01*
X4493006Y-3116071D01*
X4498086Y-3105657D01*
X4498086Y-3084829D01*
X4493006Y-3074670D01*
X4482591Y-3064255D01*
X4472177Y-3058921D01*
X4456429Y-3053842D01*
X4430522Y-3053842D01*
X4415027Y-3058921D01*
X4404613Y-3064255D01*
X4394200Y-3074670D01*
X4389120Y-3084829D01*
X4389120Y-3105657D01*
X4477258Y-3090163D02*
G01*
X4508500Y-3058921D01*
X4409693Y-3019552D02*
G01*
X4404613Y-3009137D01*
X4389120Y-2993389D01*
X4498086Y-2993389D01*
X2865120Y-3118357D02*
G01*
X2870200Y-3128771D01*
X2880613Y-3139186D01*
X2891027Y-3144520D01*
X2906522Y-3149600D01*
X2932429Y-3149600D01*
X2948177Y-3144520D01*
X2958591Y-3139186D01*
X2969006Y-3128771D01*
X2974086Y-3118357D01*
X2974086Y-3097529D01*
X2969006Y-3087370D01*
X2958591Y-3076955D01*
X2948177Y-3071621D01*
X2932429Y-3066542D01*
X2906522Y-3066542D01*
X2891027Y-3071621D01*
X2880613Y-3076955D01*
X2870200Y-3087370D01*
X2865120Y-3097529D01*
X2865120Y-3118357D01*
X2953258Y-3102863D02*
G01*
X2984500Y-3071621D01*
X2891027Y-3026918D02*
G01*
X2885693Y-3026918D01*
X2875279Y-3021837D01*
X2870200Y-3016504D01*
X2865120Y-3006089D01*
X2865120Y-2985515D01*
X2870200Y-2975102D01*
X2875279Y-2969768D01*
X2885693Y-2964687D01*
X2896108Y-2964687D01*
X2906522Y-2969768D01*
X2922270Y-2980181D01*
X2974086Y-3032252D01*
X2974086Y-2959354D01*
X8256270Y-5036057D02*
G01*
X8261350Y-5046471D01*
X8271763Y-5056886D01*
X8282177Y-5062220D01*
X8297672Y-5067300D01*
X8323579Y-5067300D01*
X8339327Y-5062220D01*
X8349741Y-5056886D01*
X8360156Y-5046471D01*
X8365236Y-5036057D01*
X8365236Y-5015229D01*
X8360156Y-5005070D01*
X8349741Y-4994655D01*
X8339327Y-4989321D01*
X8323579Y-4984242D01*
X8297672Y-4984242D01*
X8282177Y-4989321D01*
X8271763Y-4994655D01*
X8261350Y-5005070D01*
X8256270Y-5015229D01*
X8256270Y-5036057D01*
X8344408Y-5020563D02*
G01*
X8375650Y-4989321D01*
X8256270Y-4887468D02*
G01*
X8256270Y-4939537D01*
X8303006Y-4944618D01*
X8297672Y-4939537D01*
X8292591Y-4923789D01*
X8292591Y-4908295D01*
X8297672Y-4892802D01*
X8308086Y-4882387D01*
X8323579Y-4877054D01*
X8333993Y-4877054D01*
X8349741Y-4882387D01*
X8360156Y-4892802D01*
X8365236Y-4908295D01*
X8365236Y-4923789D01*
X8360156Y-4939537D01*
X8354822Y-4944618D01*
X8344408Y-4949952D01*
X10542270Y-4782057D02*
G01*
X10547350Y-4792471D01*
X10557763Y-4802886D01*
X10568177Y-4808220D01*
X10583672Y-4813300D01*
X10609579Y-4813300D01*
X10625327Y-4808220D01*
X10635741Y-4802886D01*
X10646156Y-4792471D01*
X10651236Y-4782057D01*
X10651236Y-4761229D01*
X10646156Y-4751070D01*
X10635741Y-4740655D01*
X10625327Y-4735321D01*
X10609579Y-4730242D01*
X10583672Y-4730242D01*
X10568177Y-4735321D01*
X10557763Y-4740655D01*
X10547350Y-4751070D01*
X10542270Y-4761229D01*
X10542270Y-4782057D01*
X10630408Y-4766563D02*
G01*
X10661650Y-4735321D01*
X10557763Y-4633468D02*
G01*
X10547350Y-4638802D01*
X10542270Y-4654295D01*
X10542270Y-4664710D01*
X10547350Y-4680204D01*
X10562843Y-4690618D01*
X10589006Y-4695952D01*
X10614913Y-4695952D01*
X10635741Y-4690618D01*
X10646156Y-4680204D01*
X10651236Y-4664710D01*
X10651236Y-4659629D01*
X10646156Y-4643881D01*
X10635741Y-4633468D01*
X10619993Y-4628387D01*
X10614913Y-4628387D01*
X10599420Y-4633468D01*
X10589006Y-4643881D01*
X10583672Y-4659629D01*
X10583672Y-4664710D01*
X10589006Y-4680204D01*
X10599420Y-4690618D01*
X10614913Y-4695952D01*
X9103106Y-5757418D02*
G01*
X9108186Y-5767831D01*
X9118600Y-5778245D01*
X9129013Y-5783579D01*
X9144761Y-5788660D01*
X9170670Y-5788660D01*
X9186163Y-5783579D01*
X9196577Y-5778245D01*
X9206991Y-5767831D01*
X9212072Y-5757418D01*
X9212072Y-5736589D01*
X9206991Y-5726429D01*
X9196577Y-5716015D01*
X9186163Y-5710681D01*
X9170670Y-5705602D01*
X9144761Y-5705602D01*
X9129013Y-5710681D01*
X9118600Y-5716015D01*
X9108186Y-5726429D01*
X9103106Y-5736589D01*
X9103106Y-5757418D01*
X9191497Y-5741923D02*
G01*
X9222486Y-5710681D01*
X9103106Y-5598413D02*
G01*
X9212072Y-5650484D01*
X9103106Y-5671312D02*
G01*
X9103106Y-5598413D01*
X9725406Y-6367018D02*
G01*
X9730486Y-6377431D01*
X9740900Y-6387845D01*
X9751313Y-6393179D01*
X9767061Y-6398260D01*
X9792970Y-6398260D01*
X9808463Y-6393179D01*
X9818877Y-6387845D01*
X9829291Y-6377431D01*
X9834372Y-6367018D01*
X9834372Y-6346189D01*
X9829291Y-6336029D01*
X9818877Y-6325615D01*
X9808463Y-6320281D01*
X9792970Y-6315202D01*
X9767061Y-6315202D01*
X9751313Y-6320281D01*
X9740900Y-6325615D01*
X9730486Y-6336029D01*
X9725406Y-6346189D01*
X9725406Y-6367018D01*
X9813797Y-6351523D02*
G01*
X9844786Y-6320281D01*
X9725406Y-6254750D02*
G01*
X9730486Y-6270497D01*
X9740900Y-6275578D01*
X9751313Y-6275578D01*
X9761727Y-6270497D01*
X9767061Y-6260084D01*
X9772141Y-6239255D01*
X9777222Y-6223762D01*
X9787636Y-6213347D01*
X9798050Y-6208013D01*
X9813797Y-6208013D01*
X9824211Y-6213347D01*
X9829291Y-6218428D01*
X9834372Y-6234176D01*
X9834372Y-6254750D01*
X9829291Y-6270497D01*
X9824211Y-6275578D01*
X9813797Y-6280912D01*
X9798050Y-6280912D01*
X9787636Y-6275578D01*
X9777222Y-6265163D01*
X9772141Y-6249670D01*
X9767061Y-6228842D01*
X9761727Y-6218428D01*
X9751313Y-6213347D01*
X9740900Y-6213347D01*
X9730486Y-6218428D01*
X9725406Y-6234176D01*
X9725406Y-6254750D01*
X7861300Y-3697223D02*
G01*
X7861300Y-3774947D01*
X7866379Y-3790695D01*
X7876793Y-3801110D01*
X7892541Y-3806189D01*
X7902956Y-3806189D01*
X7918450Y-3801110D01*
X7928863Y-3790695D01*
X7933943Y-3774947D01*
X7933943Y-3697223D01*
X7968234Y-3717797D02*
G01*
X7978647Y-3712718D01*
X7994395Y-3697223D01*
X7994395Y-3806189D01*
X7532877Y-2525354D02*
G01*
X7527543Y-2514940D01*
X7517129Y-2504526D01*
X7506970Y-2499192D01*
X7486141Y-2499192D01*
X7475727Y-2504526D01*
X7465313Y-2514940D01*
X7459979Y-2525354D01*
X7454900Y-2540848D01*
X7454900Y-2566756D01*
X7459979Y-2582504D01*
X7465313Y-2592918D01*
X7475727Y-2603078D01*
X7486141Y-2608412D01*
X7506970Y-2608412D01*
X7517129Y-2603078D01*
X7527543Y-2592918D01*
X7532877Y-2582504D01*
X7567168Y-2499192D02*
G01*
X7567168Y-2608412D01*
X7567168Y-2499192D02*
G01*
X7639811Y-2608412D01*
X7639811Y-2499192D02*
G01*
X7639811Y-2608412D01*
X7674102Y-2520020D02*
G01*
X7684515Y-2514940D01*
X7700009Y-2499192D01*
X7700009Y-2608412D01*
X6241288Y-5586221D02*
G01*
X6230874Y-5591555D01*
X6220459Y-5601970D01*
X6215125Y-5612129D01*
X6215125Y-5632957D01*
X6220459Y-5643371D01*
X6230874Y-5653786D01*
X6241288Y-5659120D01*
X6256781Y-5664200D01*
X6282690Y-5664200D01*
X6298438Y-5659120D01*
X6308852Y-5653786D01*
X6319011Y-5643371D01*
X6324345Y-5632957D01*
X6324345Y-5612129D01*
X6319011Y-5601970D01*
X6308852Y-5591555D01*
X6298438Y-5586221D01*
X6215125Y-5551931D02*
G01*
X6324345Y-5551931D01*
X6215125Y-5551931D02*
G01*
X6324345Y-5479287D01*
X6215125Y-5479287D02*
G01*
X6324345Y-5479287D01*
X6241288Y-5439663D02*
G01*
X6235954Y-5439663D01*
X6225540Y-5434584D01*
X6220459Y-5429250D01*
X6215125Y-5419089D01*
X6215125Y-5398262D01*
X6220459Y-5387847D01*
X6225540Y-5382513D01*
X6235954Y-5377434D01*
X6246368Y-5377434D01*
X6256781Y-5382513D01*
X6272275Y-5392928D01*
X6324345Y-5444997D01*
X6324345Y-5372100D01*
X6342634Y-4305300D02*
G01*
X6451600Y-4305300D01*
X6342634Y-4305300D02*
G01*
X6342634Y-4258563D01*
X6347713Y-4243070D01*
X6352793Y-4237736D01*
X6363208Y-4232655D01*
X6378956Y-4232655D01*
X6389370Y-4237736D01*
X6394450Y-4243070D01*
X6399784Y-4258563D01*
X6399784Y-4305300D01*
X6363208Y-4198365D02*
G01*
X6358127Y-4187952D01*
X6342634Y-4172204D01*
X6451600Y-4172204D01*
X5923534Y-4292600D02*
G01*
X6032500Y-4292600D01*
X5923534Y-4292600D02*
G01*
X5923534Y-4245863D01*
X5928613Y-4230370D01*
X5933693Y-4225036D01*
X5944108Y-4219955D01*
X5959856Y-4219955D01*
X5970270Y-4225036D01*
X5975350Y-4230370D01*
X5980684Y-4245863D01*
X5980684Y-4292600D01*
X5949441Y-4180331D02*
G01*
X5944108Y-4180331D01*
X5933693Y-4175252D01*
X5928613Y-4169918D01*
X5923534Y-4159504D01*
X5923534Y-4138929D01*
X5928613Y-4128515D01*
X5933693Y-4123181D01*
X5944108Y-4118102D01*
X5954522Y-4118102D01*
X5964936Y-4123181D01*
X5980684Y-4133595D01*
X6032500Y-4185665D01*
X6032500Y-4112768D01*
X10368534Y-5943600D02*
G01*
X10477500Y-5943600D01*
X10368534Y-5943600D02*
G01*
X10368534Y-5896863D01*
X10373613Y-5881370D01*
X10378693Y-5876036D01*
X10389108Y-5870955D01*
X10404856Y-5870955D01*
X10415270Y-5876036D01*
X10420350Y-5881370D01*
X10425684Y-5896863D01*
X10425684Y-5943600D01*
X10368534Y-5826252D02*
G01*
X10368534Y-5769102D01*
X10409936Y-5800089D01*
X10409936Y-5784595D01*
X10415270Y-5774181D01*
X10420350Y-5769102D01*
X10435843Y-5763768D01*
X10446258Y-5763768D01*
X10462006Y-5769102D01*
X10472420Y-5779515D01*
X10477500Y-5795010D01*
X10477500Y-5810504D01*
X10472420Y-5826252D01*
X10467086Y-5831331D01*
X10456672Y-5836665D01*
X6827265Y-3143250D02*
G01*
X6936231Y-3143250D01*
X6827265Y-3143250D02*
G01*
X6827265Y-3106928D01*
X6832345Y-3091179D01*
X6842759Y-3081020D01*
X6853174Y-3075686D01*
X6868668Y-3070605D01*
X6894575Y-3070605D01*
X6910324Y-3075686D01*
X6920738Y-3081020D01*
X6931152Y-3091179D01*
X6936231Y-3106928D01*
X6936231Y-3143250D01*
X6847840Y-3036315D02*
G01*
X6842759Y-3025902D01*
X6827265Y-3010154D01*
X6936231Y-3010154D01*
X9607550Y-4261865D02*
G01*
X9607550Y-4370831D01*
X9607550Y-4261865D02*
G01*
X9643872Y-4261865D01*
X9659620Y-4266945D01*
X9669779Y-4277360D01*
X9675113Y-4287773D01*
X9680193Y-4303268D01*
X9680193Y-4329176D01*
X9675113Y-4344923D01*
X9669779Y-4355337D01*
X9659620Y-4365752D01*
X9643872Y-4370831D01*
X9607550Y-4370831D01*
X9719818Y-4287773D02*
G01*
X9719818Y-4282439D01*
X9724897Y-4272026D01*
X9730231Y-4266945D01*
X9740645Y-4261865D01*
X9761220Y-4261865D01*
X9771634Y-4266945D01*
X9776968Y-4272026D01*
X9782047Y-4282439D01*
X9782047Y-4292854D01*
X9776968Y-4303268D01*
X9766554Y-4319015D01*
X9714484Y-4370831D01*
X9787381Y-4370831D01*
X2146300Y-4602251D02*
G01*
X2146300Y-4711471D01*
X2146300Y-4602251D02*
G01*
X2182621Y-4602251D01*
X2198370Y-4607331D01*
X2208529Y-4617745D01*
X2213863Y-4628159D01*
X2218944Y-4643907D01*
X2218944Y-4669815D01*
X2213863Y-4685309D01*
X2208529Y-4695723D01*
X2198370Y-4706137D01*
X2182621Y-4711471D01*
X2146300Y-4711471D01*
X2263647Y-4602251D02*
G01*
X2320797Y-4602251D01*
X2289810Y-4643907D01*
X2305304Y-4643907D01*
X2315718Y-4648987D01*
X2320797Y-4654321D01*
X2326131Y-4669815D01*
X2326131Y-4680229D01*
X2320797Y-4695723D01*
X2310384Y-4706137D01*
X2294889Y-4711471D01*
X2279395Y-4711471D01*
X2263647Y-4706137D01*
X2258568Y-4701057D01*
X2253234Y-4690643D01*
X3020059Y-1866900D02*
G01*
X3129279Y-1866900D01*
X3020059Y-1866900D02*
G01*
X3020059Y-1830578D01*
X3025140Y-1814829D01*
X3035554Y-1804670D01*
X3045968Y-1799336D01*
X3061715Y-1794255D01*
X3087624Y-1794255D01*
X3103118Y-1799336D01*
X3113531Y-1804670D01*
X3123945Y-1814829D01*
X3129279Y-1830578D01*
X3129279Y-1866900D01*
X3020059Y-1707895D02*
G01*
X3092704Y-1759965D01*
X3092704Y-1681987D01*
X3020059Y-1707895D02*
G01*
X3129279Y-1707895D01*
X8458200Y-5984494D02*
G01*
X8458200Y-6093460D01*
X8458200Y-5984494D02*
G01*
X8504936Y-5984494D01*
X8520429Y-5989573D01*
X8525763Y-5994654D01*
X8530843Y-6005068D01*
X8530843Y-6015481D01*
X8525763Y-6025895D01*
X8520429Y-6031229D01*
X8504936Y-6036310D01*
X8458200Y-6036310D01*
X8494522Y-6036310D02*
G01*
X8530843Y-6093460D01*
X8565134Y-6005068D02*
G01*
X8575547Y-5999987D01*
X8591295Y-5984494D01*
X8591295Y-6093460D01*
X8677402Y-5984494D02*
G01*
X8625586Y-6057137D01*
X8703309Y-6057137D01*
X8677402Y-5984494D02*
G01*
X8677402Y-6093460D01*
X8509000Y-5324094D02*
G01*
X8509000Y-5433060D01*
X8509000Y-5324094D02*
G01*
X8555736Y-5324094D01*
X8571229Y-5329173D01*
X8576563Y-5334254D01*
X8581643Y-5344668D01*
X8581643Y-5355081D01*
X8576563Y-5365495D01*
X8571229Y-5370829D01*
X8555736Y-5375910D01*
X8509000Y-5375910D01*
X8545322Y-5375910D02*
G01*
X8581643Y-5433060D01*
X8615934Y-5344668D02*
G01*
X8626347Y-5339587D01*
X8642095Y-5324094D01*
X8642095Y-5433060D01*
X8738615Y-5324094D02*
G01*
X8686800Y-5324094D01*
X8681465Y-5370829D01*
X8686800Y-5365495D01*
X8702293Y-5360415D01*
X8717788Y-5360415D01*
X8733536Y-5365495D01*
X8743950Y-5375910D01*
X8749029Y-5391404D01*
X8749029Y-5401818D01*
X8743950Y-5417565D01*
X8733536Y-5427979D01*
X8717788Y-5433060D01*
X8702293Y-5433060D01*
X8686800Y-5427979D01*
X8681465Y-5422645D01*
X8676386Y-5412231D01*
X7584693Y-5435600D02*
G01*
X7693659Y-5435600D01*
X7584693Y-5435600D02*
G01*
X7584693Y-5388863D01*
X7589774Y-5373370D01*
X7594854Y-5368036D01*
X7605268Y-5362955D01*
X7615681Y-5362955D01*
X7626095Y-5368036D01*
X7631429Y-5373370D01*
X7636509Y-5388863D01*
X7636509Y-5435600D01*
X7636509Y-5399278D02*
G01*
X7693659Y-5362955D01*
X7605268Y-5328665D02*
G01*
X7600188Y-5318252D01*
X7584693Y-5302504D01*
X7693659Y-5302504D01*
X8968993Y-4914900D02*
G01*
X9077959Y-4914900D01*
X8968993Y-4914900D02*
G01*
X8968993Y-4868163D01*
X8974074Y-4852670D01*
X8979154Y-4847336D01*
X8989568Y-4842255D01*
X8999981Y-4842255D01*
X9010395Y-4847336D01*
X9015729Y-4852670D01*
X9020809Y-4868163D01*
X9020809Y-4914900D01*
X9020809Y-4878578D02*
G01*
X9077959Y-4842255D01*
X8994902Y-4802631D02*
G01*
X8989568Y-4802631D01*
X8979154Y-4797552D01*
X8974074Y-4792218D01*
X8968993Y-4781804D01*
X8968993Y-4761229D01*
X8974074Y-4750815D01*
X8979154Y-4745481D01*
X8989568Y-4740402D01*
X8999981Y-4740402D01*
X9010395Y-4745481D01*
X9026143Y-4755895D01*
X9077959Y-4807965D01*
X9077959Y-4735068D01*
X9323070Y-4927600D02*
G01*
X9432036Y-4927600D01*
X9323070Y-4927600D02*
G01*
X9323070Y-4880863D01*
X9328150Y-4865370D01*
X9333229Y-4860036D01*
X9343643Y-4854955D01*
X9354058Y-4854955D01*
X9364472Y-4860036D01*
X9369806Y-4865370D01*
X9374886Y-4880863D01*
X9374886Y-4927600D01*
X9374886Y-4891278D02*
G01*
X9432036Y-4854955D01*
X9323070Y-4810252D02*
G01*
X9323070Y-4753102D01*
X9364472Y-4784089D01*
X9364472Y-4768595D01*
X9369806Y-4758181D01*
X9374886Y-4753102D01*
X9390379Y-4747768D01*
X9400793Y-4747768D01*
X9416541Y-4753102D01*
X9426956Y-4763515D01*
X9432036Y-4779010D01*
X9432036Y-4794504D01*
X9426956Y-4810252D01*
X9421622Y-4815331D01*
X9411208Y-4820665D01*
X9436100Y-6822694D02*
G01*
X9436100Y-6931660D01*
X9436100Y-6822694D02*
G01*
X9482836Y-6822694D01*
X9498329Y-6827773D01*
X9503663Y-6832854D01*
X9508743Y-6843268D01*
X9508743Y-6853681D01*
X9503663Y-6864095D01*
X9498329Y-6869429D01*
X9482836Y-6874510D01*
X9436100Y-6874510D01*
X9472422Y-6874510D02*
G01*
X9508743Y-6931660D01*
X9595104Y-6822694D02*
G01*
X9543034Y-6895337D01*
X9621011Y-6895337D01*
X9595104Y-6822694D02*
G01*
X9595104Y-6931660D01*
X8445500Y-6616445D02*
G01*
X8445500Y-6725412D01*
X8445500Y-6616445D02*
G01*
X8492236Y-6616445D01*
X8507729Y-6621526D01*
X8513063Y-6626605D01*
X8518143Y-6637020D01*
X8518143Y-6647434D01*
X8513063Y-6657847D01*
X8507729Y-6663181D01*
X8492236Y-6668262D01*
X8445500Y-6668262D01*
X8481822Y-6668262D02*
G01*
X8518143Y-6725412D01*
X8614918Y-6616445D02*
G01*
X8562847Y-6616445D01*
X8557768Y-6663181D01*
X8562847Y-6657847D01*
X8578595Y-6652768D01*
X8594090Y-6652768D01*
X8609584Y-6657847D01*
X8619997Y-6668262D01*
X8625331Y-6683755D01*
X8625331Y-6694170D01*
X8619997Y-6709918D01*
X8609584Y-6720331D01*
X8594090Y-6725412D01*
X8578595Y-6725412D01*
X8562847Y-6720331D01*
X8557768Y-6714997D01*
X8552434Y-6704584D01*
X9946893Y-5194300D02*
G01*
X10055859Y-5194300D01*
X9946893Y-5194300D02*
G01*
X9946893Y-5147563D01*
X9951974Y-5132070D01*
X9957054Y-5126736D01*
X9967468Y-5121655D01*
X9977881Y-5121655D01*
X9988295Y-5126736D01*
X9993629Y-5132070D01*
X9998709Y-5147563D01*
X9998709Y-5194300D01*
X9998709Y-5157978D02*
G01*
X10055859Y-5121655D01*
X9962388Y-5024881D02*
G01*
X9951974Y-5030215D01*
X9946893Y-5045710D01*
X9946893Y-5056123D01*
X9951974Y-5071618D01*
X9967468Y-5082031D01*
X9993629Y-5087365D01*
X10019538Y-5087365D01*
X10040365Y-5082031D01*
X10050779Y-5071618D01*
X10055859Y-5056123D01*
X10055859Y-5050789D01*
X10050779Y-5035295D01*
X10040365Y-5024881D01*
X10024618Y-5019802D01*
X10019538Y-5019802D01*
X10004043Y-5024881D01*
X9993629Y-5035295D01*
X9988295Y-5050789D01*
X9988295Y-5056123D01*
X9993629Y-5071618D01*
X10004043Y-5082031D01*
X10019538Y-5087365D01*
X5207000Y-5321045D02*
G01*
X5207000Y-5430012D01*
X5207000Y-5321045D02*
G01*
X5253736Y-5321045D01*
X5269229Y-5326126D01*
X5274563Y-5331205D01*
X5279643Y-5341620D01*
X5279643Y-5352034D01*
X5274563Y-5362447D01*
X5269229Y-5367781D01*
X5253736Y-5372862D01*
X5207000Y-5372862D01*
X5243322Y-5372862D02*
G01*
X5279643Y-5430012D01*
X5386831Y-5321045D02*
G01*
X5334761Y-5430012D01*
X5313934Y-5321045D02*
G01*
X5386831Y-5321045D01*
X4384293Y-4292600D02*
G01*
X4493259Y-4292600D01*
X4384293Y-4292600D02*
G01*
X4384293Y-4245863D01*
X4389374Y-4230370D01*
X4394454Y-4225036D01*
X4404868Y-4219955D01*
X4415281Y-4219955D01*
X4425695Y-4225036D01*
X4431029Y-4230370D01*
X4436109Y-4245863D01*
X4436109Y-4292600D01*
X4436109Y-4256278D02*
G01*
X4493259Y-4219955D01*
X4384293Y-4159504D02*
G01*
X4389374Y-4175252D01*
X4399788Y-4180331D01*
X4410202Y-4180331D01*
X4420615Y-4175252D01*
X4425695Y-4164837D01*
X4431029Y-4144010D01*
X4436109Y-4128515D01*
X4446524Y-4118102D01*
X4456938Y-4112768D01*
X4472431Y-4112768D01*
X4482845Y-4118102D01*
X4488179Y-4123181D01*
X4493259Y-4138929D01*
X4493259Y-4159504D01*
X4488179Y-4175252D01*
X4482845Y-4180331D01*
X4472431Y-4185665D01*
X4456938Y-4185665D01*
X4446524Y-4180331D01*
X4436109Y-4169918D01*
X4431029Y-4154423D01*
X4425695Y-4133595D01*
X4420615Y-4123181D01*
X4410202Y-4118102D01*
X4399788Y-4118102D01*
X4389374Y-4123181D01*
X4384293Y-4138929D01*
X4384293Y-4159504D01*
X11572493Y-3175000D02*
G01*
X11681459Y-3175000D01*
X11572493Y-3175000D02*
G01*
X11572493Y-3128263D01*
X11577574Y-3112770D01*
X11582654Y-3107436D01*
X11593068Y-3102355D01*
X11603481Y-3102355D01*
X11613895Y-3107436D01*
X11619229Y-3112770D01*
X11624309Y-3128263D01*
X11624309Y-3175000D01*
X11624309Y-3138678D02*
G01*
X11681459Y-3102355D01*
X11608815Y-3000502D02*
G01*
X11624309Y-3005581D01*
X11634724Y-3015995D01*
X11639804Y-3031489D01*
X11639804Y-3036823D01*
X11634724Y-3052318D01*
X11624309Y-3062731D01*
X11608815Y-3068065D01*
X11603481Y-3068065D01*
X11587988Y-3062731D01*
X11577574Y-3052318D01*
X11572493Y-3036823D01*
X11572493Y-3031489D01*
X11577574Y-3015995D01*
X11587988Y-3005581D01*
X11608815Y-3000502D01*
X11634724Y-3000502D01*
X11660631Y-3005581D01*
X11676379Y-3015995D01*
X11681459Y-3031489D01*
X11681459Y-3041904D01*
X11676379Y-3057652D01*
X11665965Y-3062731D01*
X5628893Y-5118100D02*
G01*
X5737859Y-5118100D01*
X5628893Y-5118100D02*
G01*
X5628893Y-5071363D01*
X5633974Y-5055870D01*
X5639054Y-5050536D01*
X5649468Y-5045455D01*
X5659881Y-5045455D01*
X5670295Y-5050536D01*
X5675629Y-5055870D01*
X5680709Y-5071363D01*
X5680709Y-5118100D01*
X5680709Y-5081778D02*
G01*
X5737859Y-5045455D01*
X5649468Y-5011165D02*
G01*
X5644388Y-5000752D01*
X5628893Y-4985004D01*
X5737859Y-4985004D01*
X5628893Y-4919726D02*
G01*
X5633974Y-4935220D01*
X5649468Y-4945634D01*
X5675629Y-4950713D01*
X5691124Y-4950713D01*
X5717031Y-4945634D01*
X5732779Y-4935220D01*
X5737859Y-4919726D01*
X5737859Y-4909312D01*
X5732779Y-4893563D01*
X5717031Y-4883150D01*
X5691124Y-4878070D01*
X5675629Y-4878070D01*
X5649468Y-4883150D01*
X5633974Y-4893563D01*
X5628893Y-4909312D01*
X5628893Y-4919726D01*
X9213341Y-2449321D02*
G01*
X9202927Y-2454402D01*
X9192513Y-2464815D01*
X9187179Y-2475229D01*
X9182100Y-2490978D01*
X9182100Y-2516886D01*
X9187179Y-2532379D01*
X9192513Y-2542794D01*
X9202927Y-2553207D01*
X9213341Y-2558287D01*
X9234170Y-2558287D01*
X9244329Y-2553207D01*
X9254743Y-2542794D01*
X9260077Y-2532379D01*
X9265158Y-2516886D01*
X9265158Y-2490978D01*
X9260077Y-2475229D01*
X9254743Y-2464815D01*
X9244329Y-2454402D01*
X9234170Y-2449321D01*
X9213341Y-2449321D01*
X9228836Y-2537713D02*
G01*
X9260077Y-2568702D01*
X9309861Y-2449321D02*
G01*
X9367011Y-2449321D01*
X9335770Y-2490978D01*
X9351518Y-2490978D01*
X9361931Y-2496057D01*
X9367011Y-2501137D01*
X9372345Y-2516886D01*
X9372345Y-2527300D01*
X9367011Y-2542794D01*
X9356597Y-2553207D01*
X9341104Y-2558287D01*
X9325609Y-2558287D01*
X9309861Y-2553207D01*
X9304781Y-2548128D01*
X9299447Y-2537713D01*
X11105641Y-2411221D02*
G01*
X11095227Y-2416302D01*
X11084813Y-2426715D01*
X11079479Y-2437129D01*
X11074400Y-2452878D01*
X11074400Y-2478786D01*
X11079479Y-2494279D01*
X11084813Y-2504694D01*
X11095227Y-2515107D01*
X11105641Y-2520187D01*
X11126470Y-2520187D01*
X11136629Y-2515107D01*
X11147043Y-2504694D01*
X11152377Y-2494279D01*
X11157458Y-2478786D01*
X11157458Y-2452878D01*
X11152377Y-2437129D01*
X11147043Y-2426715D01*
X11136629Y-2416302D01*
X11126470Y-2411221D01*
X11105641Y-2411221D01*
X11121136Y-2499613D02*
G01*
X11152377Y-2530602D01*
X11243818Y-2411221D02*
G01*
X11191747Y-2483865D01*
X11269725Y-2483865D01*
X11243818Y-2411221D02*
G01*
X11243818Y-2520187D01*
D12*
X4673600Y-2654300D02*
G01*
X5016500Y-2654300D01*
X4673600Y-3619500D02*
G01*
X5016500Y-3619500D01*
X4559300Y-2603500D02*
G01*
X4559300Y-3670300D01*
X4660900Y-2959100D02*
G01*
X4533900Y-2959100D01*
X4660900Y-3314700D02*
G01*
X4533900Y-3314700D01*
X4673600Y-3670300D02*
G01*
X4673600Y-2603500D01*
X4533900Y-3670300D02*
G01*
X4533900Y-2603500D01*
X5016500Y-2603500D01*
X5016500Y-3670300D01*
X4533900Y-3670300D01*
X3149600Y-2667000D02*
G01*
X3492500Y-2667000D01*
X3149600Y-3632200D02*
G01*
X3492500Y-3632200D01*
X3035300Y-2616200D02*
G01*
X3035300Y-3683000D01*
X3136900Y-2971800D02*
G01*
X3009900Y-2971800D01*
X3136900Y-3327400D02*
G01*
X3009900Y-3327400D01*
X3149600Y-3683000D02*
G01*
X3149600Y-2616200D01*
X3009900Y-3683000D02*
G01*
X3009900Y-2616200D01*
X3492500Y-2616200D01*
X3492500Y-3683000D01*
X3009900Y-3683000D01*
D13*
X8798813Y-5252720D02*
G01*
X8798813Y-4856479D01*
X11084813Y-4998720D02*
G01*
X11084813Y-4602479D01*
X9672574Y-5958331D02*
G01*
X9672574Y-5574284D01*
X10294874Y-6567931D02*
G01*
X10294874Y-6183884D01*
D14*
X6972300Y-4546600D02*
G01*
X8750300Y-4546600D01*
X8750300Y-4038600D01*
X6972300Y-4038600D01*
X6972300Y-4546600D01*
D13*
X6954502Y-2487929D02*
G01*
X7938515Y-2487929D01*
X6954502Y-1857755D02*
G01*
X7937500Y-1857755D01*
X7936801Y-2489497D02*
G01*
X7936801Y-1863387D01*
X7937271Y-1864360D01*
X6954502Y-2486152D02*
G01*
X6954502Y-1854962D01*
X6351270Y-5163802D02*
G01*
X6351270Y-6147815D01*
X6981443Y-5163802D02*
G01*
X6981443Y-6146800D01*
X6349702Y-6146101D02*
G01*
X6975812Y-6146101D01*
X6974840Y-6146571D01*
X6353047Y-5163802D02*
G01*
X6984238Y-5163802D01*
D10*
X6477000Y-4051300D02*
G01*
X6728459Y-4051300D01*
X6728459Y-4559300D01*
X6477000Y-4559300D01*
X6477000Y-4051300D01*
X6057900Y-4038600D02*
G01*
X6309359Y-4038600D01*
X6309359Y-4546600D01*
X6057900Y-4546600D01*
X6057900Y-4038600D01*
X10502900Y-5689600D02*
G01*
X10754359Y-5689600D01*
X10754359Y-6197600D01*
X10502900Y-6197600D01*
X10502900Y-5689600D01*
D14*
X6817359Y-2889250D02*
G01*
X6817359Y-3409950D01*
X6543040Y-3409950D01*
X6543040Y-2889250D01*
X6817359Y-2889250D01*
X6817359Y-3346450D02*
G01*
X6543040Y-3346450D01*
X9861550Y-4251960D02*
G01*
X9340850Y-4251960D01*
X9340850Y-3977639D01*
X9861550Y-3977639D01*
X9861550Y-4251960D01*
X9404350Y-4251960D02*
G01*
X9404350Y-3977639D01*
D13*
X2426299Y-3920299D02*
G01*
X1866300Y-3920299D01*
X1866300Y-4070299D02*
G01*
X1866300Y-3220300D01*
X2426299Y-3220300D01*
X2426299Y-4070299D01*
X1866300Y-4070299D01*
X2426299Y-3960299D02*
G01*
X1866300Y-3960299D01*
X2146300Y-4070299D02*
G01*
X2146300Y-4230298D01*
X2146300Y-3110301D02*
G01*
X2146300Y-3220300D01*
X2426299Y-3940299D02*
G01*
X1866300Y-3940299D01*
X3826700Y-2146899D02*
G01*
X3826700Y-1586900D01*
X3676700Y-1586900D02*
G01*
X4526699Y-1586900D01*
X4526699Y-2146899D01*
X3676700Y-2146899D01*
X3676700Y-1586900D01*
X3786700Y-2146899D02*
G01*
X3786700Y-1586900D01*
X3676700Y-1866900D02*
G01*
X3516701Y-1866900D01*
X4636698Y-1866900D02*
G01*
X4526699Y-1866900D01*
X3806700Y-2146899D02*
G01*
X3806700Y-1586900D01*
X8204200Y-6146800D02*
G01*
X8712200Y-6146800D01*
X8712200Y-6146800D02*
G01*
X8712200Y-6223000D01*
X8712200Y-6223000D02*
G01*
X8712200Y-6299200D01*
X8712200Y-6299200D02*
G01*
X8204200Y-6299200D01*
X8204200Y-6299200D02*
G01*
X8204200Y-6223000D01*
X8204200Y-6223000D02*
G01*
X8204200Y-6146800D01*
X8712200Y-6223000D02*
G01*
X8737600Y-6223000D01*
X8204200Y-6223000D02*
G01*
X8178800Y-6223000D01*
X8255000Y-5486400D02*
G01*
X8763000Y-5486400D01*
X8763000Y-5486400D02*
G01*
X8763000Y-5562600D01*
X8763000Y-5562600D02*
G01*
X8763000Y-5638800D01*
X8763000Y-5638800D02*
G01*
X8255000Y-5638800D01*
X8255000Y-5638800D02*
G01*
X8255000Y-5562600D01*
X8255000Y-5562600D02*
G01*
X8255000Y-5486400D01*
X8763000Y-5562600D02*
G01*
X8788400Y-5562600D01*
X8255000Y-5562600D02*
G01*
X8229600Y-5562600D01*
X7747000Y-5689600D02*
G01*
X7747000Y-5181600D01*
X7747000Y-5181600D02*
G01*
X7823200Y-5181600D01*
X7823200Y-5181600D02*
G01*
X7899400Y-5181600D01*
X7899400Y-5181600D02*
G01*
X7899400Y-5689600D01*
X7899400Y-5689600D02*
G01*
X7823200Y-5689600D01*
X7823200Y-5689600D02*
G01*
X7747000Y-5689600D01*
X7823200Y-5181600D02*
G01*
X7823200Y-5156200D01*
X7823200Y-5689600D02*
G01*
X7823200Y-5715000D01*
X9131300Y-5168900D02*
G01*
X9131300Y-4660900D01*
X9131300Y-4660900D02*
G01*
X9207500Y-4660900D01*
X9207500Y-4660900D02*
G01*
X9283700Y-4660900D01*
X9283700Y-4660900D02*
G01*
X9283700Y-5168900D01*
X9283700Y-5168900D02*
G01*
X9207500Y-5168900D01*
X9207500Y-5168900D02*
G01*
X9131300Y-5168900D01*
X9207500Y-4660900D02*
G01*
X9207500Y-4635500D01*
X9207500Y-5168900D02*
G01*
X9207500Y-5194300D01*
X9485375Y-5181600D02*
G01*
X9485375Y-4673600D01*
X9485375Y-4673600D02*
G01*
X9561575Y-4673600D01*
X9561575Y-4673600D02*
G01*
X9637775Y-4673600D01*
X9637775Y-4673600D02*
G01*
X9637775Y-5181600D01*
X9637775Y-5181600D02*
G01*
X9561575Y-5181600D01*
X9561575Y-5181600D02*
G01*
X9485375Y-5181600D01*
X9561575Y-4673600D02*
G01*
X9561575Y-4648200D01*
X9561575Y-5181600D02*
G01*
X9561575Y-5207000D01*
X9182100Y-6985000D02*
G01*
X9690100Y-6985000D01*
X9690100Y-6985000D02*
G01*
X9690100Y-7061200D01*
X9690100Y-7061200D02*
G01*
X9690100Y-7137400D01*
X9690100Y-7137400D02*
G01*
X9182100Y-7137400D01*
X9182100Y-7137400D02*
G01*
X9182100Y-7061200D01*
X9182100Y-7061200D02*
G01*
X9182100Y-6985000D01*
X9690100Y-7061200D02*
G01*
X9715500Y-7061200D01*
X9182100Y-7061200D02*
G01*
X9156700Y-7061200D01*
X8699500Y-6578600D02*
G01*
X8191500Y-6578600D01*
X8191500Y-6578600D02*
G01*
X8191500Y-6502400D01*
X8191500Y-6502400D02*
G01*
X8191500Y-6426200D01*
X8191500Y-6426200D02*
G01*
X8699500Y-6426200D01*
X8699500Y-6426200D02*
G01*
X8699500Y-6502400D01*
X8699500Y-6502400D02*
G01*
X8699500Y-6578600D01*
X8191500Y-6502400D02*
G01*
X8166100Y-6502400D01*
X8699500Y-6502400D02*
G01*
X8724900Y-6502400D01*
X10109200Y-5448300D02*
G01*
X10109200Y-4940300D01*
X10109200Y-4940300D02*
G01*
X10185400Y-4940300D01*
X10185400Y-4940300D02*
G01*
X10261600Y-4940300D01*
X10261600Y-4940300D02*
G01*
X10261600Y-5448300D01*
X10261600Y-5448300D02*
G01*
X10185400Y-5448300D01*
X10185400Y-5448300D02*
G01*
X10109200Y-5448300D01*
X10185400Y-4940300D02*
G01*
X10185400Y-4914900D01*
X10185400Y-5448300D02*
G01*
X10185400Y-5473700D01*
X5461000Y-5283200D02*
G01*
X4953000Y-5283200D01*
X4953000Y-5283200D02*
G01*
X4953000Y-5207000D01*
X4953000Y-5207000D02*
G01*
X4953000Y-5130800D01*
X4953000Y-5130800D02*
G01*
X5461000Y-5130800D01*
X5461000Y-5130800D02*
G01*
X5461000Y-5207000D01*
X5461000Y-5207000D02*
G01*
X5461000Y-5283200D01*
X4953000Y-5207000D02*
G01*
X4927600Y-5207000D01*
X5461000Y-5207000D02*
G01*
X5486400Y-5207000D01*
X4546600Y-4546600D02*
G01*
X4546600Y-4038600D01*
X4546600Y-4038600D02*
G01*
X4622800Y-4038600D01*
X4622800Y-4038600D02*
G01*
X4699000Y-4038600D01*
X4699000Y-4038600D02*
G01*
X4699000Y-4546600D01*
X4699000Y-4546600D02*
G01*
X4622800Y-4546600D01*
X4622800Y-4546600D02*
G01*
X4546600Y-4546600D01*
X4622800Y-4038600D02*
G01*
X4622800Y-4013200D01*
X4622800Y-4546600D02*
G01*
X4622800Y-4572000D01*
X11734800Y-3429000D02*
G01*
X11734800Y-2921000D01*
X11734800Y-2921000D02*
G01*
X11811000Y-2921000D01*
X11811000Y-2921000D02*
G01*
X11887200Y-2921000D01*
X11887200Y-2921000D02*
G01*
X11887200Y-3429000D01*
X11887200Y-3429000D02*
G01*
X11811000Y-3429000D01*
X11811000Y-3429000D02*
G01*
X11734800Y-3429000D01*
X11811000Y-2921000D02*
G01*
X11811000Y-2895600D01*
X11811000Y-3429000D02*
G01*
X11811000Y-3454400D01*
X5791200Y-5372100D02*
G01*
X5791200Y-4864100D01*
X5791200Y-4864100D02*
G01*
X5867400Y-4864100D01*
X5867400Y-4864100D02*
G01*
X5943600Y-4864100D01*
X5943600Y-4864100D02*
G01*
X5943600Y-5372100D01*
X5943600Y-5372100D02*
G01*
X5867400Y-5372100D01*
X5867400Y-5372100D02*
G01*
X5791200Y-5372100D01*
X5867400Y-4864100D02*
G01*
X5867400Y-4838700D01*
X5867400Y-5372100D02*
G01*
X5867400Y-5397500D01*
X9487509Y-2594203D02*
G01*
X9487509Y-3654196D01*
X9007500Y-3654196D01*
X9007500Y-2594203D01*
X9487509Y-2594203D01*
X9437497Y-3654196D02*
G01*
X9437497Y-2594203D01*
X11379809Y-2556103D02*
G01*
X11379809Y-3616096D01*
X10899800Y-3616096D01*
X10899800Y-2556103D01*
X11379809Y-2556103D01*
X11329797Y-3616096D02*
G01*
X11329797Y-2556103D01*
G75*
G01*
X8798814Y-4856480D02*
G03*
X8798814Y-5252720I-149857J-198120D01*
G75*
G01*
X11084814Y-4602480D02*
G03*
X11084814Y-4998720I-149857J-198120D01*
G75*
G01*
X9671558Y-5573268D02*
G03*
X9671558Y-5959348I-167803J-193040D01*
G75*
G01*
X10293858Y-6182868D02*
G03*
X10293858Y-6568948I-167803J-193040D01*
D15*
G75*
G01*
X8961120Y-2847340D02*
G03*
X8961120Y-2847594I-20000J-127D01*
G75*
G01*
X10853420Y-2809240D02*
G03*
X10853420Y-2809494I-20000J-127D01*
D13*
G75*
G01
X7124700Y-4445000D02*
G03X7124700Y-4445000I-25400J0D01*
M02*
