G04 Layer: TopLayer*
G04 EasyEDA v6.5.57, 2026-08-22 17:03:58*
G04 b964f05a3b9147adb4d4000912e9aaab,b708071f21264b789b81ea9d82a1e275,10*
G04 Gerber Generator version 0.2*
G04 Scale: 100 percent, Rotated: No, Reflected: No *
G04 Dimensions in millimeters *
G04 leading zeros omitted , absolute positions ,4 integer and 5 decimal *
%FSLAX45Y45*%
%MOMM*%

%AMMACRO1*21,1,$1,$2,0,0,$3*%
%ADD10C,0.2540*%
%ADD11C,1.0000*%
%ADD12C,0.5000*%
%ADD13O,2.54X2.032*%
%ADD14R,2.0066X0.9906*%
%ADD15R,0.9652X0.8128*%
%ADD16R,0.0110X0.8128*%
%ADD17C,0.9906*%
%ADD18R,1.3970X1.3970*%
%ADD19C,1.3970*%
%ADD20O,2.999994X3.999992*%
%ADD21R,3.0000X4.0000*%
%ADD22O,3.999992X2.999994*%
%ADD23R,4.0000X3.0000*%
%ADD24R,1.5748X1.5748*%
%ADD25C,1.5748*%
%ADD26C,2.1590*%
%ADD27R,3.0000X3.0000*%
%ADD28C,3.0000*%
%ADD29C,1.8796*%
%ADD30MACRO1,2.0015X2.4994X-90.0000*%
%ADD31O,2.499995X1.999996*%

%LPD*%
G36*
X1965604Y-8199475D02*
G01*
X1926996Y-8196224D01*
X1888388Y-8191042D01*
X1850136Y-8183981D01*
X1812239Y-8175091D01*
X1774799Y-8164322D01*
X1737969Y-8151723D01*
X1701800Y-8137347D01*
X1666392Y-8121243D01*
X1631797Y-8103362D01*
X1598117Y-8083854D01*
X1565452Y-8062671D01*
X1533855Y-8039963D01*
X1503375Y-8015681D01*
X1474165Y-7989976D01*
X1446225Y-7962849D01*
X1419707Y-7934401D01*
X1394561Y-7904683D01*
X1370888Y-7873746D01*
X1348790Y-7841691D01*
X1328318Y-7808620D01*
X1309471Y-7774533D01*
X1292301Y-7739583D01*
X1276908Y-7703870D01*
X1263243Y-7667396D01*
X1251407Y-7630312D01*
X1241399Y-7592669D01*
X1233220Y-7554620D01*
X1226972Y-7516215D01*
X1222552Y-7477506D01*
X1220063Y-7438694D01*
X1219504Y-7399934D01*
X1219504Y-1966112D01*
X1220470Y-1927910D01*
X1223365Y-1890217D01*
X1228140Y-1852726D01*
X1234846Y-1815490D01*
X1243431Y-1778660D01*
X1253845Y-1742287D01*
X1266088Y-1706524D01*
X1280109Y-1671370D01*
X1295908Y-1637030D01*
X1313434Y-1603502D01*
X1332636Y-1570939D01*
X1353464Y-1539341D01*
X1375867Y-1508861D01*
X1399743Y-1479550D01*
X1425143Y-1451508D01*
X1451864Y-1424787D01*
X1479956Y-1399438D01*
X1509268Y-1375562D01*
X1539748Y-1353159D01*
X1571345Y-1332382D01*
X1603959Y-1313180D01*
X1637487Y-1295704D01*
X1671878Y-1279906D01*
X1706981Y-1265885D01*
X1742795Y-1253693D01*
X1779117Y-1243279D01*
X1815998Y-1234744D01*
X1853234Y-1228090D01*
X1890725Y-1223314D01*
X1928469Y-1220470D01*
X1966112Y-1219504D01*
X12471857Y-1219504D01*
X12510058Y-1220470D01*
X12547752Y-1223365D01*
X12585293Y-1228140D01*
X12622530Y-1234846D01*
X12659360Y-1243431D01*
X12695732Y-1253845D01*
X12731496Y-1266088D01*
X12766598Y-1280109D01*
X12800990Y-1295908D01*
X12834518Y-1313434D01*
X12867081Y-1332636D01*
X12898678Y-1353464D01*
X12929108Y-1375867D01*
X12958419Y-1399743D01*
X12986512Y-1425143D01*
X13013232Y-1451864D01*
X13038582Y-1479956D01*
X13062458Y-1509268D01*
X13084860Y-1539748D01*
X13105638Y-1571345D01*
X13124789Y-1603959D01*
X13142315Y-1637487D01*
X13158114Y-1671878D01*
X13172084Y-1706981D01*
X13184327Y-1742795D01*
X13194741Y-1779117D01*
X13203275Y-1815998D01*
X13209930Y-1853234D01*
X13214705Y-1890725D01*
X13217550Y-1928469D01*
X13218515Y-1966112D01*
X13218515Y-7399934D01*
X13217906Y-7439202D01*
X13215366Y-7478014D01*
X13210997Y-7516723D01*
X13204698Y-7555128D01*
X13196519Y-7593177D01*
X13186460Y-7630769D01*
X13174573Y-7667853D01*
X13160908Y-7704328D01*
X13145465Y-7740040D01*
X13128294Y-7774990D01*
X13109448Y-7809026D01*
X13088924Y-7842097D01*
X13066776Y-7874152D01*
X13043154Y-7905038D01*
X13018008Y-7934756D01*
X12991388Y-7963204D01*
X12963448Y-7990331D01*
X12934238Y-8016036D01*
X12903758Y-8040268D01*
X12872161Y-8062975D01*
X12839446Y-8084108D01*
X12805765Y-8103616D01*
X12771170Y-8121446D01*
X12735712Y-8137550D01*
X12699542Y-8151926D01*
X12662712Y-8164474D01*
X12625273Y-8175193D01*
X12587376Y-8184083D01*
X12549124Y-8191144D01*
X12510516Y-8196275D01*
X12472416Y-8199475D01*
G37*

%LPC*%
G36*
X9051391Y-7181037D02*
G01*
X9066174Y-7180580D01*
X9080754Y-7178294D01*
X9094927Y-7174230D01*
X9108541Y-7168489D01*
X9121292Y-7161123D01*
X9133078Y-7152233D01*
X9143695Y-7141972D01*
X9152940Y-7130440D01*
X9160713Y-7117892D01*
X9166860Y-7104481D01*
X9171330Y-7090460D01*
X9174073Y-7075931D01*
X9174988Y-7061200D01*
X9174073Y-7046468D01*
X9171330Y-7031939D01*
X9166860Y-7017918D01*
X9160713Y-7004507D01*
X9152940Y-6991959D01*
X9143695Y-6980428D01*
X9133078Y-6970166D01*
X9121292Y-6961276D01*
X9108541Y-6953910D01*
X9094927Y-6948170D01*
X9080754Y-6944106D01*
X9066174Y-6941820D01*
X9051391Y-6941413D01*
X9036710Y-6942734D01*
X9022283Y-6945884D01*
X9007703Y-6951065D01*
X9003995Y-6951624D01*
X9000286Y-6950811D01*
X8997137Y-6948678D01*
X8341207Y-6292697D01*
X8339023Y-6289395D01*
X8338210Y-6285534D01*
X8331758Y-4910074D01*
X8332266Y-4906772D01*
X8376259Y-4774793D01*
X8378088Y-4771491D01*
X8380984Y-4769104D01*
X8384540Y-4767935D01*
X8388756Y-4767326D01*
X8401354Y-4763820D01*
X8413343Y-4758588D01*
X8424519Y-4751832D01*
X8434628Y-4743551D01*
X8443569Y-4734001D01*
X8451088Y-4723333D01*
X8457133Y-4711750D01*
X8461502Y-4699406D01*
X8464143Y-4686655D01*
X8465058Y-4673600D01*
X8464143Y-4660544D01*
X8461502Y-4647793D01*
X8457133Y-4635449D01*
X8451088Y-4623866D01*
X8443569Y-4613198D01*
X8434628Y-4603648D01*
X8424519Y-4595368D01*
X8413343Y-4588611D01*
X8401354Y-4583379D01*
X8388756Y-4579874D01*
X8375853Y-4578096D01*
X8362746Y-4578096D01*
X8349843Y-4579874D01*
X8337245Y-4583379D01*
X8325256Y-4588611D01*
X8314080Y-4595368D01*
X8303971Y-4603648D01*
X8295030Y-4613198D01*
X8287512Y-4623866D01*
X8281466Y-4635449D01*
X8277098Y-4647793D01*
X8274456Y-4660544D01*
X8273542Y-4673600D01*
X8274456Y-4686655D01*
X8277098Y-4699406D01*
X8281466Y-4711750D01*
X8287512Y-4723333D01*
X8295030Y-4734001D01*
X8300821Y-4740198D01*
X8302752Y-4743246D01*
X8303514Y-4746752D01*
X8303006Y-4750358D01*
X8256574Y-4889652D01*
X8254847Y-4897221D01*
X8254492Y-4902708D01*
X8257336Y-5511088D01*
X8256625Y-5514898D01*
X8254492Y-5518200D01*
X8251240Y-5520436D01*
X8247430Y-5521299D01*
X8243570Y-5520639D01*
X8240268Y-5518556D01*
X8237981Y-5515356D01*
X8233613Y-5505907D01*
X8225840Y-5493359D01*
X8216595Y-5481828D01*
X8205978Y-5471566D01*
X8194192Y-5462676D01*
X8181441Y-5455310D01*
X8167827Y-5449570D01*
X8161274Y-5447690D01*
X8157464Y-5445607D01*
X8154822Y-5442153D01*
X8153908Y-5437886D01*
X8153908Y-4767630D01*
X8154517Y-4764227D01*
X8156194Y-4761230D01*
X8158784Y-4758944D01*
X8170519Y-4751832D01*
X8180628Y-4743551D01*
X8189569Y-4734001D01*
X8197088Y-4723333D01*
X8203133Y-4711750D01*
X8207502Y-4699406D01*
X8210143Y-4686655D01*
X8211058Y-4673600D01*
X8210143Y-4660544D01*
X8207502Y-4647793D01*
X8203133Y-4635449D01*
X8197088Y-4623866D01*
X8189569Y-4613198D01*
X8180628Y-4603648D01*
X8170519Y-4595368D01*
X8159343Y-4588611D01*
X8147354Y-4583379D01*
X8134756Y-4579874D01*
X8121853Y-4578096D01*
X8108746Y-4578096D01*
X8095843Y-4579874D01*
X8083245Y-4583379D01*
X8071256Y-4588611D01*
X8060080Y-4595368D01*
X8049971Y-4603648D01*
X8041030Y-4613198D01*
X8033512Y-4623866D01*
X8027466Y-4635449D01*
X8023098Y-4647793D01*
X8020456Y-4660544D01*
X8019542Y-4673600D01*
X8020456Y-4686655D01*
X8023098Y-4699406D01*
X8027466Y-4711750D01*
X8033512Y-4723333D01*
X8041030Y-4734001D01*
X8049971Y-4743551D01*
X8060080Y-4751832D01*
X8071815Y-4758944D01*
X8074406Y-4761230D01*
X8076082Y-4764227D01*
X8076692Y-4767630D01*
X8076692Y-5448198D01*
X8075980Y-5451856D01*
X8074050Y-5455056D01*
X8071053Y-5457291D01*
X8068056Y-5458815D01*
X8055762Y-5466943D01*
X8044535Y-5476544D01*
X8034629Y-5487466D01*
X8026095Y-5499506D01*
X8019084Y-5512511D01*
X8013750Y-5526278D01*
X8010194Y-5540552D01*
X8008366Y-5555234D01*
X8008366Y-5569966D01*
X8010194Y-5584647D01*
X8013750Y-5598922D01*
X8019084Y-5612688D01*
X8026095Y-5625693D01*
X8034629Y-5637733D01*
X8044535Y-5648655D01*
X8055762Y-5658256D01*
X8068056Y-5666384D01*
X8081264Y-5672988D01*
X8095183Y-5677916D01*
X8109610Y-5681065D01*
X8124291Y-5682437D01*
X8139074Y-5681980D01*
X8153653Y-5679694D01*
X8167827Y-5675630D01*
X8181441Y-5669889D01*
X8194192Y-5662523D01*
X8205978Y-5653633D01*
X8216595Y-5643372D01*
X8225840Y-5631840D01*
X8233613Y-5619292D01*
X8238439Y-5608777D01*
X8240725Y-5605627D01*
X8244027Y-5603544D01*
X8247888Y-5602884D01*
X8251698Y-5603697D01*
X8254898Y-5605881D01*
X8257082Y-5609183D01*
X8257844Y-5612993D01*
X8261096Y-6305499D01*
X8261858Y-6313322D01*
X8264093Y-6320536D01*
X8267649Y-6327241D01*
X8272780Y-6333439D01*
X8942679Y-7003389D01*
X8944864Y-7006640D01*
X8945676Y-7010400D01*
X8944965Y-7014260D01*
X8940850Y-7024878D01*
X8937294Y-7039152D01*
X8935466Y-7053834D01*
X8935466Y-7068566D01*
X8937294Y-7083247D01*
X8940850Y-7097522D01*
X8946184Y-7111288D01*
X8953195Y-7124293D01*
X8961729Y-7136333D01*
X8971635Y-7147255D01*
X8982862Y-7156856D01*
X8995156Y-7164984D01*
X9008364Y-7171588D01*
X9022283Y-7176516D01*
X9036710Y-7179665D01*
G37*
G36*
X9813391Y-7181037D02*
G01*
X9828174Y-7180580D01*
X9842754Y-7178294D01*
X9856927Y-7174230D01*
X9870541Y-7168489D01*
X9883292Y-7161123D01*
X9895078Y-7152233D01*
X9905695Y-7141972D01*
X9914940Y-7130440D01*
X9922713Y-7117892D01*
X9928301Y-7105700D01*
X9930536Y-7102602D01*
X9933787Y-7100519D01*
X9937546Y-7099808D01*
X10057892Y-7099808D01*
X10065918Y-7098995D01*
X10073132Y-7096810D01*
X10079837Y-7093254D01*
X10086035Y-7088124D01*
X10504424Y-6669735D01*
X10509554Y-6663537D01*
X10513110Y-6656831D01*
X10515295Y-6649618D01*
X10516108Y-6641592D01*
X10516108Y-6515607D01*
X10515295Y-6507581D01*
X10513110Y-6500368D01*
X10509554Y-6493662D01*
X10504424Y-6487464D01*
X10365435Y-6348476D01*
X10359237Y-6343345D01*
X10352532Y-6339789D01*
X10345318Y-6337604D01*
X10337292Y-6336792D01*
X10230104Y-6336792D01*
X10226802Y-6336233D01*
X10223855Y-6334607D01*
X10221569Y-6332169D01*
X10219994Y-6329680D01*
X10212273Y-6321044D01*
X10210647Y-6319723D01*
X10208006Y-6316370D01*
X10206990Y-6312255D01*
X10207701Y-6308090D01*
X10210088Y-6304534D01*
X10216286Y-6298590D01*
X10223296Y-6289395D01*
X10228834Y-6279235D01*
X10232694Y-6268364D01*
X10234930Y-6257036D01*
X10235336Y-6245504D01*
X10234015Y-6234023D01*
X10230967Y-6222898D01*
X10226243Y-6212382D01*
X10219994Y-6202680D01*
X10212273Y-6194044D01*
X10203383Y-6186728D01*
X10193477Y-6180836D01*
X10182758Y-6176518D01*
X10171531Y-6173876D01*
X10160000Y-6173012D01*
X10148468Y-6173876D01*
X10137241Y-6176518D01*
X10126522Y-6180836D01*
X10116616Y-6186728D01*
X10107726Y-6194044D01*
X10100005Y-6202680D01*
X10093756Y-6212382D01*
X10089032Y-6222898D01*
X10085984Y-6234023D01*
X10084663Y-6245504D01*
X10085070Y-6257036D01*
X10087305Y-6268364D01*
X10091166Y-6279235D01*
X10096703Y-6289395D01*
X10103713Y-6298590D01*
X10109911Y-6304534D01*
X10112298Y-6308090D01*
X10113010Y-6312255D01*
X10111994Y-6316370D01*
X10109352Y-6319723D01*
X10107726Y-6321044D01*
X10100005Y-6329680D01*
X10093756Y-6339382D01*
X10089032Y-6349898D01*
X10085984Y-6361023D01*
X10084663Y-6372961D01*
X10084003Y-6376924D01*
X10081869Y-6380327D01*
X10078567Y-6382664D01*
X10074656Y-6383477D01*
X10070693Y-6382766D01*
X10067340Y-6380530D01*
X9820605Y-6133795D01*
X9818370Y-6130493D01*
X9817608Y-6126581D01*
X9817608Y-5874918D01*
X9818370Y-5871006D01*
X9820605Y-5867704D01*
X10062108Y-5626201D01*
X10065308Y-5624017D01*
X10069017Y-5623204D01*
X10072827Y-5623814D01*
X10076078Y-5625795D01*
X10078415Y-5628843D01*
X10081615Y-5635244D01*
X10089743Y-5647537D01*
X10099344Y-5658764D01*
X10110266Y-5668670D01*
X10122306Y-5677204D01*
X10135311Y-5684215D01*
X10149078Y-5689549D01*
X10163352Y-5693105D01*
X10178034Y-5694934D01*
X10192766Y-5694934D01*
X10207447Y-5693105D01*
X10221722Y-5689549D01*
X10235488Y-5684215D01*
X10248493Y-5677204D01*
X10260533Y-5668670D01*
X10271455Y-5658764D01*
X10281056Y-5647537D01*
X10289184Y-5635244D01*
X10295788Y-5622036D01*
X10300716Y-5608116D01*
X10303865Y-5593689D01*
X10305237Y-5579008D01*
X10304780Y-5564225D01*
X10302494Y-5549646D01*
X10298430Y-5535472D01*
X10292689Y-5521858D01*
X10285323Y-5509107D01*
X10276433Y-5497322D01*
X10266172Y-5486704D01*
X10254640Y-5477459D01*
X10242092Y-5469686D01*
X10228681Y-5463540D01*
X10214660Y-5459069D01*
X10200132Y-5456326D01*
X10185400Y-5455412D01*
X10170668Y-5456326D01*
X10156139Y-5459069D01*
X10142118Y-5463540D01*
X10128707Y-5469686D01*
X10116159Y-5477459D01*
X10104628Y-5486704D01*
X10094366Y-5497322D01*
X10085476Y-5509107D01*
X10078110Y-5521858D01*
X10074452Y-5530494D01*
X10072217Y-5533745D01*
X10068966Y-5535930D01*
X10065105Y-5536692D01*
X10058908Y-5536692D01*
X10050881Y-5537504D01*
X10043668Y-5539689D01*
X10036962Y-5543245D01*
X10030764Y-5548376D01*
X9752076Y-5827064D01*
X9746945Y-5833262D01*
X9743389Y-5839968D01*
X9741204Y-5847181D01*
X9740392Y-5855208D01*
X9740392Y-6146292D01*
X9741204Y-6154318D01*
X9743389Y-6161532D01*
X9746945Y-6168237D01*
X9752076Y-6174435D01*
X10024059Y-6446469D01*
X10026243Y-6449720D01*
X10027005Y-6453632D01*
X10026243Y-6457543D01*
X10024059Y-6460794D01*
X10020757Y-6463030D01*
X10016845Y-6463792D01*
X8946794Y-6463792D01*
X8942832Y-6462979D01*
X8939530Y-6460693D01*
X8937345Y-6457289D01*
X8935415Y-6452311D01*
X8928404Y-6439306D01*
X8919870Y-6427266D01*
X8909964Y-6416344D01*
X8898737Y-6406743D01*
X8886444Y-6398615D01*
X8873236Y-6392011D01*
X8859316Y-6387084D01*
X8844889Y-6383934D01*
X8830208Y-6382613D01*
X8815425Y-6383020D01*
X8800846Y-6385306D01*
X8786672Y-6389370D01*
X8773058Y-6395110D01*
X8760307Y-6402476D01*
X8748522Y-6411366D01*
X8737904Y-6421628D01*
X8728659Y-6433159D01*
X8720886Y-6445707D01*
X8714740Y-6459118D01*
X8710269Y-6473139D01*
X8707526Y-6487668D01*
X8706612Y-6502400D01*
X8707526Y-6517131D01*
X8710269Y-6531660D01*
X8714740Y-6545681D01*
X8720886Y-6559092D01*
X8728659Y-6571640D01*
X8737904Y-6583172D01*
X8748522Y-6593433D01*
X8760307Y-6602323D01*
X8773058Y-6609689D01*
X8786672Y-6615430D01*
X8800846Y-6619494D01*
X8815425Y-6621780D01*
X8830208Y-6622237D01*
X8844889Y-6620865D01*
X8859316Y-6617716D01*
X8873236Y-6612788D01*
X8886444Y-6606184D01*
X8898737Y-6598056D01*
X8909964Y-6588455D01*
X8919870Y-6577533D01*
X8928404Y-6565493D01*
X8935415Y-6552488D01*
X8937345Y-6547510D01*
X8939530Y-6544106D01*
X8942832Y-6541820D01*
X8946794Y-6541007D01*
X10076637Y-6541007D01*
X10080650Y-6541871D01*
X10084054Y-6544259D01*
X10086187Y-6547815D01*
X10088473Y-6554266D01*
X10091521Y-6559143D01*
X10095636Y-6563258D01*
X10100513Y-6566306D01*
X10105999Y-6568236D01*
X10112298Y-6568948D01*
X10207701Y-6568948D01*
X10214000Y-6568236D01*
X10219486Y-6566306D01*
X10224363Y-6563258D01*
X10228478Y-6559143D01*
X10231526Y-6554266D01*
X10233456Y-6548780D01*
X10234168Y-6542481D01*
X10234168Y-6462318D01*
X10233456Y-6456019D01*
X10231526Y-6450533D01*
X10228478Y-6445656D01*
X10224363Y-6441541D01*
X10220096Y-6438849D01*
X10217099Y-6435953D01*
X10215524Y-6432092D01*
X10215626Y-6427876D01*
X10217404Y-6424117D01*
X10222077Y-6418021D01*
X10224312Y-6415836D01*
X10227056Y-6414465D01*
X10230154Y-6414008D01*
X10317581Y-6414008D01*
X10321493Y-6414770D01*
X10324795Y-6417005D01*
X10435894Y-6528104D01*
X10438130Y-6531406D01*
X10438892Y-6535318D01*
X10438892Y-6621881D01*
X10438130Y-6625793D01*
X10435894Y-6629095D01*
X10045395Y-7019594D01*
X10042093Y-7021830D01*
X10038181Y-7022592D01*
X9937546Y-7022592D01*
X9933787Y-7021880D01*
X9930536Y-7019798D01*
X9928301Y-7016699D01*
X9922713Y-7004507D01*
X9914940Y-6991959D01*
X9905695Y-6980428D01*
X9895078Y-6970166D01*
X9883292Y-6961276D01*
X9870541Y-6953910D01*
X9856927Y-6948170D01*
X9842754Y-6944106D01*
X9828174Y-6941820D01*
X9813391Y-6941413D01*
X9798710Y-6942734D01*
X9784283Y-6945884D01*
X9770364Y-6950811D01*
X9757156Y-6957415D01*
X9744862Y-6965543D01*
X9733635Y-6975144D01*
X9723729Y-6986066D01*
X9715195Y-6998106D01*
X9708184Y-7011111D01*
X9702850Y-7024878D01*
X9699294Y-7039152D01*
X9697466Y-7053834D01*
X9697466Y-7068566D01*
X9699294Y-7083247D01*
X9702850Y-7097522D01*
X9708184Y-7111288D01*
X9715195Y-7124293D01*
X9723729Y-7136333D01*
X9733635Y-7147255D01*
X9744862Y-7156856D01*
X9757156Y-7164984D01*
X9770364Y-7171588D01*
X9784283Y-7176516D01*
X9798710Y-7179665D01*
G37*
G36*
X8011159Y-6609740D02*
G01*
X8011159Y-6555740D01*
X7957362Y-6555740D01*
X7958886Y-6559092D01*
X7966659Y-6571640D01*
X7975904Y-6583172D01*
X7986522Y-6593433D01*
X7998307Y-6602323D01*
G37*
G36*
X8117840Y-6609486D02*
G01*
X8124444Y-6606184D01*
X8136737Y-6598056D01*
X8147964Y-6588455D01*
X8157870Y-6577533D01*
X8166404Y-6565493D01*
X8171637Y-6555740D01*
X8117840Y-6555740D01*
G37*
G36*
X8117840Y-6449060D02*
G01*
X8171637Y-6449060D01*
X8166404Y-6439306D01*
X8157870Y-6427266D01*
X8147964Y-6416344D01*
X8136737Y-6406743D01*
X8124444Y-6398615D01*
X8117840Y-6395313D01*
G37*
G36*
X7957362Y-6449060D02*
G01*
X8011159Y-6449060D01*
X8011159Y-6395059D01*
X7998307Y-6402476D01*
X7986522Y-6411366D01*
X7975904Y-6421628D01*
X7966659Y-6433159D01*
X7958886Y-6445707D01*
G37*
G36*
X8073491Y-6342837D02*
G01*
X8088274Y-6342380D01*
X8102853Y-6340094D01*
X8117027Y-6336030D01*
X8130641Y-6330289D01*
X8143392Y-6322923D01*
X8155178Y-6314033D01*
X8165795Y-6303772D01*
X8175040Y-6292240D01*
X8182813Y-6279692D01*
X8188959Y-6266281D01*
X8193430Y-6252260D01*
X8196173Y-6237732D01*
X8197088Y-6223000D01*
X8196173Y-6208268D01*
X8193430Y-6193739D01*
X8188959Y-6179718D01*
X8182813Y-6166307D01*
X8175040Y-6153759D01*
X8165795Y-6142228D01*
X8155178Y-6131966D01*
X8143392Y-6123076D01*
X8130641Y-6115710D01*
X8117027Y-6109970D01*
X8102853Y-6105906D01*
X8088274Y-6103620D01*
X8073491Y-6103213D01*
X8058810Y-6104534D01*
X8044383Y-6107684D01*
X8030464Y-6112611D01*
X8017256Y-6119215D01*
X8004962Y-6127343D01*
X7993735Y-6136944D01*
X7983829Y-6147866D01*
X7975295Y-6159906D01*
X7968284Y-6172911D01*
X7962950Y-6186678D01*
X7959394Y-6200952D01*
X7957566Y-6215634D01*
X7957566Y-6230366D01*
X7959394Y-6245047D01*
X7962950Y-6259322D01*
X7968284Y-6273088D01*
X7975295Y-6286093D01*
X7983829Y-6298133D01*
X7993735Y-6309055D01*
X8004962Y-6318656D01*
X8017256Y-6326784D01*
X8030464Y-6333388D01*
X8044383Y-6338316D01*
X8058810Y-6341465D01*
G37*
G36*
X8892540Y-6330340D02*
G01*
X8905392Y-6322923D01*
X8917178Y-6314033D01*
X8927795Y-6303772D01*
X8937040Y-6292240D01*
X8944813Y-6279692D01*
X8946337Y-6276340D01*
X8892540Y-6276340D01*
G37*
G36*
X8785860Y-6330086D02*
G01*
X8785860Y-6276340D01*
X8732062Y-6276340D01*
X8737295Y-6286093D01*
X8745829Y-6298133D01*
X8755735Y-6309055D01*
X8766962Y-6318656D01*
X8779256Y-6326784D01*
G37*
G36*
X10551718Y-6175248D02*
G01*
X10708081Y-6175248D01*
X10714380Y-6174536D01*
X10719866Y-6172606D01*
X10724743Y-6169558D01*
X10728858Y-6165443D01*
X10731906Y-6160566D01*
X10733836Y-6155080D01*
X10734548Y-6148781D01*
X10734548Y-5992418D01*
X10733836Y-5986119D01*
X10731906Y-5980633D01*
X10728858Y-5975756D01*
X10724743Y-5971641D01*
X10719866Y-5968593D01*
X10714380Y-5966663D01*
X10708081Y-5965952D01*
X10551718Y-5965952D01*
X10545419Y-5966663D01*
X10539933Y-5968593D01*
X10535056Y-5971641D01*
X10530941Y-5975756D01*
X10527893Y-5980633D01*
X10525963Y-5986119D01*
X10525252Y-5992418D01*
X10525252Y-6148781D01*
X10525963Y-6155080D01*
X10527893Y-6160566D01*
X10530941Y-6165443D01*
X10535056Y-6169558D01*
X10539933Y-6172606D01*
X10545419Y-6174536D01*
G37*
G36*
X8732062Y-6169660D02*
G01*
X8785860Y-6169660D01*
X8785860Y-6115913D01*
X8779256Y-6119215D01*
X8766962Y-6127343D01*
X8755735Y-6136944D01*
X8745829Y-6147866D01*
X8737295Y-6159906D01*
G37*
G36*
X8892540Y-6169660D02*
G01*
X8946337Y-6169660D01*
X8944813Y-6166307D01*
X8937040Y-6153759D01*
X8927795Y-6142228D01*
X8917178Y-6131966D01*
X8905392Y-6123076D01*
X8892540Y-6115659D01*
G37*
G36*
X6391859Y-6068720D02*
G01*
X6790740Y-6068720D01*
X6797040Y-6068009D01*
X6802526Y-6066078D01*
X6807403Y-6062980D01*
X6811518Y-6058916D01*
X6814566Y-6053988D01*
X6816496Y-6048552D01*
X6817207Y-6042253D01*
X6817207Y-5743346D01*
X6816496Y-5737047D01*
X6814566Y-5731611D01*
X6811518Y-5726684D01*
X6807403Y-5722620D01*
X6802526Y-5719521D01*
X6797040Y-5717590D01*
X6790740Y-5716879D01*
X6474206Y-5716879D01*
X6470294Y-5716117D01*
X6466992Y-5713933D01*
X6290005Y-5536895D01*
X6287770Y-5533593D01*
X6287008Y-5529681D01*
X6287008Y-4909718D01*
X6287770Y-4905806D01*
X6290005Y-4902504D01*
X6415024Y-4777435D01*
X6420154Y-4771237D01*
X6423710Y-4764532D01*
X6425895Y-4757318D01*
X6426708Y-4749292D01*
X6426708Y-3627018D01*
X6427470Y-3623106D01*
X6429705Y-3619804D01*
X6470954Y-3578555D01*
X6474256Y-3576320D01*
X6478168Y-3575558D01*
X6544919Y-3575558D01*
X6549034Y-3576421D01*
X6552438Y-3578860D01*
X6554571Y-3582466D01*
X6556197Y-3587242D01*
X6563004Y-3601567D01*
X6571437Y-3614978D01*
X6581444Y-3627272D01*
X6592824Y-3638346D01*
X6605422Y-3647948D01*
X6619087Y-3656025D01*
X6633616Y-3662426D01*
X6648754Y-3667048D01*
X6664350Y-3669842D01*
X6680200Y-3670808D01*
X6696049Y-3669842D01*
X6711645Y-3667048D01*
X6726783Y-3662426D01*
X6741312Y-3656025D01*
X6754977Y-3647948D01*
X6767575Y-3638346D01*
X6778955Y-3627272D01*
X6788962Y-3614978D01*
X6797395Y-3601567D01*
X6804253Y-3587242D01*
X6809282Y-3572205D01*
X6812584Y-3556711D01*
X6813956Y-3540912D01*
X6813499Y-3525062D01*
X6812432Y-3517900D01*
X6812483Y-3514750D01*
X6813448Y-3511753D01*
X6815328Y-3509213D01*
X6867398Y-3457092D01*
X6870700Y-3454857D01*
X6874611Y-3454095D01*
X9077401Y-3454095D01*
X9080398Y-3454552D01*
X9083141Y-3455924D01*
X9085376Y-3458006D01*
X9088272Y-3461664D01*
X9099042Y-3472434D01*
X9110980Y-3481781D01*
X9123984Y-3489655D01*
X9137853Y-3495903D01*
X9152382Y-3500424D01*
X9167317Y-3503168D01*
X9182811Y-3504133D01*
X9232188Y-3504133D01*
X9247682Y-3503168D01*
X9262618Y-3500424D01*
X9277146Y-3495903D01*
X9291015Y-3489655D01*
X9304020Y-3481781D01*
X9315958Y-3472434D01*
X9326727Y-3461664D01*
X9336125Y-3449726D01*
X9343948Y-3436721D01*
X9350197Y-3422853D01*
X9354718Y-3408324D01*
X9357461Y-3393389D01*
X9358376Y-3378200D01*
X9357461Y-3363010D01*
X9354718Y-3348075D01*
X9350197Y-3333546D01*
X9343948Y-3319678D01*
X9336125Y-3306673D01*
X9326727Y-3294735D01*
X9315958Y-3283965D01*
X9304020Y-3274618D01*
X9291015Y-3266744D01*
X9277096Y-3260445D01*
X9273946Y-3258261D01*
X9271812Y-3255010D01*
X9271101Y-3251200D01*
X9271812Y-3247390D01*
X9273946Y-3244138D01*
X9277096Y-3241954D01*
X9291015Y-3235655D01*
X9304020Y-3227781D01*
X9315958Y-3218434D01*
X9326727Y-3207664D01*
X9336125Y-3195726D01*
X9343948Y-3182721D01*
X9350197Y-3168853D01*
X9354718Y-3154324D01*
X9357461Y-3139389D01*
X9358376Y-3124200D01*
X9357461Y-3109010D01*
X9354718Y-3094075D01*
X9350197Y-3079546D01*
X9343948Y-3065678D01*
X9336125Y-3052673D01*
X9326727Y-3040735D01*
X9315958Y-3029966D01*
X9304020Y-3020618D01*
X9294672Y-3014980D01*
X9291523Y-3011932D01*
X9289948Y-3007918D01*
X9290151Y-3003550D01*
X9292234Y-2999689D01*
X9295688Y-2997047D01*
X9299956Y-2996133D01*
X9331909Y-2996133D01*
X9335008Y-2995777D01*
X9338056Y-2995879D01*
X9340900Y-2996895D01*
X9343339Y-2998673D01*
X9519970Y-3175304D01*
X9522206Y-3178606D01*
X9522968Y-3182518D01*
X9522968Y-4426153D01*
X9522256Y-4429912D01*
X9520174Y-4433163D01*
X9517075Y-4435398D01*
X9504883Y-4440986D01*
X9492335Y-4448759D01*
X9480804Y-4458004D01*
X9470542Y-4468622D01*
X9461652Y-4480407D01*
X9454286Y-4493158D01*
X9448546Y-4506772D01*
X9444482Y-4520946D01*
X9442196Y-4535525D01*
X9441789Y-4550308D01*
X9443110Y-4564989D01*
X9446260Y-4579416D01*
X9451187Y-4593336D01*
X9457791Y-4606544D01*
X9465919Y-4618837D01*
X9475520Y-4630064D01*
X9486442Y-4639970D01*
X9498482Y-4648504D01*
X9511487Y-4655515D01*
X9525254Y-4660849D01*
X9539528Y-4664405D01*
X9554210Y-4666234D01*
X9568942Y-4666234D01*
X9583623Y-4664405D01*
X9597898Y-4660849D01*
X9611664Y-4655515D01*
X9624669Y-4648504D01*
X9636709Y-4639970D01*
X9647631Y-4630064D01*
X9657232Y-4618837D01*
X9665360Y-4606544D01*
X9671964Y-4593336D01*
X9676892Y-4579416D01*
X9680041Y-4564989D01*
X9681413Y-4550308D01*
X9680956Y-4535525D01*
X9678670Y-4520946D01*
X9674606Y-4506772D01*
X9668865Y-4493158D01*
X9661499Y-4480407D01*
X9652609Y-4468622D01*
X9642348Y-4458004D01*
X9630816Y-4448759D01*
X9618268Y-4440986D01*
X9606076Y-4435398D01*
X9602978Y-4433163D01*
X9600895Y-4429912D01*
X9600184Y-4426153D01*
X9600184Y-3162808D01*
X9599371Y-3154781D01*
X9597186Y-3147568D01*
X9593630Y-3140862D01*
X9588500Y-3134664D01*
X9361373Y-2907487D01*
X9359188Y-2904236D01*
X9358426Y-2900324D01*
X9358426Y-2770784D01*
X9357715Y-2764434D01*
X9355785Y-2758998D01*
X9352686Y-2754071D01*
X9348622Y-2750007D01*
X9343694Y-2746908D01*
X9338259Y-2745028D01*
X9331909Y-2744317D01*
X9083090Y-2744317D01*
X9076740Y-2745028D01*
X9071305Y-2746908D01*
X9066377Y-2750007D01*
X9062313Y-2754071D01*
X9059214Y-2758998D01*
X9057284Y-2764434D01*
X9056573Y-2770784D01*
X9056573Y-2969615D01*
X9057284Y-2975965D01*
X9059214Y-2981401D01*
X9062313Y-2986328D01*
X9066377Y-2990392D01*
X9071305Y-2993491D01*
X9076740Y-2995371D01*
X9083090Y-2996133D01*
X9115044Y-2996133D01*
X9119311Y-2997047D01*
X9122765Y-2999689D01*
X9124848Y-3003550D01*
X9125051Y-3007918D01*
X9123476Y-3011932D01*
X9120327Y-3014980D01*
X9110980Y-3020618D01*
X9099042Y-3029966D01*
X9088272Y-3040735D01*
X9078874Y-3052673D01*
X9071051Y-3065678D01*
X9070289Y-3067304D01*
X9068104Y-3070453D01*
X9064853Y-3072536D01*
X9061043Y-3073298D01*
X8534298Y-3073298D01*
X8530386Y-3072536D01*
X8527135Y-3070301D01*
X8113369Y-2656535D01*
X8109915Y-2653385D01*
X8106409Y-2650693D01*
X8102650Y-2648305D01*
X8098688Y-2646273D01*
X8094624Y-2644546D01*
X8090357Y-2643225D01*
X8086039Y-2642260D01*
X8081619Y-2641701D01*
X8076996Y-2641498D01*
X6750507Y-2641498D01*
X6742988Y-2642158D01*
X6740601Y-2642057D01*
X6719265Y-2634234D01*
X6703872Y-2630525D01*
X6688124Y-2628646D01*
X6672275Y-2628646D01*
X6656527Y-2630525D01*
X6641134Y-2634234D01*
X6626250Y-2639771D01*
X6612128Y-2646984D01*
X6598970Y-2655874D01*
X6586981Y-2666238D01*
X6576263Y-2677922D01*
X6567017Y-2690825D01*
X6559346Y-2704693D01*
X6553403Y-2719374D01*
X6549237Y-2734665D01*
X6546900Y-2750362D01*
X6546443Y-2766212D01*
X6547815Y-2782011D01*
X6551117Y-2797505D01*
X6556197Y-2812542D01*
X6563004Y-2826867D01*
X6571437Y-2840278D01*
X6581444Y-2852572D01*
X6592824Y-2863646D01*
X6605422Y-2873248D01*
X6619087Y-2881325D01*
X6633616Y-2887726D01*
X6648754Y-2892348D01*
X6664350Y-2895142D01*
X6680200Y-2896108D01*
X6696049Y-2895142D01*
X6711645Y-2892348D01*
X6726783Y-2887726D01*
X6741312Y-2881325D01*
X6754977Y-2873248D01*
X6767575Y-2863646D01*
X6778955Y-2852572D01*
X6788962Y-2840278D01*
X6797395Y-2826867D01*
X6804253Y-2812542D01*
X6809282Y-2797505D01*
X6812584Y-2782011D01*
X6813956Y-2766212D01*
X6813600Y-2753766D01*
X6814312Y-2749804D01*
X6816496Y-2746400D01*
X6819798Y-2744114D01*
X6823760Y-2743301D01*
X8051901Y-2743301D01*
X8055813Y-2744063D01*
X8059064Y-2746298D01*
X8472830Y-3160064D01*
X8476284Y-3163214D01*
X8479790Y-3165906D01*
X8483549Y-3168294D01*
X8487511Y-3170326D01*
X8491575Y-3172053D01*
X8495842Y-3173374D01*
X8500160Y-3174339D01*
X8504580Y-3174898D01*
X8509203Y-3175101D01*
X9061043Y-3175101D01*
X9064853Y-3175863D01*
X9068104Y-3177946D01*
X9070289Y-3181096D01*
X9071051Y-3182721D01*
X9078874Y-3195726D01*
X9088272Y-3207664D01*
X9099042Y-3218434D01*
X9110980Y-3227781D01*
X9123984Y-3235655D01*
X9137904Y-3241954D01*
X9141053Y-3244138D01*
X9143187Y-3247390D01*
X9143898Y-3251200D01*
X9143187Y-3255010D01*
X9141053Y-3258261D01*
X9137904Y-3260445D01*
X9123984Y-3266744D01*
X9110980Y-3274618D01*
X9099042Y-3283965D01*
X9088272Y-3294735D01*
X9085376Y-3298393D01*
X9083141Y-3300476D01*
X9080398Y-3301847D01*
X9077401Y-3302304D01*
X6836308Y-3302355D01*
X6827469Y-3303168D01*
X6825030Y-3303574D01*
X6816394Y-3305708D01*
X6814058Y-3306470D01*
X6805828Y-3309874D01*
X6803644Y-3310991D01*
X6796024Y-3315614D01*
X6787184Y-3322675D01*
X6707987Y-3401822D01*
X6705549Y-3403600D01*
X6702653Y-3404615D01*
X6699605Y-3404717D01*
X6688124Y-3403346D01*
X6672275Y-3403346D01*
X6656527Y-3405225D01*
X6641134Y-3408934D01*
X6626250Y-3414471D01*
X6612128Y-3421684D01*
X6598970Y-3430574D01*
X6586981Y-3440937D01*
X6576263Y-3452622D01*
X6567017Y-3465525D01*
X6559346Y-3479393D01*
X6554266Y-3491992D01*
X6552082Y-3495344D01*
X6548729Y-3497579D01*
X6544818Y-3498342D01*
X6458458Y-3498342D01*
X6450431Y-3499154D01*
X6443218Y-3501339D01*
X6436512Y-3504895D01*
X6430314Y-3510026D01*
X6361176Y-3579164D01*
X6356045Y-3585362D01*
X6352489Y-3592068D01*
X6350304Y-3599281D01*
X6349492Y-3607308D01*
X6349492Y-4729581D01*
X6348730Y-4733493D01*
X6346494Y-4736795D01*
X6221476Y-4861864D01*
X6216345Y-4868062D01*
X6212789Y-4874768D01*
X6210604Y-4881981D01*
X6209792Y-4890008D01*
X6209792Y-5549392D01*
X6210604Y-5557418D01*
X6212789Y-5564632D01*
X6216345Y-5571337D01*
X6221476Y-5577535D01*
X6365443Y-5721553D01*
X6367576Y-5724652D01*
X6368389Y-5728360D01*
X6367830Y-5732068D01*
X6366103Y-5737047D01*
X6365392Y-5743346D01*
X6365392Y-6042253D01*
X6366103Y-6048552D01*
X6368034Y-6053988D01*
X6371082Y-6058916D01*
X6375196Y-6062980D01*
X6380073Y-6066078D01*
X6385560Y-6068009D01*
G37*
G36*
X9489998Y-5959348D02*
G01*
X9585401Y-5959348D01*
X9591700Y-5958636D01*
X9597186Y-5956706D01*
X9602063Y-5953658D01*
X9606178Y-5949543D01*
X9609226Y-5944666D01*
X9611156Y-5939180D01*
X9611868Y-5932881D01*
X9611868Y-5852718D01*
X9611156Y-5846419D01*
X9609226Y-5840933D01*
X9606178Y-5836056D01*
X9602063Y-5831941D01*
X9597796Y-5829249D01*
X9594799Y-5826353D01*
X9593224Y-5822492D01*
X9593326Y-5818276D01*
X9595104Y-5814517D01*
X9600996Y-5806795D01*
X9606534Y-5796635D01*
X9610394Y-5785764D01*
X9612630Y-5774436D01*
X9613036Y-5762904D01*
X9611715Y-5751423D01*
X9608667Y-5740298D01*
X9603943Y-5729782D01*
X9597694Y-5720080D01*
X9589973Y-5711444D01*
X9588347Y-5710123D01*
X9585706Y-5706770D01*
X9584690Y-5702655D01*
X9585401Y-5698490D01*
X9587788Y-5694934D01*
X9593986Y-5688990D01*
X9600996Y-5679795D01*
X9606534Y-5669635D01*
X9610394Y-5658764D01*
X9612630Y-5647436D01*
X9613036Y-5635904D01*
X9611715Y-5624423D01*
X9608667Y-5613298D01*
X9603943Y-5602782D01*
X9597694Y-5593080D01*
X9589973Y-5584444D01*
X9581083Y-5577128D01*
X9571177Y-5571236D01*
X9560458Y-5566918D01*
X9549231Y-5564276D01*
X9537700Y-5563412D01*
X9526168Y-5564276D01*
X9514941Y-5566918D01*
X9504222Y-5571236D01*
X9494316Y-5577128D01*
X9485426Y-5584444D01*
X9477705Y-5593080D01*
X9471456Y-5602782D01*
X9466732Y-5613298D01*
X9463684Y-5624423D01*
X9462363Y-5635904D01*
X9462770Y-5647436D01*
X9465005Y-5658764D01*
X9468866Y-5669635D01*
X9474403Y-5679795D01*
X9481413Y-5688990D01*
X9487611Y-5694934D01*
X9489998Y-5698490D01*
X9490710Y-5702655D01*
X9489694Y-5706770D01*
X9487052Y-5710123D01*
X9485426Y-5711444D01*
X9477705Y-5720080D01*
X9471456Y-5729782D01*
X9466732Y-5740298D01*
X9463684Y-5751423D01*
X9462363Y-5762904D01*
X9462770Y-5774436D01*
X9465005Y-5785764D01*
X9468866Y-5796635D01*
X9474403Y-5806795D01*
X9480296Y-5814517D01*
X9482074Y-5818276D01*
X9482226Y-5822492D01*
X9480600Y-5826353D01*
X9477603Y-5829249D01*
X9473336Y-5831941D01*
X9469221Y-5836056D01*
X9466173Y-5840933D01*
X9464243Y-5846419D01*
X9463532Y-5852718D01*
X9463532Y-5932881D01*
X9464243Y-5939180D01*
X9466173Y-5944666D01*
X9469221Y-5949543D01*
X9473336Y-5953658D01*
X9478213Y-5956706D01*
X9483699Y-5958636D01*
G37*
G36*
X7815834Y-5936234D02*
G01*
X7830566Y-5936234D01*
X7845247Y-5934405D01*
X7859522Y-5930849D01*
X7873288Y-5925515D01*
X7886293Y-5918504D01*
X7898333Y-5909970D01*
X7909255Y-5900064D01*
X7918856Y-5888837D01*
X7926984Y-5876544D01*
X7933588Y-5863336D01*
X7938516Y-5849416D01*
X7941665Y-5834989D01*
X7943037Y-5820308D01*
X7942580Y-5805525D01*
X7940294Y-5790946D01*
X7936230Y-5776772D01*
X7930489Y-5763158D01*
X7923123Y-5750407D01*
X7914233Y-5738622D01*
X7903972Y-5728004D01*
X7892440Y-5718759D01*
X7879892Y-5710986D01*
X7866481Y-5704840D01*
X7852460Y-5700369D01*
X7837931Y-5697626D01*
X7823200Y-5696712D01*
X7808468Y-5697626D01*
X7793939Y-5700369D01*
X7779918Y-5704840D01*
X7766507Y-5710986D01*
X7753959Y-5718759D01*
X7742428Y-5728004D01*
X7732166Y-5738622D01*
X7723276Y-5750407D01*
X7715910Y-5763158D01*
X7710170Y-5776772D01*
X7706106Y-5790946D01*
X7703820Y-5805525D01*
X7703413Y-5820308D01*
X7704734Y-5834989D01*
X7707884Y-5849416D01*
X7712811Y-5863336D01*
X7719415Y-5876544D01*
X7727543Y-5888837D01*
X7737144Y-5900064D01*
X7748066Y-5909970D01*
X7760106Y-5918504D01*
X7773111Y-5925515D01*
X7786878Y-5930849D01*
X7801152Y-5934405D01*
G37*
G36*
X10629900Y-5921248D02*
G01*
X10643565Y-5920333D01*
X10656976Y-5917641D01*
X10669930Y-5913272D01*
X10682224Y-5907227D01*
X10693603Y-5899607D01*
X10703864Y-5890564D01*
X10712907Y-5880303D01*
X10720527Y-5868924D01*
X10726572Y-5856630D01*
X10730941Y-5843676D01*
X10733633Y-5830265D01*
X10734548Y-5816600D01*
X10733633Y-5802934D01*
X10730941Y-5789523D01*
X10726572Y-5776569D01*
X10720527Y-5764276D01*
X10712907Y-5752896D01*
X10703864Y-5742635D01*
X10693603Y-5733592D01*
X10682224Y-5725972D01*
X10669930Y-5719927D01*
X10656976Y-5715558D01*
X10643565Y-5712866D01*
X10629900Y-5711952D01*
X10616234Y-5712866D01*
X10602823Y-5715558D01*
X10589869Y-5719927D01*
X10577576Y-5725972D01*
X10566196Y-5733592D01*
X10555935Y-5742635D01*
X10546892Y-5752896D01*
X10539272Y-5764276D01*
X10533227Y-5776569D01*
X10528858Y-5789523D01*
X10526166Y-5802934D01*
X10525252Y-5816600D01*
X10526166Y-5830265D01*
X10528858Y-5843676D01*
X10533227Y-5856630D01*
X10539272Y-5868924D01*
X10546892Y-5880303D01*
X10555935Y-5890564D01*
X10566196Y-5899607D01*
X10577576Y-5907227D01*
X10589869Y-5913272D01*
X10602823Y-5917641D01*
X10616234Y-5920333D01*
G37*
G36*
X8886291Y-5682437D02*
G01*
X8901074Y-5681980D01*
X8915654Y-5679694D01*
X8929827Y-5675630D01*
X8943441Y-5669889D01*
X8956192Y-5662523D01*
X8967978Y-5653633D01*
X8978595Y-5643372D01*
X8987840Y-5631840D01*
X8995613Y-5619292D01*
X9001760Y-5605881D01*
X9006230Y-5591860D01*
X9008973Y-5577332D01*
X9009888Y-5562600D01*
X9008973Y-5547868D01*
X9006230Y-5533339D01*
X9001760Y-5519318D01*
X8995613Y-5505907D01*
X8987840Y-5493359D01*
X8978595Y-5481828D01*
X8967978Y-5471566D01*
X8956192Y-5462676D01*
X8943441Y-5455310D01*
X8929827Y-5449570D01*
X8915654Y-5445506D01*
X8901074Y-5443220D01*
X8886291Y-5442813D01*
X8871610Y-5444134D01*
X8857183Y-5447284D01*
X8843264Y-5452211D01*
X8830056Y-5458815D01*
X8817762Y-5466943D01*
X8806535Y-5476544D01*
X8796629Y-5487466D01*
X8788095Y-5499506D01*
X8781084Y-5512511D01*
X8775750Y-5526278D01*
X8772194Y-5540552D01*
X8770366Y-5555234D01*
X8770366Y-5569966D01*
X8772194Y-5584647D01*
X8775750Y-5598922D01*
X8781084Y-5612688D01*
X8788095Y-5625693D01*
X8796629Y-5637733D01*
X8806535Y-5648655D01*
X8817762Y-5658256D01*
X8830056Y-5666384D01*
X8843264Y-5672988D01*
X8857183Y-5677916D01*
X8871610Y-5681065D01*
G37*
G36*
X5814060Y-5606237D02*
G01*
X5814060Y-5552440D01*
X5760313Y-5552440D01*
X5763615Y-5559044D01*
X5771743Y-5571337D01*
X5781344Y-5582564D01*
X5792266Y-5592470D01*
X5804306Y-5601004D01*
G37*
G36*
X5920740Y-5606237D02*
G01*
X5930493Y-5601004D01*
X5942533Y-5592470D01*
X5953455Y-5582564D01*
X5963056Y-5571337D01*
X5971184Y-5559044D01*
X5974486Y-5552440D01*
X5920740Y-5552440D01*
G37*
G36*
X6697675Y-5551271D02*
G01*
X6710680Y-5546445D01*
X6726681Y-5538571D01*
X6741769Y-5529173D01*
X6755892Y-5518251D01*
X6768795Y-5506008D01*
X6780377Y-5492445D01*
X6790588Y-5477865D01*
X6797040Y-5466130D01*
X6697675Y-5466130D01*
G37*
G36*
X6484975Y-5551271D02*
G01*
X6484975Y-5466130D01*
X6385560Y-5466130D01*
X6392011Y-5477865D01*
X6402222Y-5492445D01*
X6413804Y-5506008D01*
X6426708Y-5518251D01*
X6440830Y-5529173D01*
X6455918Y-5538571D01*
X6471920Y-5546445D01*
G37*
G36*
X5920740Y-5445760D02*
G01*
X5974740Y-5445760D01*
X5967323Y-5432907D01*
X5958433Y-5421122D01*
X5948172Y-5410504D01*
X5936640Y-5401259D01*
X5924092Y-5393486D01*
X5920740Y-5391962D01*
G37*
G36*
X5760059Y-5445760D02*
G01*
X5814060Y-5445760D01*
X5814060Y-5391962D01*
X5810707Y-5393486D01*
X5798159Y-5401259D01*
X5786628Y-5410504D01*
X5776366Y-5421122D01*
X5767476Y-5432907D01*
G37*
G36*
X9554210Y-5428234D02*
G01*
X9568942Y-5428234D01*
X9583623Y-5426405D01*
X9597898Y-5422849D01*
X9611664Y-5417515D01*
X9624669Y-5410504D01*
X9636709Y-5401970D01*
X9647631Y-5392064D01*
X9657232Y-5380837D01*
X9665360Y-5368544D01*
X9671964Y-5355336D01*
X9676892Y-5341416D01*
X9680041Y-5326989D01*
X9681413Y-5312308D01*
X9680956Y-5297525D01*
X9678670Y-5282946D01*
X9674606Y-5268772D01*
X9668865Y-5255158D01*
X9661499Y-5242407D01*
X9652609Y-5230622D01*
X9642348Y-5220004D01*
X9630816Y-5210759D01*
X9618268Y-5202986D01*
X9604857Y-5196840D01*
X9590836Y-5192369D01*
X9576308Y-5189626D01*
X9561576Y-5188712D01*
X9546844Y-5189626D01*
X9532315Y-5192369D01*
X9518294Y-5196840D01*
X9504883Y-5202986D01*
X9492335Y-5210759D01*
X9480804Y-5220004D01*
X9470542Y-5230622D01*
X9461652Y-5242407D01*
X9454286Y-5255158D01*
X9448546Y-5268772D01*
X9444482Y-5282946D01*
X9442196Y-5297525D01*
X9441789Y-5312308D01*
X9443110Y-5326989D01*
X9446260Y-5341416D01*
X9451187Y-5355336D01*
X9457791Y-5368544D01*
X9465919Y-5380837D01*
X9475520Y-5392064D01*
X9486442Y-5401970D01*
X9498482Y-5410504D01*
X9511487Y-5417515D01*
X9525254Y-5422849D01*
X9539528Y-5426405D01*
G37*
G36*
X9200134Y-5415534D02*
G01*
X9214866Y-5415534D01*
X9229547Y-5413705D01*
X9243822Y-5410149D01*
X9257588Y-5404815D01*
X9270593Y-5397804D01*
X9282633Y-5389270D01*
X9293555Y-5379364D01*
X9303156Y-5368137D01*
X9311284Y-5355844D01*
X9317888Y-5342636D01*
X9322816Y-5328716D01*
X9325965Y-5314289D01*
X9327337Y-5299608D01*
X9326880Y-5284825D01*
X9324594Y-5270246D01*
X9320530Y-5256072D01*
X9314789Y-5242458D01*
X9307423Y-5229707D01*
X9298533Y-5217922D01*
X9288272Y-5207304D01*
X9276740Y-5198059D01*
X9264192Y-5190286D01*
X9250781Y-5184140D01*
X9236760Y-5179669D01*
X9222232Y-5176926D01*
X9207500Y-5176012D01*
X9192768Y-5176926D01*
X9178239Y-5179669D01*
X9164218Y-5184140D01*
X9150807Y-5190286D01*
X9138259Y-5198059D01*
X9126728Y-5207304D01*
X9116466Y-5217922D01*
X9107576Y-5229707D01*
X9100210Y-5242458D01*
X9094470Y-5256072D01*
X9090406Y-5270246D01*
X9088120Y-5284825D01*
X9087713Y-5299608D01*
X9089034Y-5314289D01*
X9092184Y-5328716D01*
X9097111Y-5342636D01*
X9103715Y-5355844D01*
X9111843Y-5368137D01*
X9121444Y-5379364D01*
X9132366Y-5389270D01*
X9144406Y-5397804D01*
X9157411Y-5404815D01*
X9171178Y-5410149D01*
X9185452Y-5413705D01*
G37*
G36*
X5591708Y-5326837D02*
G01*
X5606389Y-5325465D01*
X5620816Y-5322316D01*
X5634736Y-5317388D01*
X5647944Y-5310784D01*
X5660237Y-5302656D01*
X5671464Y-5293055D01*
X5681370Y-5282133D01*
X5689904Y-5270093D01*
X5696915Y-5257088D01*
X5702249Y-5243322D01*
X5705805Y-5229047D01*
X5707634Y-5214366D01*
X5707634Y-5199634D01*
X5705805Y-5184952D01*
X5702249Y-5170678D01*
X5696915Y-5156911D01*
X5689904Y-5143906D01*
X5681370Y-5131866D01*
X5671464Y-5120944D01*
X5660237Y-5111343D01*
X5647944Y-5103215D01*
X5634736Y-5096611D01*
X5620816Y-5091684D01*
X5606389Y-5088534D01*
X5591708Y-5087213D01*
X5576925Y-5087620D01*
X5562346Y-5089906D01*
X5548172Y-5093970D01*
X5534558Y-5099710D01*
X5521807Y-5107076D01*
X5510022Y-5115966D01*
X5499404Y-5126228D01*
X5490159Y-5137759D01*
X5482386Y-5150307D01*
X5476240Y-5163718D01*
X5471769Y-5177739D01*
X5469026Y-5192268D01*
X5468112Y-5207000D01*
X5469026Y-5221732D01*
X5471769Y-5236260D01*
X5476240Y-5250281D01*
X5482386Y-5263692D01*
X5490159Y-5276240D01*
X5499404Y-5287772D01*
X5510022Y-5298033D01*
X5521807Y-5306923D01*
X5534558Y-5314289D01*
X5548172Y-5320030D01*
X5562346Y-5324094D01*
X5576925Y-5326380D01*
G37*
G36*
X4829708Y-5326837D02*
G01*
X4844389Y-5325465D01*
X4858816Y-5322316D01*
X4872736Y-5317388D01*
X4885944Y-5310784D01*
X4898237Y-5302656D01*
X4909464Y-5293055D01*
X4919370Y-5282133D01*
X4927904Y-5270093D01*
X4934915Y-5257088D01*
X4940249Y-5243322D01*
X4943805Y-5229047D01*
X4945634Y-5214366D01*
X4945634Y-5199634D01*
X4943805Y-5184952D01*
X4940249Y-5170678D01*
X4934915Y-5156911D01*
X4927904Y-5143906D01*
X4919370Y-5131866D01*
X4909464Y-5120944D01*
X4898237Y-5111343D01*
X4885944Y-5103215D01*
X4882946Y-5101691D01*
X4879949Y-5099456D01*
X4878019Y-5096256D01*
X4877308Y-5092598D01*
X4877308Y-3526332D01*
X4877917Y-3522878D01*
X4879644Y-3519830D01*
X4882337Y-3517544D01*
X4885639Y-3516325D01*
X4894630Y-3514699D01*
X4909312Y-3510127D01*
X4923332Y-3503777D01*
X4936540Y-3495801D01*
X4948631Y-3486302D01*
X4959502Y-3475431D01*
X4969002Y-3463340D01*
X4976977Y-3450132D01*
X4983327Y-3436112D01*
X4987899Y-3421430D01*
X4990642Y-3406292D01*
X4991608Y-3390900D01*
X4990642Y-3375507D01*
X4987899Y-3360369D01*
X4983327Y-3345687D01*
X4976977Y-3331667D01*
X4969002Y-3318459D01*
X4959502Y-3306368D01*
X4948631Y-3295497D01*
X4936540Y-3285998D01*
X4923332Y-3278022D01*
X4912563Y-3273145D01*
X4909413Y-3270961D01*
X4907330Y-3267710D01*
X4906568Y-3263900D01*
X4907330Y-3260090D01*
X4909413Y-3256838D01*
X4912563Y-3254654D01*
X4923332Y-3249777D01*
X4936540Y-3241802D01*
X4948631Y-3232302D01*
X4959502Y-3221431D01*
X4969002Y-3209340D01*
X4976977Y-3196132D01*
X4983327Y-3182112D01*
X4987899Y-3167430D01*
X4990642Y-3152292D01*
X4991608Y-3136900D01*
X4990642Y-3121507D01*
X4987899Y-3106369D01*
X4983327Y-3091688D01*
X4976977Y-3077667D01*
X4969002Y-3064459D01*
X4959502Y-3052368D01*
X4948631Y-3041497D01*
X4936540Y-3031998D01*
X4923332Y-3024022D01*
X4912563Y-3019145D01*
X4909413Y-3016961D01*
X4907330Y-3013710D01*
X4906721Y-3009138D01*
X4905806Y-3010560D01*
X4902758Y-3012795D01*
X4899101Y-3013760D01*
X4879492Y-3010357D01*
X4863795Y-3009392D01*
X4813604Y-3009392D01*
X4797907Y-3010357D01*
X4778298Y-3013760D01*
X4774641Y-3012795D01*
X4770831Y-3009900D01*
X4770069Y-3013710D01*
X4767986Y-3016961D01*
X4764836Y-3019145D01*
X4754067Y-3024022D01*
X4740859Y-3031998D01*
X4728768Y-3041497D01*
X4717897Y-3052368D01*
X4708398Y-3064459D01*
X4700422Y-3077667D01*
X4694072Y-3091688D01*
X4689500Y-3106369D01*
X4686757Y-3121507D01*
X4685792Y-3136900D01*
X4686757Y-3152292D01*
X4689500Y-3167430D01*
X4694072Y-3182112D01*
X4700422Y-3196132D01*
X4708398Y-3209340D01*
X4717897Y-3221431D01*
X4728768Y-3232302D01*
X4740859Y-3241802D01*
X4754067Y-3249777D01*
X4764836Y-3254654D01*
X4767986Y-3256838D01*
X4770069Y-3260090D01*
X4770831Y-3263900D01*
X4770069Y-3267710D01*
X4767986Y-3270961D01*
X4764836Y-3273145D01*
X4754067Y-3278022D01*
X4740859Y-3285998D01*
X4728768Y-3295497D01*
X4717897Y-3306368D01*
X4708398Y-3318459D01*
X4700422Y-3331667D01*
X4694072Y-3345687D01*
X4689500Y-3360369D01*
X4686757Y-3375507D01*
X4685792Y-3390900D01*
X4686757Y-3406292D01*
X4689500Y-3421430D01*
X4694072Y-3436112D01*
X4700422Y-3450132D01*
X4708398Y-3463340D01*
X4717897Y-3475431D01*
X4728768Y-3486302D01*
X4740859Y-3495801D01*
X4754067Y-3503777D01*
X4768088Y-3510127D01*
X4782769Y-3514699D01*
X4791760Y-3516325D01*
X4795062Y-3517544D01*
X4797755Y-3519830D01*
X4799482Y-3522878D01*
X4800092Y-3526332D01*
X4800092Y-5082286D01*
X4799177Y-5086553D01*
X4796536Y-5090007D01*
X4792726Y-5092090D01*
X4786172Y-5093970D01*
X4772558Y-5099710D01*
X4759807Y-5107076D01*
X4748022Y-5115966D01*
X4737404Y-5126228D01*
X4728159Y-5137759D01*
X4720386Y-5150307D01*
X4714240Y-5163718D01*
X4709769Y-5177739D01*
X4707026Y-5192268D01*
X4706112Y-5207000D01*
X4707026Y-5221732D01*
X4709769Y-5236260D01*
X4714240Y-5250281D01*
X4720386Y-5263692D01*
X4728159Y-5276240D01*
X4737404Y-5287772D01*
X4748022Y-5298033D01*
X4759807Y-5306923D01*
X4772558Y-5314289D01*
X4786172Y-5320030D01*
X4800346Y-5324094D01*
X4814925Y-5326380D01*
G37*
G36*
X6385560Y-5303469D02*
G01*
X6484975Y-5303469D01*
X6484975Y-5218328D01*
X6471920Y-5223154D01*
X6455918Y-5231028D01*
X6440830Y-5240426D01*
X6426708Y-5251348D01*
X6413804Y-5263591D01*
X6402222Y-5277154D01*
X6392011Y-5291734D01*
G37*
G36*
X6697675Y-5303469D02*
G01*
X6797040Y-5303469D01*
X6790588Y-5291734D01*
X6780377Y-5277154D01*
X6768795Y-5263591D01*
X6755892Y-5251348D01*
X6741769Y-5240426D01*
X6726681Y-5231028D01*
X6710680Y-5223154D01*
X6697675Y-5218328D01*
G37*
G36*
X8548928Y-5257038D02*
G01*
X8748471Y-5257038D01*
X8754770Y-5256326D01*
X8760256Y-5254396D01*
X8765133Y-5251348D01*
X8769248Y-5247233D01*
X8772296Y-5242356D01*
X8774226Y-5236870D01*
X8774938Y-5230571D01*
X8774938Y-5132628D01*
X8774226Y-5126329D01*
X8772499Y-5121452D01*
X8771940Y-5118100D01*
X8772499Y-5114747D01*
X8774226Y-5109870D01*
X8774938Y-5103571D01*
X8774938Y-5005628D01*
X8774226Y-4999329D01*
X8772499Y-4994452D01*
X8771940Y-4991100D01*
X8772499Y-4987747D01*
X8774226Y-4982870D01*
X8774938Y-4976571D01*
X8774938Y-4958740D01*
X8705240Y-4958740D01*
X8705240Y-4969002D01*
X8704427Y-4972913D01*
X8702243Y-4976164D01*
X8698941Y-4978400D01*
X8695080Y-4979162D01*
X8602370Y-4979162D01*
X8598458Y-4978400D01*
X8595156Y-4976164D01*
X8592972Y-4972913D01*
X8592210Y-4969002D01*
X8592210Y-4958740D01*
X8522462Y-4958740D01*
X8522462Y-4976571D01*
X8523173Y-4982870D01*
X8524900Y-4987747D01*
X8525459Y-4991100D01*
X8524900Y-4994452D01*
X8523173Y-4999329D01*
X8522462Y-5005628D01*
X8522462Y-5103571D01*
X8523173Y-5109870D01*
X8524900Y-5114747D01*
X8525459Y-5118100D01*
X8524900Y-5121452D01*
X8523173Y-5126329D01*
X8522462Y-5132628D01*
X8522462Y-5230571D01*
X8523173Y-5236870D01*
X8525103Y-5242356D01*
X8528151Y-5247233D01*
X8532266Y-5251348D01*
X8537143Y-5254396D01*
X8542629Y-5256326D01*
G37*
G36*
X7815834Y-5174234D02*
G01*
X7830566Y-5174234D01*
X7845247Y-5172405D01*
X7859522Y-5168849D01*
X7873288Y-5163515D01*
X7886293Y-5156504D01*
X7898333Y-5147970D01*
X7909255Y-5138064D01*
X7918856Y-5126837D01*
X7926984Y-5114544D01*
X7933588Y-5101336D01*
X7938516Y-5087416D01*
X7941665Y-5072989D01*
X7943037Y-5058308D01*
X7942580Y-5043525D01*
X7940294Y-5028946D01*
X7936230Y-5014772D01*
X7930489Y-5001158D01*
X7923123Y-4988407D01*
X7914233Y-4976622D01*
X7903972Y-4966004D01*
X7892440Y-4956759D01*
X7879892Y-4948986D01*
X7866481Y-4942840D01*
X7852460Y-4938369D01*
X7837931Y-4935626D01*
X7823200Y-4934712D01*
X7808468Y-4935626D01*
X7793939Y-4938369D01*
X7779918Y-4942840D01*
X7766507Y-4948986D01*
X7753959Y-4956759D01*
X7742428Y-4966004D01*
X7732166Y-4976622D01*
X7723276Y-4988407D01*
X7715910Y-5001158D01*
X7710170Y-5014772D01*
X7706106Y-5028946D01*
X7703820Y-5043525D01*
X7703413Y-5058308D01*
X7704734Y-5072989D01*
X7707884Y-5087416D01*
X7712811Y-5101336D01*
X7719415Y-5114544D01*
X7727543Y-5126837D01*
X7737144Y-5138064D01*
X7748066Y-5147970D01*
X7760106Y-5156504D01*
X7773111Y-5163515D01*
X7786878Y-5168849D01*
X7801152Y-5172405D01*
G37*
G36*
X10834928Y-5003038D02*
G01*
X11034471Y-5003038D01*
X11040770Y-5002326D01*
X11046256Y-5000396D01*
X11051133Y-4997348D01*
X11055248Y-4993233D01*
X11058296Y-4988356D01*
X11060226Y-4982921D01*
X11060988Y-4975352D01*
X11062055Y-4971745D01*
X11064290Y-4968849D01*
X11067440Y-4966868D01*
X11071098Y-4966208D01*
X11531092Y-4966208D01*
X11539118Y-4965395D01*
X11546332Y-4963210D01*
X11553037Y-4959654D01*
X11559235Y-4954524D01*
X11837924Y-4675835D01*
X11843054Y-4669637D01*
X11846610Y-4662932D01*
X11848795Y-4655718D01*
X11849608Y-4647692D01*
X11849608Y-3676294D01*
X11850420Y-3672332D01*
X11852706Y-3669029D01*
X11856110Y-3666845D01*
X11861088Y-3664915D01*
X11874093Y-3657904D01*
X11886133Y-3649370D01*
X11897055Y-3639464D01*
X11906656Y-3628237D01*
X11914784Y-3615944D01*
X11921388Y-3602736D01*
X11926316Y-3588816D01*
X11929465Y-3574389D01*
X11930837Y-3559708D01*
X11930380Y-3544925D01*
X11928094Y-3530346D01*
X11924030Y-3516172D01*
X11918289Y-3502558D01*
X11910923Y-3489807D01*
X11902033Y-3478022D01*
X11891772Y-3467404D01*
X11880240Y-3458159D01*
X11867692Y-3450386D01*
X11854281Y-3444240D01*
X11840260Y-3439769D01*
X11825732Y-3437026D01*
X11811000Y-3436112D01*
X11796268Y-3437026D01*
X11781739Y-3439769D01*
X11767718Y-3444240D01*
X11754307Y-3450386D01*
X11741759Y-3458159D01*
X11730228Y-3467404D01*
X11719966Y-3478022D01*
X11711076Y-3489807D01*
X11703710Y-3502558D01*
X11697970Y-3516172D01*
X11693906Y-3530346D01*
X11691620Y-3544925D01*
X11691213Y-3559708D01*
X11692534Y-3574389D01*
X11695684Y-3588816D01*
X11700611Y-3602736D01*
X11707215Y-3615944D01*
X11715343Y-3628237D01*
X11724944Y-3639464D01*
X11735866Y-3649370D01*
X11747906Y-3657904D01*
X11760911Y-3664915D01*
X11765889Y-3666845D01*
X11769293Y-3669029D01*
X11771579Y-3672332D01*
X11772392Y-3676294D01*
X11772392Y-4627981D01*
X11771630Y-4631893D01*
X11769394Y-4635195D01*
X11518595Y-4885994D01*
X11515293Y-4888230D01*
X11511381Y-4888992D01*
X11071098Y-4888992D01*
X11067440Y-4888331D01*
X11064290Y-4886350D01*
X11062055Y-4883454D01*
X11060988Y-4879848D01*
X11060226Y-4872278D01*
X11058499Y-4867452D01*
X11057940Y-4864100D01*
X11058499Y-4860747D01*
X11060226Y-4855870D01*
X11060938Y-4849571D01*
X11060938Y-4751628D01*
X11060226Y-4745329D01*
X11058499Y-4740452D01*
X11057940Y-4737100D01*
X11058499Y-4733747D01*
X11060226Y-4728870D01*
X11060938Y-4722571D01*
X11060938Y-4704740D01*
X10991240Y-4704740D01*
X10991240Y-4715002D01*
X10990427Y-4718913D01*
X10988243Y-4722164D01*
X10984941Y-4724400D01*
X10981080Y-4725162D01*
X10888370Y-4725162D01*
X10884458Y-4724400D01*
X10881156Y-4722164D01*
X10878972Y-4718913D01*
X10878210Y-4715002D01*
X10878210Y-4704740D01*
X10808462Y-4704740D01*
X10808462Y-4722571D01*
X10809173Y-4728870D01*
X10810900Y-4733747D01*
X10811459Y-4737100D01*
X10810900Y-4740452D01*
X10809173Y-4745278D01*
X10808411Y-4752848D01*
X10807344Y-4756454D01*
X10805109Y-4759350D01*
X10801959Y-4761331D01*
X10798302Y-4761992D01*
X10299801Y-4761992D01*
X10296296Y-4761382D01*
X10293248Y-4759604D01*
X10291013Y-4756912D01*
X10285323Y-4747107D01*
X10276433Y-4735322D01*
X10266172Y-4724704D01*
X10254640Y-4715459D01*
X10242092Y-4707686D01*
X10228681Y-4701540D01*
X10214660Y-4697069D01*
X10200132Y-4694326D01*
X10185400Y-4693412D01*
X10170668Y-4694326D01*
X10156139Y-4697069D01*
X10142118Y-4701540D01*
X10128707Y-4707686D01*
X10116159Y-4715459D01*
X10104628Y-4724704D01*
X10094366Y-4735322D01*
X10085476Y-4747107D01*
X10078110Y-4759858D01*
X10072370Y-4773472D01*
X10068306Y-4787646D01*
X10066020Y-4802225D01*
X10065613Y-4817008D01*
X10066934Y-4831689D01*
X10070084Y-4846116D01*
X10075011Y-4860036D01*
X10081615Y-4873244D01*
X10089743Y-4885537D01*
X10099344Y-4896764D01*
X10110266Y-4906670D01*
X10122306Y-4915204D01*
X10135311Y-4922215D01*
X10149078Y-4927549D01*
X10163352Y-4931105D01*
X10178034Y-4932934D01*
X10192766Y-4932934D01*
X10207447Y-4931105D01*
X10221722Y-4927549D01*
X10235488Y-4922215D01*
X10248493Y-4915204D01*
X10260533Y-4906670D01*
X10271455Y-4896764D01*
X10281056Y-4885537D01*
X10289184Y-4873244D01*
X10295788Y-4860036D01*
X10300716Y-4846015D01*
X10302900Y-4842459D01*
X10306253Y-4840071D01*
X10310317Y-4839208D01*
X10798302Y-4839208D01*
X10801959Y-4839868D01*
X10805109Y-4841849D01*
X10807344Y-4844745D01*
X10808411Y-4848352D01*
X10809173Y-4855921D01*
X10810900Y-4860747D01*
X10811459Y-4864100D01*
X10810900Y-4867452D01*
X10809173Y-4872329D01*
X10808462Y-4878628D01*
X10808462Y-4976571D01*
X10809173Y-4982870D01*
X10811103Y-4988356D01*
X10814151Y-4993233D01*
X10818266Y-4997348D01*
X10823143Y-5000396D01*
X10828629Y-5002326D01*
G37*
G36*
X8705240Y-4896510D02*
G01*
X8774938Y-4896510D01*
X8774938Y-4878628D01*
X8774226Y-4872329D01*
X8772296Y-4866843D01*
X8769248Y-4861966D01*
X8765133Y-4857851D01*
X8760256Y-4854803D01*
X8754770Y-4852873D01*
X8748471Y-4852162D01*
X8705240Y-4852162D01*
G37*
G36*
X8522462Y-4896510D02*
G01*
X8592210Y-4896510D01*
X8592210Y-4852162D01*
X8548928Y-4852162D01*
X8542629Y-4852873D01*
X8537143Y-4854803D01*
X8532266Y-4857851D01*
X8528151Y-4861966D01*
X8525103Y-4866843D01*
X8523173Y-4872329D01*
X8522462Y-4878628D01*
G37*
G36*
X5860034Y-4856734D02*
G01*
X5874766Y-4856734D01*
X5889447Y-4854905D01*
X5903722Y-4851349D01*
X5917488Y-4846015D01*
X5930493Y-4839004D01*
X5942533Y-4830470D01*
X5953455Y-4820564D01*
X5963056Y-4809337D01*
X5971184Y-4797044D01*
X5977788Y-4783836D01*
X5982716Y-4769916D01*
X5985865Y-4755489D01*
X5987237Y-4740808D01*
X5986780Y-4726025D01*
X5984494Y-4711446D01*
X5980430Y-4697272D01*
X5977585Y-4690465D01*
X5976772Y-4686554D01*
X5977534Y-4682642D01*
X5979769Y-4679340D01*
X6131864Y-4527245D01*
X6135166Y-4525010D01*
X6139078Y-4524248D01*
X6263081Y-4524248D01*
X6269380Y-4523536D01*
X6274866Y-4521606D01*
X6279743Y-4518558D01*
X6283858Y-4514443D01*
X6286906Y-4509566D01*
X6288836Y-4504080D01*
X6289548Y-4497781D01*
X6289548Y-4341418D01*
X6288836Y-4335119D01*
X6286906Y-4329633D01*
X6283858Y-4324756D01*
X6279743Y-4320641D01*
X6274866Y-4317593D01*
X6269380Y-4315663D01*
X6263081Y-4314952D01*
X6106718Y-4314952D01*
X6100419Y-4315663D01*
X6094933Y-4317593D01*
X6090056Y-4320641D01*
X6085941Y-4324756D01*
X6082893Y-4329633D01*
X6080963Y-4335119D01*
X6080252Y-4341418D01*
X6080252Y-4465421D01*
X6079490Y-4469333D01*
X6077254Y-4472635D01*
X5925210Y-4624679D01*
X5921806Y-4626965D01*
X5917742Y-4627676D01*
X5913780Y-4626762D01*
X5910681Y-4625340D01*
X5896660Y-4620869D01*
X5882132Y-4618126D01*
X5867400Y-4617212D01*
X5852668Y-4618126D01*
X5838139Y-4620869D01*
X5824118Y-4625340D01*
X5810707Y-4631486D01*
X5798159Y-4639259D01*
X5786628Y-4648504D01*
X5776366Y-4659122D01*
X5767476Y-4670907D01*
X5760110Y-4683658D01*
X5754370Y-4697272D01*
X5750306Y-4711446D01*
X5748020Y-4726025D01*
X5747613Y-4740808D01*
X5748934Y-4755489D01*
X5752084Y-4769916D01*
X5757011Y-4783836D01*
X5763615Y-4797044D01*
X5771743Y-4809337D01*
X5781344Y-4820564D01*
X5792266Y-4830470D01*
X5804306Y-4839004D01*
X5817311Y-4846015D01*
X5831078Y-4851349D01*
X5845352Y-4854905D01*
G37*
G36*
X2476601Y-4800295D02*
G01*
X4574641Y-4800244D01*
X4583480Y-4799431D01*
X4585919Y-4799025D01*
X4594555Y-4796891D01*
X4596892Y-4796129D01*
X4603902Y-4793183D01*
X4606442Y-4792472D01*
X4609084Y-4792472D01*
X4615434Y-4793234D01*
X4630166Y-4793234D01*
X4644847Y-4791405D01*
X4659122Y-4787849D01*
X4672888Y-4782515D01*
X4685893Y-4775504D01*
X4697933Y-4766970D01*
X4708855Y-4757064D01*
X4718456Y-4745837D01*
X4726584Y-4733544D01*
X4733188Y-4720336D01*
X4738116Y-4706416D01*
X4741265Y-4691989D01*
X4742586Y-4677308D01*
X4742180Y-4662525D01*
X4739894Y-4647946D01*
X4735830Y-4633772D01*
X4730089Y-4620158D01*
X4722723Y-4607407D01*
X4713833Y-4595622D01*
X4703572Y-4585004D01*
X4692040Y-4575759D01*
X4679492Y-4567986D01*
X4666081Y-4561840D01*
X4652060Y-4557369D01*
X4637532Y-4554626D01*
X4622800Y-4553712D01*
X4608068Y-4554626D01*
X4593539Y-4557369D01*
X4579518Y-4561840D01*
X4566107Y-4567986D01*
X4553559Y-4575759D01*
X4542028Y-4585004D01*
X4531766Y-4595622D01*
X4522876Y-4607407D01*
X4515510Y-4620158D01*
X4509770Y-4633772D01*
X4507636Y-4641088D01*
X4505604Y-4644948D01*
X4502150Y-4647539D01*
X4497882Y-4648504D01*
X2512161Y-4648504D01*
X2508250Y-4647742D01*
X2504948Y-4645507D01*
X2323338Y-4463897D01*
X2321509Y-4461408D01*
X2320493Y-4458462D01*
X2320442Y-4455414D01*
X2321661Y-4445863D01*
X2322118Y-4427778D01*
X2320747Y-4409694D01*
X2317496Y-4391914D01*
X2312416Y-4374489D01*
X2305608Y-4357725D01*
X2297074Y-4341774D01*
X2286965Y-4326737D01*
X2275382Y-4312818D01*
X2262428Y-4300169D01*
X2248204Y-4288942D01*
X2232914Y-4279239D01*
X2216759Y-4271111D01*
X2199792Y-4264761D01*
X2182266Y-4260138D01*
X2164384Y-4257344D01*
X2146300Y-4256430D01*
X2128215Y-4257344D01*
X2110333Y-4260138D01*
X2092807Y-4264761D01*
X2075840Y-4271111D01*
X2059686Y-4279239D01*
X2044395Y-4288942D01*
X2030171Y-4300169D01*
X2017217Y-4312818D01*
X2005634Y-4326737D01*
X1995525Y-4341774D01*
X1986991Y-4357725D01*
X1980184Y-4374489D01*
X1975104Y-4391914D01*
X1971852Y-4409694D01*
X1970481Y-4427778D01*
X1970938Y-4445863D01*
X1973275Y-4463846D01*
X1977389Y-4481474D01*
X1983384Y-4498543D01*
X1991055Y-4514951D01*
X2000351Y-4530496D01*
X2011222Y-4544974D01*
X2023516Y-4558284D01*
X2037130Y-4570222D01*
X2051913Y-4580737D01*
X2067661Y-4589627D01*
X2084273Y-4596892D01*
X2101494Y-4602378D01*
X2119223Y-4606086D01*
X2137257Y-4607966D01*
X2155342Y-4607966D01*
X2173376Y-4606086D01*
X2191105Y-4602378D01*
X2208326Y-4596892D01*
X2225141Y-4589526D01*
X2229104Y-4588713D01*
X2233066Y-4589424D01*
X2236419Y-4591659D01*
X2424734Y-4779924D01*
X2433574Y-4786985D01*
X2441194Y-4791608D01*
X2443378Y-4792726D01*
X2451608Y-4796129D01*
X2453944Y-4796891D01*
X2462580Y-4799025D01*
X2465019Y-4799431D01*
X2473858Y-4800244D01*
G37*
G36*
X7030008Y-4769358D02*
G01*
X7168591Y-4769358D01*
X7174890Y-4768646D01*
X7180376Y-4766716D01*
X7185253Y-4763668D01*
X7189368Y-4759553D01*
X7192416Y-4754676D01*
X7194346Y-4749190D01*
X7195058Y-4742891D01*
X7195058Y-4604308D01*
X7194346Y-4598009D01*
X7192416Y-4592523D01*
X7189368Y-4587646D01*
X7185253Y-4583531D01*
X7180376Y-4580483D01*
X7174890Y-4578553D01*
X7168591Y-4577842D01*
X7030008Y-4577842D01*
X7023709Y-4578553D01*
X7018223Y-4580483D01*
X7013346Y-4583531D01*
X7009231Y-4587646D01*
X7006183Y-4592523D01*
X7004253Y-4598009D01*
X7003542Y-4604308D01*
X7003542Y-4742891D01*
X7004253Y-4749190D01*
X7006183Y-4754676D01*
X7009231Y-4759553D01*
X7013346Y-4763668D01*
X7018223Y-4766716D01*
X7023709Y-4768646D01*
G37*
G36*
X7346746Y-4769104D02*
G01*
X7359853Y-4769104D01*
X7372756Y-4767326D01*
X7385354Y-4763820D01*
X7397343Y-4758588D01*
X7408519Y-4751832D01*
X7418628Y-4743551D01*
X7427569Y-4734001D01*
X7435088Y-4723333D01*
X7441133Y-4711750D01*
X7445502Y-4699406D01*
X7448143Y-4686655D01*
X7449058Y-4673600D01*
X7448143Y-4660544D01*
X7445502Y-4647793D01*
X7441133Y-4635449D01*
X7435088Y-4623866D01*
X7427569Y-4613198D01*
X7418628Y-4603648D01*
X7408519Y-4595368D01*
X7397343Y-4588611D01*
X7385354Y-4583379D01*
X7372756Y-4579874D01*
X7359853Y-4578096D01*
X7346746Y-4578096D01*
X7333843Y-4579874D01*
X7321245Y-4583379D01*
X7309256Y-4588611D01*
X7298080Y-4595368D01*
X7287971Y-4603648D01*
X7279030Y-4613198D01*
X7271512Y-4623866D01*
X7265466Y-4635449D01*
X7261098Y-4647793D01*
X7258456Y-4660544D01*
X7257542Y-4673600D01*
X7258456Y-4686655D01*
X7261098Y-4699406D01*
X7265466Y-4711750D01*
X7271512Y-4723333D01*
X7279030Y-4734001D01*
X7287971Y-4743551D01*
X7298080Y-4751832D01*
X7309256Y-4758588D01*
X7321245Y-4763820D01*
X7333843Y-4767326D01*
G37*
G36*
X7600746Y-4769104D02*
G01*
X7613853Y-4769104D01*
X7626756Y-4767326D01*
X7639354Y-4763820D01*
X7651343Y-4758588D01*
X7662519Y-4751832D01*
X7672628Y-4743551D01*
X7681569Y-4734001D01*
X7689088Y-4723333D01*
X7695133Y-4711750D01*
X7699502Y-4699406D01*
X7702143Y-4686655D01*
X7703058Y-4673600D01*
X7702143Y-4660544D01*
X7699502Y-4647793D01*
X7695133Y-4635449D01*
X7689088Y-4623866D01*
X7681569Y-4613198D01*
X7672628Y-4603648D01*
X7662519Y-4595368D01*
X7651343Y-4588611D01*
X7639354Y-4583379D01*
X7626756Y-4579874D01*
X7613853Y-4578096D01*
X7600746Y-4578096D01*
X7587843Y-4579874D01*
X7575245Y-4583379D01*
X7563256Y-4588611D01*
X7552080Y-4595368D01*
X7541971Y-4603648D01*
X7533030Y-4613198D01*
X7525512Y-4623866D01*
X7519466Y-4635449D01*
X7515098Y-4647793D01*
X7512456Y-4660544D01*
X7511542Y-4673600D01*
X7512456Y-4686655D01*
X7515098Y-4699406D01*
X7519466Y-4711750D01*
X7525512Y-4723333D01*
X7533030Y-4734001D01*
X7541971Y-4743551D01*
X7552080Y-4751832D01*
X7563256Y-4758588D01*
X7575245Y-4763820D01*
X7587843Y-4767326D01*
G37*
G36*
X7854746Y-4769104D02*
G01*
X7867853Y-4769104D01*
X7880756Y-4767326D01*
X7893354Y-4763820D01*
X7905343Y-4758588D01*
X7916519Y-4751832D01*
X7926628Y-4743551D01*
X7935569Y-4734001D01*
X7943088Y-4723333D01*
X7949133Y-4711750D01*
X7953502Y-4699406D01*
X7956143Y-4686655D01*
X7957058Y-4673600D01*
X7956143Y-4660544D01*
X7953502Y-4647793D01*
X7949133Y-4635449D01*
X7943088Y-4623866D01*
X7935569Y-4613198D01*
X7926628Y-4603648D01*
X7916519Y-4595368D01*
X7905343Y-4588611D01*
X7893354Y-4583379D01*
X7880756Y-4579874D01*
X7867853Y-4578096D01*
X7854746Y-4578096D01*
X7841843Y-4579874D01*
X7829245Y-4583379D01*
X7817256Y-4588611D01*
X7806080Y-4595368D01*
X7795971Y-4603648D01*
X7787030Y-4613198D01*
X7779512Y-4623866D01*
X7773466Y-4635449D01*
X7769098Y-4647793D01*
X7766456Y-4660544D01*
X7765542Y-4673600D01*
X7766456Y-4686655D01*
X7769098Y-4699406D01*
X7773466Y-4711750D01*
X7779512Y-4723333D01*
X7787030Y-4734001D01*
X7795971Y-4743551D01*
X7806080Y-4751832D01*
X7817256Y-4758588D01*
X7829245Y-4763820D01*
X7841843Y-4767326D01*
G37*
G36*
X8582050Y-4759807D02*
G01*
X8582050Y-4714900D01*
X8537092Y-4714900D01*
X8541512Y-4723333D01*
X8549030Y-4734001D01*
X8557971Y-4743551D01*
X8568080Y-4751832D01*
X8579256Y-4758588D01*
G37*
G36*
X8664600Y-4759807D02*
G01*
X8667343Y-4758588D01*
X8678519Y-4751832D01*
X8688628Y-4743551D01*
X8697569Y-4734001D01*
X8705088Y-4723333D01*
X8709507Y-4714900D01*
X8664600Y-4714900D01*
G37*
G36*
X9200134Y-4653534D02*
G01*
X9214866Y-4653534D01*
X9229547Y-4651705D01*
X9243822Y-4648149D01*
X9257588Y-4642815D01*
X9270593Y-4635804D01*
X9282633Y-4627270D01*
X9293555Y-4617364D01*
X9303156Y-4606137D01*
X9311284Y-4593844D01*
X9317888Y-4580636D01*
X9322816Y-4566716D01*
X9325965Y-4552289D01*
X9327337Y-4537608D01*
X9326880Y-4522825D01*
X9324594Y-4508246D01*
X9320530Y-4494072D01*
X9314789Y-4480458D01*
X9307423Y-4467707D01*
X9298533Y-4455922D01*
X9288272Y-4445304D01*
X9276740Y-4436059D01*
X9264192Y-4428286D01*
X9258350Y-4425594D01*
X9255252Y-4423359D01*
X9253169Y-4420158D01*
X9252458Y-4416399D01*
X9252458Y-4250182D01*
X9253220Y-4246270D01*
X9255455Y-4242917D01*
X9258808Y-4240733D01*
X9271406Y-4235653D01*
X9285274Y-4227982D01*
X9298178Y-4218736D01*
X9309862Y-4208018D01*
X9320225Y-4196029D01*
X9329115Y-4182872D01*
X9336328Y-4168749D01*
X9341866Y-4153865D01*
X9345574Y-4138472D01*
X9347454Y-4122724D01*
X9347454Y-4106875D01*
X9345574Y-4091127D01*
X9341866Y-4075734D01*
X9336328Y-4060850D01*
X9329115Y-4046728D01*
X9320225Y-4033570D01*
X9309862Y-4021582D01*
X9298178Y-4010863D01*
X9285274Y-4001617D01*
X9271406Y-3993946D01*
X9256725Y-3988003D01*
X9241434Y-3983837D01*
X9225737Y-3981500D01*
X9209887Y-3981043D01*
X9194088Y-3982415D01*
X9178594Y-3985717D01*
X9163558Y-3990797D01*
X9149232Y-3997604D01*
X9135821Y-4006037D01*
X9123527Y-4016044D01*
X9112453Y-4027424D01*
X9102852Y-4040022D01*
X9094774Y-4053687D01*
X9088374Y-4068216D01*
X9083751Y-4083354D01*
X9080957Y-4098950D01*
X9079992Y-4114800D01*
X9080957Y-4130649D01*
X9083751Y-4146245D01*
X9088374Y-4161383D01*
X9094774Y-4175912D01*
X9102852Y-4189577D01*
X9112453Y-4202176D01*
X9123527Y-4213555D01*
X9135821Y-4223562D01*
X9149232Y-4231995D01*
X9163558Y-4238853D01*
X9168333Y-4240428D01*
X9171940Y-4242562D01*
X9174378Y-4245965D01*
X9175242Y-4250080D01*
X9175242Y-4411167D01*
X9174378Y-4415332D01*
X9171838Y-4418736D01*
X9168180Y-4420870D01*
X9164218Y-4422140D01*
X9150807Y-4428286D01*
X9138259Y-4436059D01*
X9126728Y-4445304D01*
X9116466Y-4455922D01*
X9107576Y-4467707D01*
X9100210Y-4480458D01*
X9094470Y-4494072D01*
X9090406Y-4508246D01*
X9088120Y-4522825D01*
X9087713Y-4537608D01*
X9089034Y-4552289D01*
X9092184Y-4566716D01*
X9097111Y-4580636D01*
X9103715Y-4593844D01*
X9111843Y-4606137D01*
X9121444Y-4617364D01*
X9132366Y-4627270D01*
X9144406Y-4635804D01*
X9157411Y-4642815D01*
X9171178Y-4648149D01*
X9185452Y-4651705D01*
G37*
G36*
X10991240Y-4642510D02*
G01*
X11060938Y-4642510D01*
X11060938Y-4624628D01*
X11060226Y-4618329D01*
X11058296Y-4612843D01*
X11055248Y-4607966D01*
X11051133Y-4603851D01*
X11046256Y-4600803D01*
X11040770Y-4598873D01*
X11034471Y-4598162D01*
X10991240Y-4598162D01*
G37*
G36*
X10808462Y-4642510D02*
G01*
X10878210Y-4642510D01*
X10878210Y-4598162D01*
X10834928Y-4598162D01*
X10828629Y-4598873D01*
X10823143Y-4600803D01*
X10818266Y-4603851D01*
X10814151Y-4607966D01*
X10811103Y-4612843D01*
X10809173Y-4618329D01*
X10808462Y-4624628D01*
G37*
G36*
X8664600Y-4632350D02*
G01*
X8709507Y-4632350D01*
X8705088Y-4623866D01*
X8697569Y-4613198D01*
X8688628Y-4603648D01*
X8678519Y-4595368D01*
X8667343Y-4588611D01*
X8664600Y-4587392D01*
G37*
G36*
X8537092Y-4632350D02*
G01*
X8582050Y-4632350D01*
X8582050Y-4587392D01*
X8579256Y-4588611D01*
X8568080Y-4595368D01*
X8557971Y-4603648D01*
X8549030Y-4613198D01*
X8541512Y-4623866D01*
G37*
G36*
X6649720Y-4536948D02*
G01*
X6682181Y-4536948D01*
X6688480Y-4536236D01*
X6693966Y-4534306D01*
X6698843Y-4531258D01*
X6702958Y-4527143D01*
X6706006Y-4522266D01*
X6707936Y-4516780D01*
X6708648Y-4510481D01*
X6708648Y-4478020D01*
X6649720Y-4478020D01*
G37*
G36*
X6525818Y-4536948D02*
G01*
X6558280Y-4536948D01*
X6558280Y-4478020D01*
X6499352Y-4478020D01*
X6499352Y-4510481D01*
X6500063Y-4516780D01*
X6501993Y-4522266D01*
X6505041Y-4527143D01*
X6509156Y-4531258D01*
X6514033Y-4534306D01*
X6519519Y-4536236D01*
G37*
G36*
X6649720Y-4386580D02*
G01*
X6708648Y-4386580D01*
X6708648Y-4354118D01*
X6707936Y-4347819D01*
X6706006Y-4342333D01*
X6702958Y-4337456D01*
X6698843Y-4333341D01*
X6693966Y-4330293D01*
X6688480Y-4328363D01*
X6682181Y-4327652D01*
X6649720Y-4327652D01*
G37*
G36*
X6499352Y-4386580D02*
G01*
X6558280Y-4386580D01*
X6558280Y-4327652D01*
X6525818Y-4327652D01*
X6519519Y-4328363D01*
X6514033Y-4330293D01*
X6509156Y-4333341D01*
X6505041Y-4337456D01*
X6501993Y-4342333D01*
X6500063Y-4347819D01*
X6499352Y-4354118D01*
G37*
G36*
X6604000Y-4282948D02*
G01*
X6617665Y-4282033D01*
X6631076Y-4279341D01*
X6644030Y-4274972D01*
X6656324Y-4268927D01*
X6667703Y-4261307D01*
X6677964Y-4252264D01*
X6687007Y-4242003D01*
X6694627Y-4230624D01*
X6700672Y-4218330D01*
X6705041Y-4205376D01*
X6707733Y-4191965D01*
X6708648Y-4178300D01*
X6707733Y-4164634D01*
X6705041Y-4151223D01*
X6702196Y-4142740D01*
X6701637Y-4139031D01*
X6702501Y-4135374D01*
X6704634Y-4132275D01*
X6883704Y-3953205D01*
X6887006Y-3950970D01*
X6890918Y-3950208D01*
X7005574Y-3950208D01*
X7009180Y-3950868D01*
X7012330Y-3952798D01*
X7014565Y-3955694D01*
X7017512Y-3961333D01*
X7025030Y-3972001D01*
X7033971Y-3981551D01*
X7044080Y-3989832D01*
X7055256Y-3996588D01*
X7067245Y-4001820D01*
X7079843Y-4005326D01*
X7092746Y-4007104D01*
X7105853Y-4007104D01*
X7118756Y-4005326D01*
X7131354Y-4001820D01*
X7143343Y-3996588D01*
X7154519Y-3989832D01*
X7164628Y-3981551D01*
X7173569Y-3972001D01*
X7181088Y-3961333D01*
X7187133Y-3949750D01*
X7191502Y-3937406D01*
X7194143Y-3924655D01*
X7195058Y-3911600D01*
X7194143Y-3898544D01*
X7191502Y-3885793D01*
X7187133Y-3873449D01*
X7181088Y-3861866D01*
X7173569Y-3851198D01*
X7164628Y-3841648D01*
X7154519Y-3833368D01*
X7143343Y-3826611D01*
X7131354Y-3821379D01*
X7118756Y-3817874D01*
X7105853Y-3816096D01*
X7092746Y-3816096D01*
X7079843Y-3817874D01*
X7067245Y-3821379D01*
X7055256Y-3826611D01*
X7044080Y-3833368D01*
X7033971Y-3841648D01*
X7025030Y-3851198D01*
X7017512Y-3861866D01*
X7014565Y-3867505D01*
X7012330Y-3870401D01*
X7009180Y-3872331D01*
X7005574Y-3872992D01*
X6871208Y-3872992D01*
X6863181Y-3873804D01*
X6855968Y-3875989D01*
X6849262Y-3879545D01*
X6843064Y-3884676D01*
X6650024Y-4077665D01*
X6646925Y-4079798D01*
X6643268Y-4080662D01*
X6639559Y-4080103D01*
X6631076Y-4077258D01*
X6617665Y-4074566D01*
X6604000Y-4073651D01*
X6590334Y-4074566D01*
X6576923Y-4077258D01*
X6563969Y-4081627D01*
X6551676Y-4087672D01*
X6540296Y-4095292D01*
X6530035Y-4104335D01*
X6520992Y-4114596D01*
X6513372Y-4125976D01*
X6507327Y-4138269D01*
X6502958Y-4151223D01*
X6500266Y-4164634D01*
X6499352Y-4178300D01*
X6500266Y-4191965D01*
X6502958Y-4205376D01*
X6507327Y-4218330D01*
X6513372Y-4230624D01*
X6520992Y-4242003D01*
X6530035Y-4252264D01*
X6540296Y-4261307D01*
X6551676Y-4268927D01*
X6563969Y-4274972D01*
X6576923Y-4279341D01*
X6590334Y-4282033D01*
G37*
G36*
X6184900Y-4270248D02*
G01*
X6198565Y-4269333D01*
X6211976Y-4266641D01*
X6224930Y-4262272D01*
X6237224Y-4256227D01*
X6248603Y-4248607D01*
X6258864Y-4239564D01*
X6267907Y-4229303D01*
X6275527Y-4217924D01*
X6281572Y-4205630D01*
X6285941Y-4192676D01*
X6288633Y-4179265D01*
X6289548Y-4165600D01*
X6288633Y-4151934D01*
X6285941Y-4138523D01*
X6281572Y-4125569D01*
X6275527Y-4113276D01*
X6267907Y-4101896D01*
X6258864Y-4091635D01*
X6248603Y-4082592D01*
X6237224Y-4074972D01*
X6224930Y-4068927D01*
X6211976Y-4064558D01*
X6198565Y-4061866D01*
X6184900Y-4060951D01*
X6171234Y-4061866D01*
X6157823Y-4064558D01*
X6144869Y-4068927D01*
X6132576Y-4074972D01*
X6121196Y-4082592D01*
X6110935Y-4091635D01*
X6101892Y-4101896D01*
X6094272Y-4113276D01*
X6088227Y-4125569D01*
X6083858Y-4138523D01*
X6081166Y-4151934D01*
X6080252Y-4165600D01*
X6081166Y-4179265D01*
X6083858Y-4192676D01*
X6088227Y-4205630D01*
X6094272Y-4217924D01*
X6101892Y-4229303D01*
X6110935Y-4239564D01*
X6121196Y-4248607D01*
X6132576Y-4256227D01*
X6144869Y-4262272D01*
X6157823Y-4266641D01*
X6171234Y-4269333D01*
G37*
G36*
X9984587Y-4248556D02*
G01*
X10000437Y-4248099D01*
X10016134Y-4245762D01*
X10031425Y-4241596D01*
X10046106Y-4235653D01*
X10059974Y-4227982D01*
X10072878Y-4218736D01*
X10084562Y-4208018D01*
X10094925Y-4196029D01*
X10103815Y-4182872D01*
X10111028Y-4168749D01*
X10116566Y-4153865D01*
X10120274Y-4138472D01*
X10122154Y-4122724D01*
X10122154Y-4106875D01*
X10120274Y-4091127D01*
X10116566Y-4075734D01*
X10111028Y-4060850D01*
X10103815Y-4046728D01*
X10094925Y-4033570D01*
X10084562Y-4021582D01*
X10072878Y-4010863D01*
X10068712Y-4007865D01*
X10066426Y-4005630D01*
X10064953Y-4002786D01*
X10064445Y-3999636D01*
X10064445Y-3305911D01*
X10065207Y-3302000D01*
X10067442Y-3298698D01*
X10226548Y-3139592D01*
X10229850Y-3137357D01*
X10233761Y-3136595D01*
X10953140Y-3136595D01*
X10956950Y-3137357D01*
X10960201Y-3139440D01*
X10962436Y-3142589D01*
X10963351Y-3144621D01*
X10971174Y-3157626D01*
X10980572Y-3169564D01*
X10991342Y-3180334D01*
X11003280Y-3189681D01*
X11016284Y-3197555D01*
X11030204Y-3203854D01*
X11033353Y-3206038D01*
X11035487Y-3209290D01*
X11036198Y-3213100D01*
X11035487Y-3216910D01*
X11033353Y-3220161D01*
X11030204Y-3222345D01*
X11016284Y-3228644D01*
X11003280Y-3236518D01*
X10991342Y-3245866D01*
X10980572Y-3256635D01*
X10971174Y-3268573D01*
X10963351Y-3281578D01*
X10957102Y-3295446D01*
X10952581Y-3309975D01*
X10949838Y-3324910D01*
X10948924Y-3340100D01*
X10949838Y-3355289D01*
X10952581Y-3370224D01*
X10957102Y-3384753D01*
X10963351Y-3398621D01*
X10971174Y-3411626D01*
X10980572Y-3423564D01*
X10991342Y-3434334D01*
X11003280Y-3443681D01*
X11016284Y-3451555D01*
X11030153Y-3457803D01*
X11044682Y-3462324D01*
X11059617Y-3465068D01*
X11075111Y-3466033D01*
X11124488Y-3466033D01*
X11139982Y-3465068D01*
X11154918Y-3462324D01*
X11169446Y-3457803D01*
X11183315Y-3451555D01*
X11196320Y-3443681D01*
X11208258Y-3434334D01*
X11219027Y-3423564D01*
X11228425Y-3411626D01*
X11236248Y-3398621D01*
X11242497Y-3384753D01*
X11247018Y-3370224D01*
X11249761Y-3355289D01*
X11250676Y-3340100D01*
X11249761Y-3324910D01*
X11247018Y-3309975D01*
X11242497Y-3295446D01*
X11236248Y-3281578D01*
X11228425Y-3268573D01*
X11219027Y-3256635D01*
X11208258Y-3245866D01*
X11196320Y-3236518D01*
X11183315Y-3228644D01*
X11169396Y-3222345D01*
X11166246Y-3220161D01*
X11164112Y-3216910D01*
X11163401Y-3213100D01*
X11164112Y-3209290D01*
X11166246Y-3206038D01*
X11169396Y-3203854D01*
X11183315Y-3197555D01*
X11196320Y-3189681D01*
X11208258Y-3180334D01*
X11219027Y-3169564D01*
X11228425Y-3157626D01*
X11236248Y-3144621D01*
X11242497Y-3130753D01*
X11247018Y-3116224D01*
X11249761Y-3101289D01*
X11250676Y-3086100D01*
X11249761Y-3070910D01*
X11247018Y-3055975D01*
X11242497Y-3041446D01*
X11236248Y-3027578D01*
X11228425Y-3014573D01*
X11219027Y-3002635D01*
X11208258Y-2991866D01*
X11196320Y-2982518D01*
X11186972Y-2976880D01*
X11183823Y-2973832D01*
X11182248Y-2969818D01*
X11182451Y-2965450D01*
X11184534Y-2961589D01*
X11187988Y-2958947D01*
X11192256Y-2958033D01*
X11224209Y-2958033D01*
X11230559Y-2957271D01*
X11235994Y-2955391D01*
X11240922Y-2952292D01*
X11244986Y-2948228D01*
X11248085Y-2943301D01*
X11250015Y-2937865D01*
X11250726Y-2931515D01*
X11250726Y-2880868D01*
X11251488Y-2876956D01*
X11253673Y-2873705D01*
X11256975Y-2871470D01*
X11260886Y-2870708D01*
X11714480Y-2870708D01*
X11718747Y-2871622D01*
X11722201Y-2874264D01*
X11724944Y-2877464D01*
X11735866Y-2887370D01*
X11747906Y-2895904D01*
X11760911Y-2902915D01*
X11774678Y-2908249D01*
X11788952Y-2911805D01*
X11803634Y-2913634D01*
X11818366Y-2913634D01*
X11833047Y-2911805D01*
X11847322Y-2908249D01*
X11861088Y-2902915D01*
X11874093Y-2895904D01*
X11886133Y-2887370D01*
X11897055Y-2877464D01*
X11906656Y-2866237D01*
X11914784Y-2853944D01*
X11921388Y-2840736D01*
X11926316Y-2826816D01*
X11929465Y-2812389D01*
X11930837Y-2797708D01*
X11930380Y-2782925D01*
X11928094Y-2768346D01*
X11924030Y-2754172D01*
X11918289Y-2740558D01*
X11910923Y-2727807D01*
X11902033Y-2716022D01*
X11891772Y-2705404D01*
X11880240Y-2696159D01*
X11867692Y-2688386D01*
X11854281Y-2682240D01*
X11840260Y-2677769D01*
X11825732Y-2675026D01*
X11811000Y-2674112D01*
X11796268Y-2675026D01*
X11781739Y-2677769D01*
X11767718Y-2682240D01*
X11754307Y-2688386D01*
X11741759Y-2696159D01*
X11730228Y-2705404D01*
X11719966Y-2716022D01*
X11711076Y-2727807D01*
X11703710Y-2740558D01*
X11697970Y-2754172D01*
X11693906Y-2768346D01*
X11691620Y-2783636D01*
X11690756Y-2787446D01*
X11688521Y-2790647D01*
X11685270Y-2792730D01*
X11681460Y-2793492D01*
X11260886Y-2793492D01*
X11256975Y-2792730D01*
X11253673Y-2790494D01*
X11251488Y-2787243D01*
X11250726Y-2783332D01*
X11250726Y-2732684D01*
X11250015Y-2726334D01*
X11248085Y-2720898D01*
X11244986Y-2715971D01*
X11240922Y-2711907D01*
X11235994Y-2708808D01*
X11230559Y-2706928D01*
X11224209Y-2706217D01*
X10975390Y-2706217D01*
X10969040Y-2706928D01*
X10963605Y-2708808D01*
X10958677Y-2711907D01*
X10954613Y-2715971D01*
X10951514Y-2720898D01*
X10949584Y-2726334D01*
X10948873Y-2732684D01*
X10948873Y-2931515D01*
X10949584Y-2937865D01*
X10951514Y-2943301D01*
X10954613Y-2948228D01*
X10958677Y-2952292D01*
X10963605Y-2955391D01*
X10969040Y-2957271D01*
X10975390Y-2958033D01*
X11007344Y-2958033D01*
X11011611Y-2958947D01*
X11015065Y-2961589D01*
X11017148Y-2965399D01*
X11017402Y-2969768D01*
X11015827Y-2973781D01*
X11012678Y-2976829D01*
X11002162Y-2983280D01*
X10999622Y-2984398D01*
X10996828Y-2984804D01*
X10195458Y-2984855D01*
X10186619Y-2985668D01*
X10184180Y-2986074D01*
X10175544Y-2988208D01*
X10173208Y-2988970D01*
X10164978Y-2992374D01*
X10162794Y-2993491D01*
X10155174Y-2998114D01*
X10146334Y-3005175D01*
X9933025Y-3218484D01*
X9925964Y-3227324D01*
X9921341Y-3234944D01*
X9920224Y-3237128D01*
X9916820Y-3245358D01*
X9916058Y-3247694D01*
X9913924Y-3256330D01*
X9913518Y-3258769D01*
X9912705Y-3267608D01*
X9912654Y-3999484D01*
X9911638Y-4003852D01*
X9908895Y-4007408D01*
X9898227Y-4016044D01*
X9887153Y-4027424D01*
X9877552Y-4040022D01*
X9869474Y-4053687D01*
X9863074Y-4068216D01*
X9858451Y-4083354D01*
X9855657Y-4098950D01*
X9854692Y-4114800D01*
X9855657Y-4130649D01*
X9858451Y-4146245D01*
X9863074Y-4161383D01*
X9869474Y-4175912D01*
X9877552Y-4189577D01*
X9887153Y-4202176D01*
X9898227Y-4213555D01*
X9910521Y-4223562D01*
X9923932Y-4231995D01*
X9938258Y-4238853D01*
X9953294Y-4243882D01*
X9968788Y-4247184D01*
G37*
G36*
X4615434Y-4031234D02*
G01*
X4630166Y-4031234D01*
X4644847Y-4029405D01*
X4659122Y-4025849D01*
X4672888Y-4020515D01*
X4685893Y-4013504D01*
X4697933Y-4004970D01*
X4708855Y-3995064D01*
X4718456Y-3983837D01*
X4726584Y-3971544D01*
X4733188Y-3958336D01*
X4738116Y-3944416D01*
X4741265Y-3929989D01*
X4742586Y-3915308D01*
X4742180Y-3900525D01*
X4739894Y-3885946D01*
X4735830Y-3871772D01*
X4730089Y-3858158D01*
X4722723Y-3845407D01*
X4713833Y-3833622D01*
X4703572Y-3823004D01*
X4692040Y-3813759D01*
X4679492Y-3805986D01*
X4666081Y-3799840D01*
X4652060Y-3795369D01*
X4637532Y-3792626D01*
X4622800Y-3791712D01*
X4608068Y-3792626D01*
X4593539Y-3795369D01*
X4579518Y-3799840D01*
X4566107Y-3805986D01*
X4553559Y-3813759D01*
X4542028Y-3823004D01*
X4531766Y-3833622D01*
X4522876Y-3845407D01*
X4516983Y-3855618D01*
X4514697Y-3858310D01*
X4511649Y-3860088D01*
X4508195Y-3860698D01*
X3962298Y-3860698D01*
X3958386Y-3859936D01*
X3955135Y-3857701D01*
X3461765Y-3364433D01*
X3460496Y-3361944D01*
X3459327Y-3358489D01*
X3452977Y-3344367D01*
X3445001Y-3331159D01*
X3435502Y-3319068D01*
X3424631Y-3308197D01*
X3412540Y-3298698D01*
X3399332Y-3290722D01*
X3388563Y-3285845D01*
X3385413Y-3283661D01*
X3383330Y-3280410D01*
X3382568Y-3276600D01*
X3383330Y-3272790D01*
X3385413Y-3269538D01*
X3388563Y-3267354D01*
X3399332Y-3262477D01*
X3412540Y-3254502D01*
X3424631Y-3245002D01*
X3435502Y-3234131D01*
X3445001Y-3222040D01*
X3452977Y-3208832D01*
X3459327Y-3194812D01*
X3463899Y-3180130D01*
X3466642Y-3164992D01*
X3467608Y-3149600D01*
X3466642Y-3134207D01*
X3463899Y-3119069D01*
X3459327Y-3104388D01*
X3452977Y-3090367D01*
X3445001Y-3077159D01*
X3435502Y-3065068D01*
X3424631Y-3054197D01*
X3412540Y-3044698D01*
X3399332Y-3036722D01*
X3388563Y-3031845D01*
X3385413Y-3029661D01*
X3383330Y-3026410D01*
X3382721Y-3021838D01*
X3381806Y-3023260D01*
X3378758Y-3025495D01*
X3375101Y-3026460D01*
X3355492Y-3023057D01*
X3339795Y-3022092D01*
X3289604Y-3022092D01*
X3273907Y-3023057D01*
X3254298Y-3026460D01*
X3250641Y-3025495D01*
X3246831Y-3022600D01*
X3246069Y-3026410D01*
X3243986Y-3029661D01*
X3240836Y-3031845D01*
X3230067Y-3036722D01*
X3216859Y-3044698D01*
X3204768Y-3054197D01*
X3193897Y-3065068D01*
X3184398Y-3077159D01*
X3176422Y-3090367D01*
X3170072Y-3104388D01*
X3165500Y-3119069D01*
X3162757Y-3134207D01*
X3161792Y-3149600D01*
X3162757Y-3164992D01*
X3165500Y-3180130D01*
X3170072Y-3194812D01*
X3176422Y-3208832D01*
X3184398Y-3222040D01*
X3193897Y-3234131D01*
X3204768Y-3245002D01*
X3216859Y-3254502D01*
X3230067Y-3262477D01*
X3240836Y-3267354D01*
X3243986Y-3269538D01*
X3246069Y-3272790D01*
X3246831Y-3276600D01*
X3246069Y-3280410D01*
X3243986Y-3283661D01*
X3240836Y-3285845D01*
X3230067Y-3290722D01*
X3216859Y-3298698D01*
X3204768Y-3308197D01*
X3193897Y-3319068D01*
X3184398Y-3331159D01*
X3176422Y-3344367D01*
X3170072Y-3358387D01*
X3165500Y-3373069D01*
X3162757Y-3388207D01*
X3161792Y-3403600D01*
X3162757Y-3418992D01*
X3165500Y-3434130D01*
X3170072Y-3448812D01*
X3176422Y-3462832D01*
X3184398Y-3476040D01*
X3193897Y-3488131D01*
X3204768Y-3499002D01*
X3216859Y-3508501D01*
X3230067Y-3516477D01*
X3244088Y-3522827D01*
X3258769Y-3527399D01*
X3273907Y-3530142D01*
X3289604Y-3531108D01*
X3339795Y-3531108D01*
X3355492Y-3530142D01*
X3370630Y-3527399D01*
X3385312Y-3522827D01*
X3399332Y-3516477D01*
X3412540Y-3508501D01*
X3424631Y-3499002D01*
X3431336Y-3492296D01*
X3434638Y-3490112D01*
X3438550Y-3489350D01*
X3442411Y-3490112D01*
X3445713Y-3492296D01*
X3900830Y-3947464D01*
X3904284Y-3950614D01*
X3907790Y-3953306D01*
X3911549Y-3955694D01*
X3915511Y-3957726D01*
X3919575Y-3959453D01*
X3923842Y-3960774D01*
X3928160Y-3961739D01*
X3932580Y-3962298D01*
X3937203Y-3962501D01*
X4508195Y-3962501D01*
X4511852Y-3963212D01*
X4515053Y-3965143D01*
X4517288Y-3968140D01*
X4519015Y-3971544D01*
X4527143Y-3983837D01*
X4536744Y-3995064D01*
X4547666Y-4004970D01*
X4559706Y-4013504D01*
X4572711Y-4020515D01*
X4586478Y-4025849D01*
X4600752Y-4029405D01*
G37*
G36*
X8616746Y-4007104D02*
G01*
X8629853Y-4007104D01*
X8642756Y-4005326D01*
X8655354Y-4001820D01*
X8667343Y-3996588D01*
X8678519Y-3989832D01*
X8688628Y-3981551D01*
X8697569Y-3972001D01*
X8705088Y-3961333D01*
X8711133Y-3949750D01*
X8715502Y-3937406D01*
X8718143Y-3924655D01*
X8719058Y-3911600D01*
X8718143Y-3898544D01*
X8715502Y-3885793D01*
X8711133Y-3873449D01*
X8705088Y-3861866D01*
X8697569Y-3851198D01*
X8688628Y-3841648D01*
X8678519Y-3833368D01*
X8667343Y-3826611D01*
X8655354Y-3821379D01*
X8642756Y-3817874D01*
X8629853Y-3816096D01*
X8616746Y-3816096D01*
X8603843Y-3817874D01*
X8591245Y-3821379D01*
X8579256Y-3826611D01*
X8568080Y-3833368D01*
X8557971Y-3841648D01*
X8549030Y-3851198D01*
X8541512Y-3861866D01*
X8535466Y-3873449D01*
X8531098Y-3885793D01*
X8528456Y-3898544D01*
X8527542Y-3911600D01*
X8528456Y-3924655D01*
X8531098Y-3937406D01*
X8535466Y-3949750D01*
X8541512Y-3961333D01*
X8549030Y-3972001D01*
X8557971Y-3981551D01*
X8568080Y-3989832D01*
X8579256Y-3996588D01*
X8591245Y-4001820D01*
X8603843Y-4005326D01*
G37*
G36*
X7854746Y-4007104D02*
G01*
X7867853Y-4007104D01*
X7880756Y-4005326D01*
X7893354Y-4001820D01*
X7905343Y-3996588D01*
X7916519Y-3989832D01*
X7926628Y-3981551D01*
X7935569Y-3972001D01*
X7943088Y-3961333D01*
X7949133Y-3949750D01*
X7953502Y-3937406D01*
X7956143Y-3924655D01*
X7957058Y-3911600D01*
X7956143Y-3898544D01*
X7953502Y-3885793D01*
X7949133Y-3873449D01*
X7943088Y-3861866D01*
X7935569Y-3851198D01*
X7926628Y-3841648D01*
X7916519Y-3833368D01*
X7905343Y-3826611D01*
X7893354Y-3821379D01*
X7880756Y-3817874D01*
X7867853Y-3816096D01*
X7854746Y-3816096D01*
X7841843Y-3817874D01*
X7829245Y-3821379D01*
X7817256Y-3826611D01*
X7806080Y-3833368D01*
X7795971Y-3841648D01*
X7787030Y-3851198D01*
X7779512Y-3861866D01*
X7773466Y-3873449D01*
X7769098Y-3885793D01*
X7766456Y-3898544D01*
X7765542Y-3911600D01*
X7766456Y-3924655D01*
X7769098Y-3937406D01*
X7773466Y-3949750D01*
X7779512Y-3961333D01*
X7787030Y-3972001D01*
X7795971Y-3981551D01*
X7806080Y-3989832D01*
X7817256Y-3996588D01*
X7829245Y-4001820D01*
X7841843Y-4005326D01*
G37*
G36*
X8108746Y-4007104D02*
G01*
X8121853Y-4007104D01*
X8134756Y-4005326D01*
X8147354Y-4001820D01*
X8159343Y-3996588D01*
X8170519Y-3989832D01*
X8180628Y-3981551D01*
X8189569Y-3972001D01*
X8197088Y-3961333D01*
X8203133Y-3949750D01*
X8207502Y-3937406D01*
X8210143Y-3924655D01*
X8211058Y-3911600D01*
X8210143Y-3898544D01*
X8207502Y-3885793D01*
X8203133Y-3873449D01*
X8197088Y-3861866D01*
X8189569Y-3851198D01*
X8180628Y-3841648D01*
X8170519Y-3833368D01*
X8159343Y-3826611D01*
X8147354Y-3821379D01*
X8134756Y-3817874D01*
X8121853Y-3816096D01*
X8108746Y-3816096D01*
X8095843Y-3817874D01*
X8083245Y-3821379D01*
X8071256Y-3826611D01*
X8060080Y-3833368D01*
X8049971Y-3841648D01*
X8041030Y-3851198D01*
X8033512Y-3861866D01*
X8027466Y-3873449D01*
X8023098Y-3885793D01*
X8020456Y-3898544D01*
X8019542Y-3911600D01*
X8020456Y-3924655D01*
X8023098Y-3937406D01*
X8027466Y-3949750D01*
X8033512Y-3961333D01*
X8041030Y-3972001D01*
X8049971Y-3981551D01*
X8060080Y-3989832D01*
X8071256Y-3996588D01*
X8083245Y-4001820D01*
X8095843Y-4005326D01*
G37*
G36*
X7600746Y-4007104D02*
G01*
X7613853Y-4007104D01*
X7626756Y-4005326D01*
X7639354Y-4001820D01*
X7651343Y-3996588D01*
X7662519Y-3989832D01*
X7672628Y-3981551D01*
X7681569Y-3972001D01*
X7689088Y-3961333D01*
X7695133Y-3949750D01*
X7699502Y-3937406D01*
X7702143Y-3924655D01*
X7703058Y-3911600D01*
X7702143Y-3898544D01*
X7699502Y-3885793D01*
X7695133Y-3873449D01*
X7689088Y-3861866D01*
X7681569Y-3851198D01*
X7672628Y-3841648D01*
X7662519Y-3833368D01*
X7651343Y-3826611D01*
X7639354Y-3821379D01*
X7626756Y-3817874D01*
X7613853Y-3816096D01*
X7600746Y-3816096D01*
X7587843Y-3817874D01*
X7575245Y-3821379D01*
X7563256Y-3826611D01*
X7552080Y-3833368D01*
X7541971Y-3841648D01*
X7533030Y-3851198D01*
X7525512Y-3861866D01*
X7519466Y-3873449D01*
X7515098Y-3885793D01*
X7512456Y-3898544D01*
X7511542Y-3911600D01*
X7512456Y-3924655D01*
X7515098Y-3937406D01*
X7519466Y-3949750D01*
X7525512Y-3961333D01*
X7533030Y-3972001D01*
X7541971Y-3981551D01*
X7552080Y-3989832D01*
X7563256Y-3996588D01*
X7575245Y-4001820D01*
X7587843Y-4005326D01*
G37*
G36*
X7346746Y-4007104D02*
G01*
X7359853Y-4007104D01*
X7372756Y-4005326D01*
X7385354Y-4001820D01*
X7397343Y-3996588D01*
X7408519Y-3989832D01*
X7418628Y-3981551D01*
X7427569Y-3972001D01*
X7435088Y-3961333D01*
X7441133Y-3949750D01*
X7445502Y-3937406D01*
X7448143Y-3924655D01*
X7449058Y-3911600D01*
X7448143Y-3898544D01*
X7445502Y-3885793D01*
X7441133Y-3873449D01*
X7435088Y-3861866D01*
X7427569Y-3851198D01*
X7418628Y-3841648D01*
X7408519Y-3833368D01*
X7397343Y-3826611D01*
X7385354Y-3821379D01*
X7372756Y-3817874D01*
X7359853Y-3816096D01*
X7346746Y-3816096D01*
X7333843Y-3817874D01*
X7321245Y-3821379D01*
X7309256Y-3826611D01*
X7298080Y-3833368D01*
X7287971Y-3841648D01*
X7279030Y-3851198D01*
X7271512Y-3861866D01*
X7265466Y-3873449D01*
X7261098Y-3885793D01*
X7258456Y-3898544D01*
X7257542Y-3911600D01*
X7258456Y-3924655D01*
X7261098Y-3937406D01*
X7265466Y-3949750D01*
X7271512Y-3961333D01*
X7279030Y-3972001D01*
X7287971Y-3981551D01*
X7298080Y-3989832D01*
X7309256Y-3996588D01*
X7321245Y-4001820D01*
X7333843Y-4005326D01*
G37*
G36*
X8362746Y-4007104D02*
G01*
X8375853Y-4007104D01*
X8388756Y-4005326D01*
X8401354Y-4001820D01*
X8413343Y-3996588D01*
X8424519Y-3989832D01*
X8434628Y-3981551D01*
X8443569Y-3972001D01*
X8451088Y-3961333D01*
X8457133Y-3949750D01*
X8461502Y-3937406D01*
X8464143Y-3924655D01*
X8465058Y-3911600D01*
X8464143Y-3898544D01*
X8461502Y-3885793D01*
X8457133Y-3873449D01*
X8451088Y-3861866D01*
X8443569Y-3851198D01*
X8434628Y-3841648D01*
X8424519Y-3833368D01*
X8413343Y-3826611D01*
X8401354Y-3821379D01*
X8388756Y-3817874D01*
X8375853Y-3816096D01*
X8362746Y-3816096D01*
X8349843Y-3817874D01*
X8337245Y-3821379D01*
X8325256Y-3826611D01*
X8314080Y-3833368D01*
X8303971Y-3841648D01*
X8295030Y-3851198D01*
X8287512Y-3861866D01*
X8281466Y-3873449D01*
X8277098Y-3885793D01*
X8274456Y-3898544D01*
X8273542Y-3911600D01*
X8274456Y-3924655D01*
X8277098Y-3937406D01*
X8281466Y-3949750D01*
X8287512Y-3961333D01*
X8295030Y-3972001D01*
X8303971Y-3981551D01*
X8314080Y-3989832D01*
X8325256Y-3996588D01*
X8337245Y-4001820D01*
X8349843Y-4005326D01*
G37*
G36*
X2227630Y-3084220D02*
G01*
X2295753Y-3084220D01*
X2302052Y-3083509D01*
X2307488Y-3081578D01*
X2312416Y-3078480D01*
X2316480Y-3074416D01*
X2319578Y-3069488D01*
X2321509Y-3064052D01*
X2322220Y-3057753D01*
X2322220Y-2989630D01*
X2227630Y-2989630D01*
G37*
G36*
X1996846Y-3084220D02*
G01*
X2064969Y-3084220D01*
X2064969Y-2989630D01*
X1970379Y-2989630D01*
X1970379Y-3057753D01*
X1971090Y-3064052D01*
X1973021Y-3069488D01*
X1976120Y-3074416D01*
X1980184Y-3078480D01*
X1985111Y-3081578D01*
X1990547Y-3083509D01*
G37*
G36*
X3384550Y-3016351D02*
G01*
X3388563Y-3013354D01*
X3399332Y-3008477D01*
X3412540Y-3000502D01*
X3424631Y-2991002D01*
X3435502Y-2980131D01*
X3445001Y-2968040D01*
X3452977Y-2954832D01*
X3453942Y-2952750D01*
X3384550Y-2952750D01*
G37*
G36*
X3244850Y-3016351D02*
G01*
X3244850Y-2952750D01*
X3175457Y-2952750D01*
X3176422Y-2954832D01*
X3184398Y-2968040D01*
X3193897Y-2980131D01*
X3204768Y-2991002D01*
X3216859Y-3000502D01*
X3230067Y-3008477D01*
X3240836Y-3013354D01*
X3243986Y-3015538D01*
G37*
G36*
X4908397Y-3004413D02*
G01*
X4909413Y-3002838D01*
X4912563Y-3000654D01*
X4923332Y-2995777D01*
X4936540Y-2987802D01*
X4948631Y-2978302D01*
X4959502Y-2967431D01*
X4969002Y-2955340D01*
X4976977Y-2942132D01*
X4977942Y-2940050D01*
X4908550Y-2940050D01*
X4908550Y-3003651D01*
G37*
G36*
X4769002Y-3004413D02*
G01*
X4768850Y-3003651D01*
X4768850Y-2940050D01*
X4699457Y-2940050D01*
X4700422Y-2942132D01*
X4708398Y-2955340D01*
X4717897Y-2967431D01*
X4728768Y-2978302D01*
X4740859Y-2987802D01*
X4754067Y-2995777D01*
X4764836Y-3000654D01*
X4767986Y-3002838D01*
G37*
G36*
X3384550Y-2838450D02*
G01*
X3453942Y-2838450D01*
X3452977Y-2836367D01*
X3445001Y-2823159D01*
X3435502Y-2811068D01*
X3424631Y-2800197D01*
X3412540Y-2790698D01*
X3399332Y-2782722D01*
X3384550Y-2776169D01*
G37*
G36*
X3175457Y-2838450D02*
G01*
X3244850Y-2838450D01*
X3244850Y-2776169D01*
X3230067Y-2782722D01*
X3216859Y-2790698D01*
X3204768Y-2800197D01*
X3193897Y-2811068D01*
X3184398Y-2823159D01*
X3176422Y-2836367D01*
G37*
G36*
X2227630Y-2826969D02*
G01*
X2322220Y-2826969D01*
X2322220Y-2758846D01*
X2321509Y-2752547D01*
X2319578Y-2747111D01*
X2316480Y-2742184D01*
X2312416Y-2738120D01*
X2307488Y-2735021D01*
X2302052Y-2733090D01*
X2295753Y-2732379D01*
X2227630Y-2732379D01*
G37*
G36*
X1970379Y-2826969D02*
G01*
X2064969Y-2826969D01*
X2064969Y-2732379D01*
X1996846Y-2732379D01*
X1990547Y-2733090D01*
X1985111Y-2735021D01*
X1980184Y-2738120D01*
X1976120Y-2742184D01*
X1973021Y-2747111D01*
X1971090Y-2752547D01*
X1970379Y-2758846D01*
G37*
G36*
X4699457Y-2825750D02*
G01*
X4768850Y-2825750D01*
X4768850Y-2763469D01*
X4754067Y-2770022D01*
X4740859Y-2777998D01*
X4728768Y-2787497D01*
X4717897Y-2798368D01*
X4708398Y-2810459D01*
X4700422Y-2823667D01*
G37*
G36*
X4908550Y-2825750D02*
G01*
X4977942Y-2825750D01*
X4976977Y-2823667D01*
X4969002Y-2810459D01*
X4959502Y-2798368D01*
X4948631Y-2787497D01*
X4936540Y-2777998D01*
X4923332Y-2770022D01*
X4908550Y-2763469D01*
G37*
G36*
X7534046Y-2473807D02*
G01*
X7832953Y-2473807D01*
X7839252Y-2473096D01*
X7844688Y-2471166D01*
X7849616Y-2468118D01*
X7853680Y-2464003D01*
X7856778Y-2459126D01*
X7858709Y-2453640D01*
X7859420Y-2447340D01*
X7859420Y-2048459D01*
X7858709Y-2042160D01*
X7856778Y-2036673D01*
X7853680Y-2031796D01*
X7849616Y-2027682D01*
X7844688Y-2024634D01*
X7839252Y-2022703D01*
X7832953Y-2021992D01*
X7534046Y-2021992D01*
X7527747Y-2022703D01*
X7522311Y-2024634D01*
X7517384Y-2027682D01*
X7513320Y-2031796D01*
X7510221Y-2036673D01*
X7508290Y-2042160D01*
X7507579Y-2048459D01*
X7507579Y-2447340D01*
X7508290Y-2453640D01*
X7510221Y-2459126D01*
X7513320Y-2464003D01*
X7517384Y-2468118D01*
X7522311Y-2471166D01*
X7527747Y-2473096D01*
G37*
G36*
X7166609Y-2473553D02*
G01*
X7184390Y-2473553D01*
X7202119Y-2471775D01*
X7219594Y-2468168D01*
X7236612Y-2462834D01*
X7252970Y-2455824D01*
X7268565Y-2447188D01*
X7283145Y-2436977D01*
X7296708Y-2425395D01*
X7308951Y-2412492D01*
X7319873Y-2398369D01*
X7329271Y-2383282D01*
X7337145Y-2367280D01*
X7343343Y-2350566D01*
X7347813Y-2333294D01*
X7350506Y-2315718D01*
X7351420Y-2297633D01*
X7351420Y-2198166D01*
X7350506Y-2180082D01*
X7347813Y-2162505D01*
X7343343Y-2145233D01*
X7337145Y-2128520D01*
X7329271Y-2112518D01*
X7319873Y-2097430D01*
X7308951Y-2083307D01*
X7296708Y-2070404D01*
X7283145Y-2058822D01*
X7268565Y-2048611D01*
X7252970Y-2039975D01*
X7236612Y-2032965D01*
X7219594Y-2027631D01*
X7202119Y-2024024D01*
X7184390Y-2022246D01*
X7166609Y-2022246D01*
X7148880Y-2024024D01*
X7131405Y-2027631D01*
X7114387Y-2032965D01*
X7098030Y-2039975D01*
X7082434Y-2048611D01*
X7067854Y-2058822D01*
X7054291Y-2070404D01*
X7042048Y-2083307D01*
X7031126Y-2097430D01*
X7021728Y-2112518D01*
X7013854Y-2128520D01*
X7007656Y-2145233D01*
X7003186Y-2162505D01*
X7000494Y-2180082D01*
X6999579Y-2198166D01*
X6999579Y-2297633D01*
X7000494Y-2315718D01*
X7003186Y-2333294D01*
X7007656Y-2350566D01*
X7013854Y-2367280D01*
X7021728Y-2383282D01*
X7031126Y-2398369D01*
X7042048Y-2412492D01*
X7054291Y-2425395D01*
X7067854Y-2436977D01*
X7082434Y-2447188D01*
X7098030Y-2455824D01*
X7114387Y-2462834D01*
X7131405Y-2468168D01*
X7148880Y-2471775D01*
G37*
G36*
X4920030Y-2042820D02*
G01*
X4988153Y-2042820D01*
X4994452Y-2042109D01*
X4999888Y-2040178D01*
X5004816Y-2037080D01*
X5008880Y-2033016D01*
X5011978Y-2028088D01*
X5013909Y-2022652D01*
X5014620Y-2016353D01*
X5014620Y-1948230D01*
X4920030Y-1948230D01*
G37*
G36*
X4689246Y-2042820D02*
G01*
X4757369Y-2042820D01*
X4757369Y-1948230D01*
X4662779Y-1948230D01*
X4662779Y-2016353D01*
X4663490Y-2022652D01*
X4665421Y-2028088D01*
X4668520Y-2033016D01*
X4672584Y-2037080D01*
X4677511Y-2040178D01*
X4682947Y-2042109D01*
G37*
G36*
X3319221Y-2042718D02*
G01*
X3337306Y-2041347D01*
X3355086Y-2038096D01*
X3372510Y-2033016D01*
X3389274Y-2026208D01*
X3405225Y-2017674D01*
X3420262Y-2007565D01*
X3434181Y-1995982D01*
X3446830Y-1983028D01*
X3458057Y-1968804D01*
X3467760Y-1953514D01*
X3475888Y-1937359D01*
X3482238Y-1920392D01*
X3486861Y-1902866D01*
X3489655Y-1884984D01*
X3490569Y-1866900D01*
X3489655Y-1848815D01*
X3486861Y-1830933D01*
X3482238Y-1813407D01*
X3475888Y-1796440D01*
X3467760Y-1780286D01*
X3458057Y-1764995D01*
X3446830Y-1750771D01*
X3434181Y-1737817D01*
X3420262Y-1726234D01*
X3405225Y-1716125D01*
X3389274Y-1707591D01*
X3372510Y-1700784D01*
X3355086Y-1695704D01*
X3337306Y-1692452D01*
X3319221Y-1691081D01*
X3301136Y-1691538D01*
X3283153Y-1693875D01*
X3265525Y-1697989D01*
X3248456Y-1703984D01*
X3232048Y-1711655D01*
X3216503Y-1720951D01*
X3202025Y-1731822D01*
X3188716Y-1744116D01*
X3176778Y-1757730D01*
X3166262Y-1772513D01*
X3157372Y-1788261D01*
X3150108Y-1804873D01*
X3144621Y-1822094D01*
X3140913Y-1839823D01*
X3139033Y-1857857D01*
X3139033Y-1875942D01*
X3140913Y-1893976D01*
X3144621Y-1911705D01*
X3150108Y-1928926D01*
X3157372Y-1945538D01*
X3166262Y-1961286D01*
X3176778Y-1976069D01*
X3188716Y-1989683D01*
X3202025Y-2001977D01*
X3216503Y-2012848D01*
X3232048Y-2022144D01*
X3248456Y-2029815D01*
X3265525Y-2035810D01*
X3283153Y-2039924D01*
X3301136Y-2042261D01*
G37*
G36*
X4920030Y-1785569D02*
G01*
X5014620Y-1785569D01*
X5014620Y-1717446D01*
X5013909Y-1711147D01*
X5011978Y-1705711D01*
X5008880Y-1700784D01*
X5004816Y-1696720D01*
X4999888Y-1693621D01*
X4994452Y-1691690D01*
X4988153Y-1690979D01*
X4920030Y-1690979D01*
G37*
G36*
X4662779Y-1785569D02*
G01*
X4757369Y-1785569D01*
X4757369Y-1690979D01*
X4689246Y-1690979D01*
X4682947Y-1691690D01*
X4677511Y-1693621D01*
X4672584Y-1696720D01*
X4668520Y-1700784D01*
X4665421Y-1705711D01*
X4663490Y-1711147D01*
X4662779Y-1717446D01*
G37*

%LPD*%
D10*
X8128000Y-5562600D02*
G01*
X8115300Y-5549900D01*
X8115300Y-4673600D01*
X6604000Y-4178300D02*
G01*
X6870700Y-3911600D01*
X7099300Y-3911600D01*
X6591300Y-5892800D02*
G01*
X6248400Y-5549900D01*
X6248400Y-4889500D01*
X6388100Y-4749800D01*
X6388100Y-3606800D01*
X6457950Y-3536950D01*
X6680200Y-3536950D01*
X8648700Y-4927600D02*
G01*
X8623300Y-4902200D01*
X8623300Y-4673600D01*
D11*
X4838700Y-2882900D02*
G01*
X4838700Y-1866900D01*
D10*
X10160000Y-6502400D02*
G01*
X8826500Y-6502400D01*
X10185400Y-5575300D02*
G01*
X10058400Y-5575300D01*
X9779000Y-5854700D01*
X9779000Y-6146800D01*
X9994900Y-6362700D01*
X10134600Y-6502400D01*
X10160000Y-6502400D01*
X10934700Y-4800600D02*
G01*
X10198100Y-4800600D01*
X10185400Y-4813300D01*
X11811000Y-3556000D02*
G01*
X11811000Y-4648200D01*
X11645900Y-4813300D01*
X11531600Y-4927600D01*
X10934700Y-4927600D01*
X9561575Y-4546600D02*
G01*
X9561575Y-3162300D01*
X9269475Y-2870200D01*
X9207500Y-2870200D01*
D11*
X9207500Y-3378200D02*
G01*
X6838950Y-3378200D01*
X6680200Y-3536950D01*
D10*
X6184900Y-4419600D02*
G01*
X5867400Y-4737100D01*
X11811000Y-2794000D02*
G01*
X11772900Y-2832100D01*
X11099800Y-2832100D01*
D11*
X9988550Y-4114800D02*
G01*
X9988550Y-3270250D01*
X10198100Y-3060700D01*
X11074400Y-3060700D01*
X11099800Y-3086100D01*
D10*
X9213850Y-4114800D02*
G01*
X9213850Y-4527550D01*
X9207500Y-4533900D01*
X9817100Y-7061200D02*
G01*
X10058400Y-7061200D01*
X10477500Y-6642100D01*
X10477500Y-6515100D01*
X10414000Y-6451600D01*
X10337800Y-6375400D01*
X10160000Y-6375400D01*
X4838700Y-3390900D02*
G01*
X4838700Y-5194300D01*
X4826000Y-5207000D01*
D12*
X4622800Y-3911600D02*
G01*
X3937000Y-3911600D01*
X3594100Y-3568700D01*
X3429000Y-3403600D01*
X3314700Y-3403600D01*
D11*
X4622800Y-4673600D02*
G01*
X4572000Y-4724400D01*
X3956304Y-4724400D01*
X2476500Y-4724400D01*
X2184400Y-4432300D01*
X2146300Y-4432300D01*
D10*
X8369300Y-4673600D02*
G01*
X8293100Y-4902200D01*
X8299704Y-6305804D01*
X9055100Y-7061200D01*
D12*
X9207500Y-3124200D02*
G01*
X8509000Y-3124200D01*
X8077200Y-2692400D01*
X6750050Y-2692400D01*
X6680200Y-2762250D01*
D13*
G01*
X4838700Y-3136900D03*
G01*
X4838700Y-2882900D03*
G01*
X4838700Y-3390900D03*
G01*
X3314700Y-3149600D03*
G01*
X3314700Y-2895600D03*
G01*
X3314700Y-3403600D03*
D14*
G01*
X8648700Y-4927600D03*
G01*
X8648700Y-5054600D03*
G01*
X8648700Y-5181600D03*
G01*
X10934700Y-4673600D03*
G01*
X10934700Y-4800600D03*
G01*
X10934700Y-4927600D03*
D15*
G01*
X9537700Y-5892800D03*
D17*
G01*
X9537700Y-5765800D03*
G01*
X9537700Y-5638800D03*
D15*
G01*
X10160000Y-6502400D03*
D17*
G01*
X10160000Y-6375400D03*
G01*
X10160000Y-6248400D03*
D18*
G01*
X7099300Y-4673600D03*
D19*
G01*
X7353300Y-4673600D03*
G01*
X7607300Y-4673600D03*
G01*
X7861300Y-4673600D03*
G01*
X8115300Y-4673600D03*
G01*
X8369300Y-4673600D03*
G01*
X8623300Y-4673600D03*
G01*
X8623300Y-3911600D03*
G01*
X8369300Y-3911600D03*
G01*
X8115300Y-3911600D03*
G01*
X7861300Y-3911600D03*
G01*
X7607300Y-3911600D03*
G01*
X7353300Y-3911600D03*
G01*
X7099300Y-3911600D03*
D20*
G01*
X7175500Y-2247900D03*
D21*
G01*
X7683500Y-2247900D03*
D22*
G01*
X6591300Y-5384800D03*
D23*
G01*
X6591300Y-5892800D03*
D24*
G01*
X6604000Y-4432300D03*
D25*
G01*
X6604000Y-4178300D03*
D24*
G01*
X6184900Y-4419600D03*
D25*
G01*
X6184900Y-4165600D03*
D24*
G01*
X10629900Y-6070600D03*
D25*
G01*
X10629900Y-5816600D03*
D26*
G01*
X6680200Y-2762250D03*
G01*
X6680200Y-3536950D03*
G01*
X9988550Y-4114800D03*
G01*
X9213850Y-4114800D03*
D27*
G01*
X2146300Y-2908300D03*
D28*
G01*
X2146300Y-4432300D03*
D27*
G01*
X4838700Y-1866900D03*
D28*
G01*
X3314700Y-1866900D03*
D29*
G01*
X8077200Y-6223000D03*
G01*
X8839200Y-6223000D03*
G01*
X8128000Y-5562600D03*
G01*
X8890000Y-5562600D03*
G01*
X7823200Y-5816600D03*
G01*
X7823200Y-5054600D03*
G01*
X9207500Y-5295900D03*
G01*
X9207500Y-4533900D03*
G01*
X9561575Y-5308600D03*
G01*
X9561575Y-4546600D03*
G01*
X9055100Y-7061200D03*
G01*
X9817100Y-7061200D03*
G01*
X8826500Y-6502400D03*
G01*
X8064500Y-6502400D03*
G01*
X10185400Y-5575300D03*
G01*
X10185400Y-4813300D03*
G01*
X5588000Y-5207000D03*
G01*
X4826000Y-5207000D03*
G01*
X4622800Y-4673600D03*
G01*
X4622800Y-3911600D03*
G01*
X11811000Y-3556000D03*
G01*
X11811000Y-2794000D03*
G01*
X5867400Y-5499100D03*
G01*
X5867400Y-4737100D03*
D30*
G01*
X9207500Y-2870200D03*
D31*
G01*
X9207500Y-3378200D03*
G01*
X9207500Y-3124200D03*
D30*
G01*
X11099800Y-2832100D03*
D31*
G01*
X11099800Y-3340100D03*
G01*
X11099800Y-3086100D03*
M02*
