G75*
%MOIN*%
%OFA0B0*%
%FSLAX25Y25*%
%IPPOS*%
%LPD*%
%AMOC8*
5,1,8,0,0,1.08239X$1,22.5*
%
%ADD10C,0.12611*%
%ADD11C,0.06800*%
%ADD12C,0.06312*%
D10*
X0023670Y0028922D03*
X0133906Y0028922D03*
X0173276Y0028922D03*
X0283513Y0028922D03*
X0322883Y0028922D03*
X0433119Y0028922D03*
X0433119Y0249394D03*
X0322883Y0249394D03*
X0283513Y0249394D03*
X0173276Y0249394D03*
X0133906Y0249394D03*
X0023670Y0249394D03*
D11*
X0053300Y0252300D02*
X0053300Y0246300D01*
X0063300Y0246300D02*
X0063300Y0252300D01*
X0073300Y0252300D02*
X0073300Y0246300D01*
X0202863Y0246300D02*
X0202863Y0252300D01*
X0212863Y0252300D02*
X0212863Y0246300D01*
X0222863Y0246300D02*
X0222863Y0252300D01*
X0352489Y0252300D02*
X0352489Y0246300D01*
X0362489Y0246300D02*
X0362489Y0252300D01*
X0372489Y0252300D02*
X0372489Y0246300D01*
D12*
X0477300Y0148300D03*
X0487300Y0148300D03*
X0487300Y0138300D03*
X0477300Y0138300D03*
X0477300Y0128300D03*
X0487300Y0128300D03*
X0487300Y0118300D03*
X0477300Y0118300D03*
X0477300Y0108300D03*
X0487300Y0108300D03*
M02*
