%
M48
M72
T01C0.03150
T02C0.04000
T03C0.11811
%
T01
X477300Y108300
X487300Y108300
X487300Y118300
X477300Y118300
X477300Y128300
X487300Y128300
X487300Y138300
X477300Y138300
X477300Y148300
X487300Y148300
T02
X372489Y249300
X362489Y249300
X352489Y249300
X222863Y249300
X212863Y249300
X202863Y249300
X73300Y249300
X63300Y249300
X53300Y249300
T03
X23670Y28922
X133906Y28922
X173276Y28922
X283513Y28922
X322883Y28922
X433119Y28922
X433119Y249394
X322883Y249394
X283513Y249394
X173276Y249394
X133906Y249394
X23670Y249394
M30
