M48
METRIC,LZ,000.000
;FILE_FORMAT=3:3
;TYPE=PLATED
;Layer: PTH_Through
;EasyEDA v6.5.57, 2026-08-22 17:03:58
;2c63bcf7ba8c49f5a51d6de8d1b73cff,b708071f21264b789b81ea9d82a1e275,10
;Gerber Generator version 0.2
;Holesize 1 = 0.701 mm
T01C0.701
;Holesize 2 = 0.889 mm
T02C0.889
;Holesize 3 = 0.900 mm
T03C0.900
;Holesize 4 = 1.000 mm
T04C1.000
%
G05
G90
T01
X042291Y-019558
X042291Y-020828
X042291Y-022098
T02
X037719Y-015367
X040259Y-015367
X042799Y-015367
X008636Y-017653
X008636Y-020193
T03
X013970Y-022098
X013970Y-014478
X031242Y-020066
X038862Y-020066
X026543Y-014732
X034163Y-014732
X047371Y-021590
X047371Y-013970
T04
X017272Y-017018
X017272Y-019558
X024892Y-019558
X024892Y-017018
M30
