G04 Layer: TopLayer*
G04 EasyEDA v6.5.57, 2026-08-22 17:03:58*
G04 2c63bcf7ba8c49f5a51d6de8d1b73cff,b708071f21264b789b81ea9d82a1e275,10*
G04 Gerber Generator version 0.2*
G04 Scale: 100 percent, Rotated: No, Reflected: No *
G04 Dimensions in millimeters *
G04 leading zeros omitted , absolute positions ,4 integer and 5 decimal *
%FSLAX45Y45*%
%MOMM*%

%ADD10C,0.2540*%
%ADD11O,1.999996X0.999998*%
%ADD12R,1.5240X1.5240*%
%ADD13C,1.5240*%
%ADD14C,1.5748*%
%ADD15R,1.5748X1.5748*%
%ADD16C,1.8796*%
%ADD17C,0.0155*%

%LPD*%
G36*
X5033213Y-2392883D02*
G01*
X5029657Y-2392273D01*
X5026609Y-2390495D01*
X5023713Y-2387295D01*
X5022697Y-2387092D01*
X2331466Y-2387092D01*
X2327605Y-2386330D01*
X2324303Y-2384145D01*
X2322118Y-2380843D01*
X2321306Y-2376982D01*
X2313990Y-1210716D01*
X2314752Y-1206804D01*
X2316937Y-1203502D01*
X2320239Y-1201267D01*
X2324150Y-1200505D01*
X4999685Y-1200505D01*
X5014874Y-1201674D01*
X5028692Y-1204772D01*
X5041950Y-1209852D01*
X5054396Y-1216710D01*
X5065674Y-1225346D01*
X5075631Y-1235405D01*
X5084064Y-1246835D01*
X5090769Y-1259332D01*
X5095595Y-1272692D01*
X5098542Y-1286560D01*
X5099507Y-1300327D01*
X5099507Y-2299665D01*
X5098338Y-2314854D01*
X5095189Y-2328722D01*
X5090160Y-2341981D01*
X5083251Y-2354376D01*
X5074666Y-2365654D01*
X5065674Y-2374696D01*
X5054396Y-2383282D01*
X5041950Y-2390140D01*
X5036667Y-2392222D01*
G37*

%LPC*%
G36*
X4285437Y-2285187D02*
G01*
X4290415Y-2284831D01*
X4301490Y-2282291D01*
X4312005Y-2278176D01*
X4321860Y-2272487D01*
X4330700Y-2265426D01*
X4338421Y-2257094D01*
X4344822Y-2247747D01*
X4347972Y-2241143D01*
X4285437Y-2241143D01*
G37*
G36*
X4172762Y-2285187D02*
G01*
X4172762Y-2241143D01*
X4110228Y-2241143D01*
X4113377Y-2247747D01*
X4119778Y-2257094D01*
X4127500Y-2265426D01*
X4136339Y-2272487D01*
X4146194Y-2278176D01*
X4156710Y-2282291D01*
X4167784Y-2284831D01*
G37*
G36*
X4729734Y-2278634D02*
G01*
X4744466Y-2278634D01*
X4759147Y-2276805D01*
X4773422Y-2273249D01*
X4787188Y-2267915D01*
X4800193Y-2260904D01*
X4812233Y-2252370D01*
X4823155Y-2242464D01*
X4832756Y-2231237D01*
X4840884Y-2218944D01*
X4847488Y-2205736D01*
X4852416Y-2191816D01*
X4855565Y-2177389D01*
X4856886Y-2162708D01*
X4856480Y-2147925D01*
X4854194Y-2133346D01*
X4850130Y-2119172D01*
X4844389Y-2105558D01*
X4837023Y-2092807D01*
X4828133Y-2081022D01*
X4817872Y-2070404D01*
X4806340Y-2061159D01*
X4793792Y-2053386D01*
X4780381Y-2047239D01*
X4766360Y-2042769D01*
X4751832Y-2040026D01*
X4737100Y-2039112D01*
X4722368Y-2040026D01*
X4707839Y-2042769D01*
X4693818Y-2047239D01*
X4690719Y-2048662D01*
X4686757Y-2049576D01*
X4682693Y-2048865D01*
X4679289Y-2046579D01*
X4383735Y-1751075D01*
X4377537Y-1745945D01*
X4370832Y-1742389D01*
X4363618Y-1740204D01*
X4355592Y-1739392D01*
X4287418Y-1739392D01*
X4283506Y-1738630D01*
X4280204Y-1736394D01*
X4202480Y-1658670D01*
X4200296Y-1655419D01*
X4199534Y-1651507D01*
X4200296Y-1647596D01*
X4202480Y-1644345D01*
X4205782Y-1642110D01*
X4209694Y-1641348D01*
X4358081Y-1641348D01*
X4364380Y-1640636D01*
X4369866Y-1638706D01*
X4374743Y-1635658D01*
X4378858Y-1631543D01*
X4381906Y-1626666D01*
X4383836Y-1621180D01*
X4384548Y-1614881D01*
X4384548Y-1458518D01*
X4383836Y-1452219D01*
X4381906Y-1446733D01*
X4378858Y-1441856D01*
X4374743Y-1437741D01*
X4369866Y-1434693D01*
X4364380Y-1432763D01*
X4358081Y-1432052D01*
X4201718Y-1432052D01*
X4195419Y-1432763D01*
X4189933Y-1434693D01*
X4185056Y-1437741D01*
X4180941Y-1441856D01*
X4177893Y-1446733D01*
X4175963Y-1452219D01*
X4175251Y-1458518D01*
X4175251Y-1606905D01*
X4174490Y-1610817D01*
X4172254Y-1614119D01*
X4169003Y-1616303D01*
X4165092Y-1617065D01*
X4161180Y-1616303D01*
X4157929Y-1614119D01*
X4126534Y-1582724D01*
X4124401Y-1579626D01*
X4123537Y-1575968D01*
X4124096Y-1572260D01*
X4126941Y-1563776D01*
X4129633Y-1550365D01*
X4130548Y-1536700D01*
X4129633Y-1523034D01*
X4126941Y-1509623D01*
X4122572Y-1496669D01*
X4116527Y-1484376D01*
X4108907Y-1472996D01*
X4099864Y-1462735D01*
X4089603Y-1453692D01*
X4078224Y-1446072D01*
X4065930Y-1440027D01*
X4052976Y-1435658D01*
X4039565Y-1432966D01*
X4025900Y-1432052D01*
X4012234Y-1432966D01*
X3998823Y-1435658D01*
X3985869Y-1440027D01*
X3973576Y-1446072D01*
X3962196Y-1453692D01*
X3951935Y-1462735D01*
X3942892Y-1472996D01*
X3935272Y-1484376D01*
X3929227Y-1496669D01*
X3924858Y-1509623D01*
X3922166Y-1523034D01*
X3921251Y-1536700D01*
X3922166Y-1550365D01*
X3924858Y-1563776D01*
X3929227Y-1576730D01*
X3935272Y-1589024D01*
X3942892Y-1600403D01*
X3951935Y-1610664D01*
X3962196Y-1619707D01*
X3973576Y-1627327D01*
X3985869Y-1633372D01*
X3998823Y-1637741D01*
X4012234Y-1640433D01*
X4025900Y-1641348D01*
X4039565Y-1640433D01*
X4052976Y-1637741D01*
X4061460Y-1634896D01*
X4065168Y-1634337D01*
X4068826Y-1635201D01*
X4071924Y-1637334D01*
X4239564Y-1804924D01*
X4245762Y-1810054D01*
X4252468Y-1813610D01*
X4259681Y-1815795D01*
X4267708Y-1816607D01*
X4335881Y-1816607D01*
X4339793Y-1817370D01*
X4343095Y-1819605D01*
X4624730Y-2101240D01*
X4626965Y-2104542D01*
X4627727Y-2108454D01*
X4626914Y-2112365D01*
X4624070Y-2119172D01*
X4620006Y-2133346D01*
X4617720Y-2147925D01*
X4617313Y-2162708D01*
X4618634Y-2177389D01*
X4621784Y-2191816D01*
X4626711Y-2205736D01*
X4633315Y-2218944D01*
X4641443Y-2231237D01*
X4651044Y-2242464D01*
X4661966Y-2252370D01*
X4674006Y-2260904D01*
X4687011Y-2267915D01*
X4700778Y-2273249D01*
X4715052Y-2276805D01*
G37*
G36*
X4110228Y-2178456D02*
G01*
X4172762Y-2178456D01*
X4172762Y-2168855D01*
X4173524Y-2164994D01*
X4175709Y-2161692D01*
X4179011Y-2159457D01*
X4182922Y-2158695D01*
X4275277Y-2158695D01*
X4279188Y-2159457D01*
X4282490Y-2161692D01*
X4284675Y-2164994D01*
X4285437Y-2168855D01*
X4285437Y-2178456D01*
X4347972Y-2178456D01*
X4344822Y-2171852D01*
X4338421Y-2162505D01*
X4329734Y-2153259D01*
X4327702Y-2150059D01*
X4326991Y-2146300D01*
X4327702Y-2142540D01*
X4329734Y-2139340D01*
X4338421Y-2130094D01*
X4344822Y-2120747D01*
X4349750Y-2110536D01*
X4353052Y-2099665D01*
X4354779Y-2088489D01*
X4354779Y-2077110D01*
X4353052Y-2065934D01*
X4349750Y-2055063D01*
X4344822Y-2044852D01*
X4338421Y-2035505D01*
X4329734Y-2026259D01*
X4327702Y-2023059D01*
X4326991Y-2019300D01*
X4327702Y-2015540D01*
X4329734Y-2012340D01*
X4338421Y-2003094D01*
X4344822Y-1993747D01*
X4349750Y-1983536D01*
X4353052Y-1972665D01*
X4354779Y-1961489D01*
X4354779Y-1950110D01*
X4353052Y-1938934D01*
X4349750Y-1928063D01*
X4344822Y-1917852D01*
X4338421Y-1908505D01*
X4330700Y-1900174D01*
X4321860Y-1893112D01*
X4312005Y-1887423D01*
X4301490Y-1883308D01*
X4290415Y-1880768D01*
X4278731Y-1879904D01*
X4179468Y-1879904D01*
X4167784Y-1880768D01*
X4156710Y-1883308D01*
X4146194Y-1887423D01*
X4136339Y-1893112D01*
X4127500Y-1900174D01*
X4119778Y-1908505D01*
X4113377Y-1917852D01*
X4108450Y-1928063D01*
X4105148Y-1938934D01*
X4103420Y-1950110D01*
X4103420Y-1961489D01*
X4105148Y-1972665D01*
X4108450Y-1983536D01*
X4113377Y-1993747D01*
X4119778Y-2003094D01*
X4128465Y-2012340D01*
X4130497Y-2015540D01*
X4131208Y-2019300D01*
X4130497Y-2023059D01*
X4128465Y-2026259D01*
X4119778Y-2035505D01*
X4113377Y-2044852D01*
X4108450Y-2055063D01*
X4105148Y-2065934D01*
X4103420Y-2077110D01*
X4103420Y-2088489D01*
X4105148Y-2099665D01*
X4108450Y-2110536D01*
X4113377Y-2120747D01*
X4119778Y-2130094D01*
X4128465Y-2139340D01*
X4130497Y-2142540D01*
X4131208Y-2146300D01*
X4130497Y-2150059D01*
X4128465Y-2153259D01*
X4119778Y-2162505D01*
X4113377Y-2171852D01*
G37*
G36*
X3120491Y-2126437D02*
G01*
X3135274Y-2125980D01*
X3149854Y-2123694D01*
X3164027Y-2119630D01*
X3177641Y-2113889D01*
X3190392Y-2106523D01*
X3202178Y-2097633D01*
X3212795Y-2087372D01*
X3222040Y-2075840D01*
X3229813Y-2063292D01*
X3235960Y-2049881D01*
X3240430Y-2035860D01*
X3243173Y-2021332D01*
X3244088Y-2006600D01*
X3243173Y-1991868D01*
X3240430Y-1977339D01*
X3235960Y-1963318D01*
X3229813Y-1949907D01*
X3222040Y-1937359D01*
X3212795Y-1925828D01*
X3202178Y-1915566D01*
X3190392Y-1906676D01*
X3177641Y-1899310D01*
X3164027Y-1893570D01*
X3149854Y-1889506D01*
X3135274Y-1887220D01*
X3120491Y-1886813D01*
X3105810Y-1888134D01*
X3091383Y-1891284D01*
X3077464Y-1896211D01*
X3064256Y-1902815D01*
X3051962Y-1910943D01*
X3040735Y-1920544D01*
X3030829Y-1931466D01*
X3022295Y-1943506D01*
X3015284Y-1956511D01*
X3009950Y-1970278D01*
X3006394Y-1984552D01*
X3004566Y-1999234D01*
X3004566Y-2013966D01*
X3006394Y-2028647D01*
X3009950Y-2042922D01*
X3015284Y-2056688D01*
X3022295Y-2069693D01*
X3030829Y-2081733D01*
X3040735Y-2092655D01*
X3051962Y-2102256D01*
X3064256Y-2110384D01*
X3077464Y-2116988D01*
X3091383Y-2121916D01*
X3105810Y-2125065D01*
G37*
G36*
X3882491Y-2126437D02*
G01*
X3897274Y-2125980D01*
X3911854Y-2123694D01*
X3926027Y-2119630D01*
X3939641Y-2113889D01*
X3952392Y-2106523D01*
X3964178Y-2097633D01*
X3974795Y-2087372D01*
X3984040Y-2075840D01*
X3991813Y-2063292D01*
X3997960Y-2049881D01*
X4002430Y-2035860D01*
X4005173Y-2021332D01*
X4006087Y-2006600D01*
X4005173Y-1991868D01*
X4002430Y-1977339D01*
X3997960Y-1963318D01*
X3991813Y-1949907D01*
X3984040Y-1937359D01*
X3974795Y-1925828D01*
X3964178Y-1915566D01*
X3952392Y-1906676D01*
X3939641Y-1899310D01*
X3926027Y-1893570D01*
X3911854Y-1889506D01*
X3897274Y-1887220D01*
X3882491Y-1886813D01*
X3867810Y-1888134D01*
X3853383Y-1891284D01*
X3839464Y-1896211D01*
X3826256Y-1902815D01*
X3813962Y-1910943D01*
X3802735Y-1920544D01*
X3792829Y-1931466D01*
X3784295Y-1943506D01*
X3777284Y-1956511D01*
X3771950Y-1970278D01*
X3768394Y-1984552D01*
X3766565Y-1999234D01*
X3766565Y-2013966D01*
X3768394Y-2028647D01*
X3771950Y-2042922D01*
X3777284Y-2056688D01*
X3784295Y-2069693D01*
X3792829Y-2081733D01*
X3802735Y-2092655D01*
X3813962Y-2102256D01*
X3826256Y-2110384D01*
X3839464Y-2116988D01*
X3853383Y-2121916D01*
X3867810Y-2125065D01*
G37*
G36*
X2444750Y-2047595D02*
G01*
X2444750Y-2000250D01*
X2397404Y-2000250D01*
X2398064Y-2001824D01*
X2405024Y-2013559D01*
X2413508Y-2024278D01*
X2423312Y-2033778D01*
X2434285Y-2041855D01*
G37*
G36*
X2533650Y-2047443D02*
G01*
X2538272Y-2045309D01*
X2549753Y-2037994D01*
X2560167Y-2029206D01*
X2569311Y-2019046D01*
X2577033Y-2007819D01*
X2580843Y-2000250D01*
X2533650Y-2000250D01*
G37*
G36*
X2533650Y-1911350D02*
G01*
X2580843Y-1911350D01*
X2577033Y-1903780D01*
X2569311Y-1892554D01*
X2560167Y-1882393D01*
X2549753Y-1873605D01*
X2538272Y-1866290D01*
X2533650Y-1864156D01*
G37*
G36*
X2397404Y-1911350D02*
G01*
X2444750Y-1911350D01*
X2444750Y-1864004D01*
X2434285Y-1869744D01*
X2423312Y-1877822D01*
X2413508Y-1887321D01*
X2405024Y-1898040D01*
X2398064Y-1909775D01*
G37*
G36*
X2485796Y-1803806D02*
G01*
X2499410Y-1803349D01*
X2512872Y-1801114D01*
X2525877Y-1797050D01*
X2538272Y-1791309D01*
X2549753Y-1783994D01*
X2560167Y-1775206D01*
X2569311Y-1765046D01*
X2577033Y-1753819D01*
X2583180Y-1741678D01*
X2587650Y-1728774D01*
X2590393Y-1715414D01*
X2591308Y-1701800D01*
X2590393Y-1688185D01*
X2587650Y-1674825D01*
X2583180Y-1661922D01*
X2577033Y-1649780D01*
X2569311Y-1638554D01*
X2560167Y-1628394D01*
X2549753Y-1619605D01*
X2538272Y-1612290D01*
X2525877Y-1606550D01*
X2512872Y-1602486D01*
X2499410Y-1600250D01*
X2485796Y-1599793D01*
X2472232Y-1601114D01*
X2458974Y-1604314D01*
X2446223Y-1609191D01*
X2434285Y-1615744D01*
X2423312Y-1623822D01*
X2413508Y-1633321D01*
X2405024Y-1644040D01*
X2398064Y-1655775D01*
X2392781Y-1668322D01*
X2389174Y-1681480D01*
X2387346Y-1694992D01*
X2387346Y-1708607D01*
X2389174Y-1722120D01*
X2392781Y-1735277D01*
X2398064Y-1747824D01*
X2405024Y-1759559D01*
X2413508Y-1770278D01*
X2423312Y-1779778D01*
X2434285Y-1787855D01*
X2446223Y-1794408D01*
X2458974Y-1799285D01*
X2472232Y-1802485D01*
G37*
G36*
X3817620Y-1630578D02*
G01*
X3824224Y-1627327D01*
X3835603Y-1619707D01*
X3845864Y-1610664D01*
X3854907Y-1600403D01*
X3862527Y-1589024D01*
X3865778Y-1582420D01*
X3817620Y-1582420D01*
G37*
G36*
X3726179Y-1630578D02*
G01*
X3726179Y-1582420D01*
X3678021Y-1582420D01*
X3681272Y-1589024D01*
X3688892Y-1600403D01*
X3697935Y-1610664D01*
X3708196Y-1619707D01*
X3719576Y-1627327D01*
G37*
G36*
X3412591Y-1593037D02*
G01*
X3427374Y-1592580D01*
X3441954Y-1590294D01*
X3456127Y-1586230D01*
X3469741Y-1580489D01*
X3482492Y-1573123D01*
X3494278Y-1564233D01*
X3504895Y-1553972D01*
X3514140Y-1542440D01*
X3521913Y-1529892D01*
X3528060Y-1516481D01*
X3532530Y-1502460D01*
X3535273Y-1487932D01*
X3536187Y-1473200D01*
X3535273Y-1458468D01*
X3532530Y-1443939D01*
X3528060Y-1429918D01*
X3521913Y-1416507D01*
X3514140Y-1403959D01*
X3504895Y-1392428D01*
X3494278Y-1382166D01*
X3482492Y-1373276D01*
X3469741Y-1365910D01*
X3456127Y-1360170D01*
X3441954Y-1356106D01*
X3427374Y-1353820D01*
X3412591Y-1353413D01*
X3397910Y-1354734D01*
X3383483Y-1357884D01*
X3369564Y-1362811D01*
X3356356Y-1369415D01*
X3344062Y-1377543D01*
X3332835Y-1387144D01*
X3322929Y-1398066D01*
X3314395Y-1410106D01*
X3307384Y-1423111D01*
X3302050Y-1436878D01*
X3298494Y-1451152D01*
X3296665Y-1465834D01*
X3296665Y-1480566D01*
X3298494Y-1495247D01*
X3302050Y-1509522D01*
X3307384Y-1523288D01*
X3314395Y-1536293D01*
X3322929Y-1548333D01*
X3332835Y-1559255D01*
X3344062Y-1568856D01*
X3356356Y-1576984D01*
X3369564Y-1583588D01*
X3383483Y-1588516D01*
X3397910Y-1591665D01*
G37*
G36*
X2650591Y-1593037D02*
G01*
X2665374Y-1592580D01*
X2679954Y-1590294D01*
X2694127Y-1586230D01*
X2707741Y-1580489D01*
X2720492Y-1573123D01*
X2732278Y-1564233D01*
X2742895Y-1553972D01*
X2752140Y-1542440D01*
X2759913Y-1529892D01*
X2766060Y-1516481D01*
X2770530Y-1502460D01*
X2773273Y-1487932D01*
X2774188Y-1473200D01*
X2773273Y-1458468D01*
X2770530Y-1443939D01*
X2766060Y-1429918D01*
X2759913Y-1416507D01*
X2752140Y-1403959D01*
X2742895Y-1392428D01*
X2732278Y-1382166D01*
X2720492Y-1373276D01*
X2707741Y-1365910D01*
X2694127Y-1360170D01*
X2679954Y-1356106D01*
X2665374Y-1353820D01*
X2650591Y-1353413D01*
X2635910Y-1354734D01*
X2621483Y-1357884D01*
X2607564Y-1362811D01*
X2594356Y-1369415D01*
X2582062Y-1377543D01*
X2570835Y-1387144D01*
X2560929Y-1398066D01*
X2552395Y-1410106D01*
X2545384Y-1423111D01*
X2540050Y-1436878D01*
X2536494Y-1451152D01*
X2534666Y-1465834D01*
X2534666Y-1480566D01*
X2536494Y-1495247D01*
X2540050Y-1509522D01*
X2545384Y-1523288D01*
X2552395Y-1536293D01*
X2560929Y-1548333D01*
X2570835Y-1559255D01*
X2582062Y-1568856D01*
X2594356Y-1576984D01*
X2607564Y-1583588D01*
X2621483Y-1588516D01*
X2635910Y-1591665D01*
G37*
G36*
X4729734Y-1516634D02*
G01*
X4744466Y-1516634D01*
X4759147Y-1514805D01*
X4773422Y-1511249D01*
X4787188Y-1505915D01*
X4800193Y-1498904D01*
X4812233Y-1490370D01*
X4823155Y-1480464D01*
X4832756Y-1469237D01*
X4840884Y-1456944D01*
X4847488Y-1443736D01*
X4852416Y-1429816D01*
X4855565Y-1415389D01*
X4856886Y-1400708D01*
X4856480Y-1385925D01*
X4854194Y-1371346D01*
X4850130Y-1357172D01*
X4844389Y-1343558D01*
X4837023Y-1330807D01*
X4828133Y-1319022D01*
X4817872Y-1308404D01*
X4806340Y-1299159D01*
X4793792Y-1291386D01*
X4780381Y-1285240D01*
X4766360Y-1280769D01*
X4751832Y-1278026D01*
X4737100Y-1277112D01*
X4722368Y-1278026D01*
X4707839Y-1280769D01*
X4693818Y-1285240D01*
X4680407Y-1291386D01*
X4667859Y-1299159D01*
X4656328Y-1308404D01*
X4646066Y-1319022D01*
X4637176Y-1330807D01*
X4629810Y-1343558D01*
X4624070Y-1357172D01*
X4620006Y-1371346D01*
X4617720Y-1385925D01*
X4617313Y-1400708D01*
X4618634Y-1415389D01*
X4621784Y-1429816D01*
X4626711Y-1443736D01*
X4633315Y-1456944D01*
X4641443Y-1469237D01*
X4651044Y-1480464D01*
X4661966Y-1490370D01*
X4674006Y-1498904D01*
X4687011Y-1505915D01*
X4700778Y-1511249D01*
X4715052Y-1514805D01*
G37*
G36*
X3678021Y-1490980D02*
G01*
X3726179Y-1490980D01*
X3726179Y-1442821D01*
X3719576Y-1446072D01*
X3708196Y-1453692D01*
X3697935Y-1462735D01*
X3688892Y-1472996D01*
X3681272Y-1484376D01*
G37*
G36*
X3817620Y-1490980D02*
G01*
X3865778Y-1490980D01*
X3862527Y-1484376D01*
X3854907Y-1472996D01*
X3845864Y-1462735D01*
X3835603Y-1453692D01*
X3824224Y-1446072D01*
X3817620Y-1442821D01*
G37*

%LPD*%
G36*
X697026Y-2399284D02*
G01*
X685139Y-2398318D01*
X671271Y-2395220D01*
X658012Y-2390140D01*
X645617Y-2383282D01*
X634339Y-2374696D01*
X624382Y-2364587D01*
X615950Y-2353157D01*
X609244Y-2340660D01*
X604367Y-2327300D01*
X601472Y-2313432D01*
X600506Y-2299665D01*
X600506Y-1300327D01*
X601675Y-1285138D01*
X604774Y-1271270D01*
X609854Y-1258011D01*
X616712Y-1245616D01*
X625297Y-1234338D01*
X635406Y-1224381D01*
X646836Y-1215948D01*
X659333Y-1209243D01*
X672693Y-1204366D01*
X686562Y-1201470D01*
X700328Y-1200505D01*
X1965147Y-1200505D01*
X1969058Y-1201318D01*
X1972411Y-1203553D01*
X1974596Y-1206855D01*
X1975307Y-1210818D01*
X1960473Y-2377084D01*
X1959660Y-2380894D01*
X1957425Y-2384145D01*
X1954174Y-2386330D01*
X1950313Y-2387092D01*
X725119Y-2387092D01*
X722579Y-2387701D01*
X702411Y-2398166D01*
X699820Y-2399080D01*
G37*

%LPC*%
G36*
X1389634Y-2329434D02*
G01*
X1404366Y-2329434D01*
X1419047Y-2327605D01*
X1433322Y-2324049D01*
X1447088Y-2318715D01*
X1460093Y-2311704D01*
X1472133Y-2303170D01*
X1483055Y-2293264D01*
X1492656Y-2282037D01*
X1500784Y-2269744D01*
X1507388Y-2256536D01*
X1512316Y-2242616D01*
X1515465Y-2228189D01*
X1516837Y-2213508D01*
X1516380Y-2198725D01*
X1514094Y-2184146D01*
X1510030Y-2169972D01*
X1504289Y-2156358D01*
X1496923Y-2143607D01*
X1488033Y-2131822D01*
X1477772Y-2121204D01*
X1466240Y-2111959D01*
X1453692Y-2104186D01*
X1440281Y-2098040D01*
X1426260Y-2093569D01*
X1411732Y-2090826D01*
X1397000Y-2089912D01*
X1382268Y-2090826D01*
X1367739Y-2093569D01*
X1353718Y-2098040D01*
X1340307Y-2104186D01*
X1327759Y-2111959D01*
X1316228Y-2121204D01*
X1305966Y-2131822D01*
X1297076Y-2143607D01*
X1289710Y-2156358D01*
X1283970Y-2169972D01*
X1279906Y-2184146D01*
X1277620Y-2198725D01*
X1277213Y-2213508D01*
X1278534Y-2228189D01*
X1281684Y-2242616D01*
X1286611Y-2256536D01*
X1293215Y-2269744D01*
X1301343Y-2282037D01*
X1310944Y-2293264D01*
X1321866Y-2303170D01*
X1333906Y-2311704D01*
X1346911Y-2318715D01*
X1360678Y-2324049D01*
X1374952Y-2327605D01*
G37*
G36*
X863600Y-2123948D02*
G01*
X877265Y-2123033D01*
X890676Y-2120341D01*
X903630Y-2115972D01*
X915924Y-2109927D01*
X927303Y-2102307D01*
X937564Y-2093264D01*
X946607Y-2083003D01*
X954227Y-2071624D01*
X960272Y-2059330D01*
X964641Y-2046376D01*
X967333Y-2032965D01*
X968248Y-2019300D01*
X967333Y-2005634D01*
X964641Y-1992223D01*
X960272Y-1979269D01*
X954227Y-1966975D01*
X946607Y-1955596D01*
X937564Y-1945335D01*
X927303Y-1936292D01*
X915924Y-1928672D01*
X903630Y-1922627D01*
X890676Y-1918258D01*
X877265Y-1915566D01*
X863600Y-1914652D01*
X849934Y-1915566D01*
X836523Y-1918258D01*
X823569Y-1922627D01*
X811276Y-1928672D01*
X799896Y-1936292D01*
X789635Y-1945335D01*
X780592Y-1955596D01*
X772972Y-1966975D01*
X766927Y-1979269D01*
X762558Y-1992223D01*
X759866Y-2005634D01*
X758952Y-2019300D01*
X759866Y-2032965D01*
X762558Y-2046376D01*
X766927Y-2059330D01*
X772972Y-2071624D01*
X780592Y-2083003D01*
X789635Y-2093264D01*
X799896Y-2102307D01*
X811276Y-2109927D01*
X823569Y-2115972D01*
X836523Y-2120341D01*
X849934Y-2123033D01*
G37*
G36*
X1682750Y-2047595D02*
G01*
X1682750Y-2000250D01*
X1635404Y-2000250D01*
X1636064Y-2001824D01*
X1643024Y-2013559D01*
X1651507Y-2024278D01*
X1661312Y-2033778D01*
X1672285Y-2041855D01*
G37*
G36*
X1771650Y-2047443D02*
G01*
X1776272Y-2045309D01*
X1787753Y-2037994D01*
X1798167Y-2029206D01*
X1807311Y-2019046D01*
X1815033Y-2007819D01*
X1818843Y-2000250D01*
X1771650Y-2000250D01*
G37*
G36*
X1771650Y-1911350D02*
G01*
X1818843Y-1911350D01*
X1815033Y-1903780D01*
X1807311Y-1892554D01*
X1798167Y-1882393D01*
X1787753Y-1873605D01*
X1776272Y-1866290D01*
X1771650Y-1864156D01*
G37*
G36*
X1635404Y-1911350D02*
G01*
X1682750Y-1911350D01*
X1682750Y-1864004D01*
X1672285Y-1869744D01*
X1661312Y-1877822D01*
X1651507Y-1887321D01*
X1643024Y-1898040D01*
X1636064Y-1909775D01*
G37*
G36*
X909319Y-1869948D02*
G01*
X941781Y-1869948D01*
X948080Y-1869236D01*
X953566Y-1867306D01*
X958443Y-1864258D01*
X962558Y-1860143D01*
X965606Y-1855266D01*
X967536Y-1849780D01*
X968248Y-1843481D01*
X968248Y-1811020D01*
X909319Y-1811020D01*
G37*
G36*
X785418Y-1869948D02*
G01*
X817880Y-1869948D01*
X817880Y-1811020D01*
X758952Y-1811020D01*
X758952Y-1843481D01*
X759663Y-1849780D01*
X761593Y-1855266D01*
X764641Y-1860143D01*
X768756Y-1864258D01*
X773633Y-1867306D01*
X779119Y-1869236D01*
G37*
G36*
X1651558Y-1803907D02*
G01*
X1802841Y-1803907D01*
X1809140Y-1803196D01*
X1814626Y-1801266D01*
X1819503Y-1798218D01*
X1823618Y-1794103D01*
X1826666Y-1789226D01*
X1828596Y-1783740D01*
X1829307Y-1777441D01*
X1829307Y-1626158D01*
X1828596Y-1619859D01*
X1826666Y-1614373D01*
X1823618Y-1609496D01*
X1819503Y-1605381D01*
X1814626Y-1602333D01*
X1809140Y-1600403D01*
X1802841Y-1599692D01*
X1651558Y-1599692D01*
X1645259Y-1600403D01*
X1639773Y-1602333D01*
X1634896Y-1605381D01*
X1630781Y-1609496D01*
X1627733Y-1614373D01*
X1625803Y-1619859D01*
X1625092Y-1626158D01*
X1625092Y-1777441D01*
X1625803Y-1783740D01*
X1627733Y-1789226D01*
X1630781Y-1794103D01*
X1634896Y-1798218D01*
X1639773Y-1801266D01*
X1645259Y-1803196D01*
G37*
G36*
X758952Y-1719580D02*
G01*
X817880Y-1719580D01*
X817880Y-1660652D01*
X785418Y-1660652D01*
X779119Y-1661363D01*
X773633Y-1663293D01*
X768756Y-1666341D01*
X764641Y-1670456D01*
X761593Y-1675333D01*
X759663Y-1680819D01*
X758952Y-1687118D01*
G37*
G36*
X909319Y-1719580D02*
G01*
X968248Y-1719580D01*
X968248Y-1687118D01*
X967536Y-1680819D01*
X965606Y-1675333D01*
X962558Y-1670456D01*
X958443Y-1666341D01*
X953566Y-1663293D01*
X948080Y-1661363D01*
X941781Y-1660652D01*
X909319Y-1660652D01*
G37*
G36*
X1389634Y-1567434D02*
G01*
X1404366Y-1567434D01*
X1419047Y-1565605D01*
X1433322Y-1562049D01*
X1447088Y-1556715D01*
X1460093Y-1549704D01*
X1472133Y-1541170D01*
X1483055Y-1531264D01*
X1492656Y-1520037D01*
X1500784Y-1507744D01*
X1507388Y-1494536D01*
X1512316Y-1480616D01*
X1515465Y-1466189D01*
X1516837Y-1451508D01*
X1516380Y-1436725D01*
X1514094Y-1422146D01*
X1510030Y-1407972D01*
X1504289Y-1394358D01*
X1496923Y-1381607D01*
X1488033Y-1369822D01*
X1477772Y-1359204D01*
X1466240Y-1349959D01*
X1453692Y-1342186D01*
X1440281Y-1336040D01*
X1426260Y-1331569D01*
X1411732Y-1328826D01*
X1397000Y-1327912D01*
X1382268Y-1328826D01*
X1367739Y-1331569D01*
X1353718Y-1336040D01*
X1340307Y-1342186D01*
X1327759Y-1349959D01*
X1316228Y-1359204D01*
X1305966Y-1369822D01*
X1297076Y-1381607D01*
X1289710Y-1394358D01*
X1283970Y-1407972D01*
X1279906Y-1422146D01*
X1277620Y-1436725D01*
X1277213Y-1451508D01*
X1278534Y-1466189D01*
X1281684Y-1480616D01*
X1286611Y-1494536D01*
X1293215Y-1507744D01*
X1301343Y-1520037D01*
X1310944Y-1531264D01*
X1321866Y-1541170D01*
X1333906Y-1549704D01*
X1346911Y-1556715D01*
X1360678Y-1562049D01*
X1374952Y-1565605D01*
G37*

%LPD*%
D10*
X4737100Y-2159000D02*
G01*
X4356100Y-1778000D01*
X4267200Y-1778000D01*
X4025900Y-1536700D01*
D11*
G01*
X4229100Y-1955800D03*
G01*
X4229100Y-2082800D03*
G01*
X4229100Y-2209800D03*
D12*
G01*
X1727200Y-1701800D03*
D13*
G01*
X1727200Y-1955800D03*
G01*
X2489200Y-1955800D03*
G01*
X2489200Y-1701800D03*
D14*
G01*
X3771900Y-1536700D03*
G01*
X4025900Y-1536700D03*
D15*
G01*
X4279900Y-1536700D03*
G01*
X863600Y-1765300D03*
D14*
G01*
X863600Y-2019300D03*
D16*
G01*
X1397000Y-2209800D03*
G01*
X1397000Y-1447800D03*
G01*
X3124200Y-2006600D03*
G01*
X3886200Y-2006600D03*
G01*
X2654300Y-1473200D03*
G01*
X3416300Y-1473200D03*
G01*
X4737100Y-2159000D03*
G01*
X4737100Y-1397000D03*
M02*
